<svg xmlns="http://www.w3.org/2000/svg" xmlns:xlink="http://www.w3.org/1999/xlink" version="1.1" id="Capa_2" x="0px" y="0px" viewBox="0 0 1975 2279" style="enable-background:new 0 0 1975 2279;" xml:space="preserve">
<path style="fill:#f44336;" d="M1022.683,1847.343c53.675-160.844,149.832-314.292,244.946-465.143  c197.62-101.747,332.779-307.757,332.779-545.336c0-338.544-274.444-612.988-612.987-612.988S374.434,498.319,374.434,836.863  c0,237.812,135.424,443.993,333.36,545.636c94.823,150.76,190.254,304.115,243.62,464.858  c-224.112,4.36-400.285,49.046-400.285,103.53c0,57.371,195.335,103.879,436.292,103.879s436.292-46.508,436.292-103.879  C1423.713,1896.342,1247.15,1851.617,1022.683,1847.343z M982.65,1110.561c-198.328,0-359.103-160.776-359.103-359.103  c0-37.133,5.624-72.133,16.067-104.5c56.512-124.187,181.68-210.528,327.018-210.528c198.327,0,359.103,160.776,359.103,359.103  c0,34.837-4.96,68.515-14.214,100.367C1255.924,1022.3,1129.595,1110.561,982.65,1110.561z"/>
<path style="fill:#000000;" d="M1022.683,1847.365c-3.01,9.02-5.886,18.063-8.621,27.13c-0.377,1.249-0.752,2.499-1.123,3.75  c-2.448,8.238-4.78,16.498-6.988,24.777c-2.27,8.511-9.994,14.494-18.945,14.494c-8.958,0-16.687-5.991-18.949-14.512  c-2.164-8.149-4.448-16.279-6.844-24.39c-0.642-2.176-1.294-4.352-1.953-6.525c-2.502-8.257-5.12-16.494-7.848-24.711  c-224.112,4.36-400.285,49.046-400.285,103.53c0,57.371,195.335,103.879,436.292,103.879s436.292-46.508,436.292-103.879  C1423.713,1896.365,1247.15,1851.64,1022.683,1847.365z"/>
<path style="fill:#000000;" d="M971.24,1800.514c-31.8-192.169-1.897-334.007,1.224-347.922c0.13-0.58-0.338-1.085-0.931-1.05  c-100.363,5.995-189.352-36.469-209.723-47.004c-0.888-0.459-1.677,0.55-1.087,1.356  c78.819,107.603,172.774,315.582,205.072,396.215C967.073,1805.3,971.801,1803.904,971.24,1800.514z"/>
<path style="fill:#eff5fe;" d="M1078.99,1880.755c-20.38-2.635-42.131-4.746-64.927-6.259c-0.377,1.25-0.752,2.5-1.123,3.75  C1035.683,1878.525,1057.784,1879.381,1078.99,1880.755z"/>
<path style="fill:#eff5fe;" d="M929.818,1871.764c-172.872,0-313.013,33.367-313.013,74.526c0,34.368,97.707,63.303,230.59,71.916  c-97.588-12.619-163.837-37.235-163.837-65.535c0-38.314,121.429-69.875,277.655-74.056c-0.642-2.176-1.294-4.351-1.953-6.525  C949.568,1871.874,939.748,1871.764,929.818,1871.764z"/>
<path style="fill:#eff5fe;" d="M684.365,449.337c28.106-27.797,59.815-51.479,94.298-70.786c12.039-6.74,1.243-25.263-10.819-18.509  C640.44,431.374,556.578,561.171,531.532,703.8c-7.052,40.152-9.685,80.974-7.499,121.687c0.737,13.721,22.178,13.808,21.436,0  C538.11,688.462,585.976,546.651,684.365,449.337z"/>
<path style="fill:#eff5fe;" d="M1304.128,1183.294c-28.105,27.799-59.814,51.48-94.297,70.786  c-12.039,6.741-1.243,25.263,10.819,18.51c127.404-71.333,211.266-201.13,236.313-343.759c7.051-40.152,9.685-80.974,7.498-121.687  c-0.737-13.722-22.178-13.809-21.436,0C1450.383,944.169,1402.518,1085.981,1304.128,1183.294z"/>
<path style="fill:#eff5fe;" d="M967.555,440.291c198.134,0,352.714,157.131,357.041,355.467  c0.76,34.851-4.561,67.045-13.064,100.204l0.02-0.044c0.295-0.671,0.588-1.343,0.879-2.016l0.002-0.004  c0.292-0.677,0.583-1.355,0.871-2.033l0.036-0.086c0.289-0.681,0.576-1.363,0.861-2.046l0.016-0.037  c0.288-0.69,0.573-1.38,0.856-2.073l0.007-0.017c0.271-0.663,0.541-1.326,0.808-1.991l0.13-0.324  c0.228-0.568,0.455-1.138,0.681-1.707l0.17-0.432c0.22-0.558,0.439-1.118,0.656-1.678l0.143-0.369  c0.218-0.563,0.435-1.128,0.65-1.693l0.166-0.437c0.208-0.547,0.414-1.096,0.619-1.645l0.166-0.442  c0.203-0.545,0.405-1.092,0.605-1.639l0.174-0.473c1.025-2.808,2.017-5.631,2.974-8.471l0.003-0.01  c0.237-0.706,0.474-1.413,0.707-2.121l0.056-0.17c0.206-0.627,0.412-1.255,0.615-1.884l0.15-0.465  c0.178-0.554,0.355-1.109,0.531-1.664l0.159-0.504c0.166-0.527,0.331-1.056,0.495-1.584l0.189-0.613  c0.154-0.503,0.308-1.006,0.461-1.51l0.193-0.641c0.149-0.493,0.295-0.987,0.442-1.481l0.199-0.674  c0.15-0.512,0.3-1.024,0.448-1.536l0.163-0.565l0.033-0.116c0.172-0.598,0.341-1.196,0.51-1.796l0.003-0.011l0.052-0.185  l0.046-0.163c0.169-0.604,0.337-1.21,0.503-1.816l0.114-0.418c0.156-0.569,0.31-1.139,0.462-1.709l0.152-0.568l0.004-0.017  c0.139-0.521,0.276-1.042,0.412-1.563l0.078-0.295l0.12-0.464c0.135-0.519,0.267-1.038,0.399-1.558l0.035-0.136l0.143-0.569  c0.129-0.511,0.256-1.022,0.383-1.534l0.019-0.075l0.156-0.636l0.333-1.372l0.024-0.1l0.194-0.81l0.324-1.375l0.003-0.012  l0.177-0.762l0.322-1.405l0.188-0.833l0.292-1.31l0.189-0.858c0.11-0.502,0.218-1.005,0.325-1.508l0.136-0.636  c0.114-0.537,0.226-1.073,0.337-1.611l0.128-0.616c0.138-0.674,0.274-1.348,0.409-2.024c0.103-0.52,0.205-1.042,0.307-1.565  l0.153-0.784l0.145-0.764l0.269-1.428l0.146-0.8c0.089-0.484,0.177-0.969,0.264-1.455l0.134-0.752  c0.085-0.482,0.17-0.964,0.253-1.446l0.147-0.862l0.219-1.298l0.165-1.005l0.197-1.222l0.157-0.99l0.183-1.176l0.163-1.072  l0.05-0.338l0.128-0.864l0.146-0.995l0.057-0.399l0.124-0.881l0.134-0.956l0.064-0.474l0.106-0.787l0.132-0.986l0.077-0.6  l0.139-1.083l0.078-0.616l0.068-0.557l0.163-1.341l0.028-0.232l0.124-1.069l0.114-0.987l0.012-0.107l0.133-1.21l0.11-1.014  l0.009-0.081l0.111-1.068l0.113-1.109l0.005-0.053l0.112-1.139l0.106-1.115l0.106-1.152l0.097-1.089l0.099-1.156l0.107-1.304  l0.076-0.954l0.103-1.365l0.072-0.993l0.086-1.249l0.076-1.136l0.072-1.158l0.07-1.155l0.07-1.249l0.058-1.087l0.058-1.179  l0.056-1.18l0.051-1.211l0.045-1.103l0.045-1.219l0.04-1.17l0.032-1.064l0.036-1.288l0.027-1.162l0.026-1.155  c0.01-0.51,0.017-1.021,0.025-1.532l0.013-0.809c0.008-0.621,0.014-1.243,0.019-1.865l0.005-0.497  c0.005-0.793,0.007-1.587,0.007-2.382c0-198.327-160.62-359.104-358.754-359.104c-1.148,0-2.295,0.008-3.442,0.018l-0.656,0.006  c-1.103,0.012-2.206,0.029-3.307,0.052l-0.62,0.013c-1.092,0.024-2.183,0.052-3.273,0.086l-0.185,0.005  c-1.13,0.035-2.259,0.078-3.387,0.124l-0.663,0.027c-1.092,0.047-2.183,0.098-3.273,0.154l-0.608,0.033  c-1.015,0.055-2.029,0.112-3.042,0.175l-0.46,0.028c-1.101,0.07-2.202,0.145-3.3,0.225l-0.631,0.046  c-1.113,0.083-2.226,0.169-3.336,0.262l-0.396,0.034c-1.044,0.089-2.087,0.181-3.128,0.278l-0.49,0.045  c-1.091,0.103-2.18,0.213-3.27,0.326l-0.629,0.065c-1.095,0.116-2.189,0.235-3.28,0.361l-0.44,0.051  c-1.004,0.116-2.006,0.238-3.008,0.363l-0.565,0.07c-1.063,0.134-2.126,0.273-3.187,0.417l-0.701,0.096  c-1.076,0.148-2.151,0.299-3.224,0.457l-0.329,0.05c-1.024,0.151-2.046,0.307-3.067,0.467l-0.558,0.087  c-1.065,0.168-2.13,0.342-3.192,0.52l-0.628,0.106c-1.083,0.183-2.164,0.37-3.244,0.563l-0.189,0.034  c-1.054,0.189-2.105,0.384-3.155,0.581l-0.549,0.104c-1.063,0.202-2.124,0.409-3.183,0.621l-0.575,0.116  c-1.077,0.217-2.154,0.438-3.228,0.664l-0.034,0.007c-1.09,0.23-2.178,0.467-3.264,0.707l-0.563,0.124  c-1.045,0.233-2.089,0.47-3.131,0.712l-0.593,0.139c-0.983,0.23-1.965,0.464-2.945,0.702l-0.32,0.077  c-1.047,0.255-2.092,0.517-3.137,0.782l-0.636,0.162c-1.029,0.263-2.056,0.529-3.081,0.801l-0.476,0.128  c-0.991,0.264-1.981,0.532-2.969,0.805l-0.335,0.092c-1.046,0.289-2.087,0.585-3.129,0.883l-0.563,0.161  c-1.042,0.301-2.083,0.605-3.122,0.916l-0.341,0.102c-0.975,0.292-1.949,0.589-2.921,0.889l-0.468,0.145  c-1.004,0.311-2.006,0.629-3.006,0.949l-0.666,0.214c-1.011,0.326-2.021,0.655-3.028,0.99l-0.257,0.086  c-0.988,0.329-1.975,0.664-2.959,1.001l-0.442,0.151c-0.994,0.342-1.987,0.69-2.977,1.041l-0.648,0.23  c-1.006,0.359-2.01,0.72-3.012,1.087l-0.15,0.056c-0.971,0.356-1.939,0.718-2.906,1.083l-0.594,0.224  c-0.967,0.367-1.932,0.737-2.894,1.112l-0.611,0.238c-0.977,0.383-1.953,0.768-2.927,1.159l-0.092,0.037  c-1.007,0.405-2.011,0.815-3.013,1.228l-0.518,0.214c-0.965,0.4-1.929,0.804-2.89,1.212l-0.573,0.245  c-0.93,0.397-1.858,0.796-2.784,1.201l-0.214,0.093c-0.974,0.426-1.945,0.857-2.915,1.292l-0.591,0.265  c-0.952,0.429-1.902,0.861-2.849,1.298l-0.466,0.216c-0.923,0.427-1.845,0.858-2.763,1.293l-0.236,0.111  c-0.955,0.453-1.907,0.912-2.857,1.372l-0.6,0.292c-0.934,0.455-1.865,0.913-2.794,1.376l-0.455,0.228  c-0.852,0.426-1.703,0.855-2.551,1.288l-0.481,0.244c-0.923,0.473-1.844,0.95-2.762,1.43l-0.557,0.292  c-0.925,0.487-1.849,0.976-2.77,1.47l-0.392,0.211c-0.836,0.45-1.669,0.902-2.5,1.358l-0.533,0.292  c-0.897,0.494-1.792,0.992-2.684,1.493l-0.587,0.331c-0.914,0.516-1.827,1.035-2.737,1.559l-0.185,0.108  c-0.869,0.501-1.735,1.006-2.599,1.514l-0.561,0.33c-0.87,0.513-1.738,1.032-2.604,1.552l-0.587,0.354  c-0.895,0.541-1.788,1.085-2.679,1.633l-0.133,0.083c-0.858,0.53-1.713,1.064-2.566,1.6l-0.585,0.368  c-0.872,0.551-1.742,1.105-2.608,1.663l-0.438,0.283c-0.873,0.564-1.743,1.13-2.611,1.701l-0.133,0.087  c-0.872,0.575-1.742,1.154-2.609,1.736l-0.577,0.387c-0.837,0.564-1.671,1.131-2.503,1.702l-0.524,0.362  c-0.784,0.54-1.568,1.084-2.347,1.63l-0.326,0.228c-0.844,0.592-1.683,1.189-2.521,1.789l-0.547,0.392  c-0.837,0.601-1.672,1.206-2.504,1.814l-0.39,0.286c-0.781,0.573-1.56,1.148-2.336,1.728l-0.363,0.27  c-0.828,0.62-1.653,1.243-2.476,1.87l-0.509,0.388c-0.819,0.625-1.635,1.254-2.448,1.886l-0.397,0.31  c-0.752,0.587-1.502,1.176-2.249,1.769l-0.382,0.302c-0.798,0.635-1.594,1.273-2.387,1.915l-0.558,0.453  c-0.804,0.653-1.606,1.309-2.404,1.969l-0.204,0.169c-0.754,0.625-1.505,1.253-2.255,1.883l-0.49,0.412  c-0.773,0.653-1.542,1.309-2.309,1.968l-0.505,0.435c-0.784,0.676-1.566,1.355-2.344,2.038l-0.231,0.205  c-0.732,0.643-1.46,1.29-2.187,1.939l-0.462,0.413c-0.761,0.683-1.52,1.369-2.275,2.059l-0.454,0.415  c-0.729,0.667-1.456,1.337-2.18,2.011l-0.271,0.252c-0.739,0.689-1.474,1.382-2.207,2.077l-0.454,0.431  c-0.734,0.697-1.464,1.398-2.191,2.102l-0.507,0.493c-0.672,0.653-1.343,1.308-2.009,1.966l-0.263,0.258  c-0.732,0.724-1.46,1.451-2.186,2.181l-0.487,0.49c-0.712,0.719-1.42,1.439-2.126,2.164l-0.424,0.438  c-0.646,0.666-1.291,1.334-1.932,2.006l-0.336,0.351c-0.705,0.739-1.405,1.482-2.104,2.227l-0.465,0.497  c-0.7,0.75-1.397,1.502-2.091,2.258l-0.336,0.368c-0.644,0.703-1.285,1.408-1.922,2.117l-0.322,0.357  c-0.691,0.77-1.379,1.543-2.064,2.318l-0.429,0.487c-0.681,0.775-1.361,1.552-2.035,2.332l-0.262,0.305  c-0.626,0.725-1.248,1.453-1.868,2.183l-0.382,0.45c-0.655,0.774-1.307,1.552-1.956,2.332l-0.441,0.531  c-0.651,0.785-1.299,1.573-1.943,2.363l-0.283,0.35c-0.579,0.713-1.156,1.429-1.73,2.147l-0.448,0.56  c-0.631,0.792-1.258,1.587-1.882,2.384l-0.373,0.478c-0.639,0.819-1.274,1.639-1.906,2.463l-0.141,0.185  c-0.608,0.795-1.213,1.594-1.815,2.394l-0.413,0.55c-0.594,0.793-1.186,1.589-1.773,2.386l-0.459,0.627  c-0.547,0.745-1.091,1.493-1.632,2.243l-0.235,0.324c-0.597,0.831-1.191,1.665-1.782,2.501l-0.415,0.588  c-0.568,0.807-1.133,1.617-1.695,2.429l-0.431,0.626c-0.511,0.742-1.019,1.486-1.525,2.233l-0.283,0.415  c-0.564,0.836-1.124,1.674-1.681,2.514l-0.424,0.64c-0.556,0.842-1.108,1.685-1.657,2.532l-0.308,0.478  c-0.512,0.792-1.02,1.586-1.526,2.383l-0.257,0.404c-0.538,0.851-1.073,1.705-1.604,2.561l-0.435,0.701  c-0.523,0.846-1.042,1.693-1.558,2.543l-0.309,0.512c-0.472,0.781-0.941,1.564-1.407,2.348l-0.304,0.511  c-0.508,0.858-1.012,1.719-1.512,2.582l-0.43,0.744c-0.496,0.86-0.99,1.72-1.479,2.584l-0.26,0.462  c-0.445,0.788-0.886,1.578-1.325,2.37l-0.34,0.613c-0.49,0.888-0.976,1.779-1.459,2.671l-0.336,0.623  c-0.48,0.892-0.958,1.785-1.43,2.681l-0.204,0.39c-0.432,0.823-0.861,1.647-1.287,2.473l-0.367,0.711  c-0.451,0.88-0.899,1.763-1.344,2.647l-0.353,0.706c-0.407,0.815-0.812,1.63-1.213,2.448l-0.27,0.55  c-0.43,0.881-0.856,1.764-1.279,2.649l-0.302,0.633c-0.434,0.912-0.863,1.825-1.29,2.741l-0.3,0.649  c-0.396,0.855-0.79,1.713-1.179,2.572l-0.174,0.384c-0.416,0.921-0.829,1.846-1.237,2.771l-0.347,0.787  c-0.4,0.912-0.797,1.825-1.19,2.74l-0.251,0.59c-0.365,0.855-0.727,1.713-1.086,2.572l-0.205,0.49  c-0.393,0.945-0.781,1.893-1.167,2.842l-0.289,0.714c-0.38,0.944-0.758,1.89-1.131,2.838l-0.213,0.546  c-0.333,0.851-0.663,1.704-0.99,2.558l-0.237,0.619c-0.357,0.938-0.71,1.878-1.059,2.82l-0.284,0.767  c-0.353,0.96-0.704,1.922-1.049,2.886l-0.169,0.476c-0.31,0.867-0.615,1.736-0.919,2.606l-0.243,0.699  c-0.33,0.953-0.655,1.907-0.976,2.864l-0.246,0.737c-0.331,0.99-0.659,1.982-0.981,2.976l-0.097,0.303  c-0.299,0.924-0.593,1.85-0.884,2.779l-0.228,0.724c-0.302,0.967-0.667,1.923-0.96,2.895L639.279,648  c-0.292,0.972-0.623,1.912-0.906,2.888l0.089,0.161l-0.143,0.012C693.872,524.683,820.77,440.291,967.555,440.291z"/>
<path style="fill:#000000;" d="M1347.761,853.602c0-24.699-2.495-48.816-7.244-72.113v0l-0.039,0.459l-0.1,1.156l-0.096,1.089  l-0.106,1.152l-0.021,0.235l-0.021,0.236l-0.063,0.644l-0.112,1.139l-0.042,0.421l-0.077,0.742l-0.111,1.068l-0.039,0.368  l-0.08,0.727l-0.133,1.21l-0.025,0.227l-0.101,0.868l-0.124,1.069l-0.041,0.335l-0.142,1.163l-0.077,0.632l-0.079,0.616  l-0.121,0.942l-0.095,0.741l-0.132,0.986l-0.065,0.483l-0.106,0.778l-0.134,0.956l-0.061,0.435l-0.12,0.846l-0.146,0.995  l-0.046,0.31l-0.133,0.892l-0.163,1.072l-0.043,0.282l-0.134,0.858l-0.006,0.036l-0.157,0.99l-0.044,0.276l-0.148,0.912  l-0.006,0.034l-0.165,1.005l-0.026,0.16l-0.168,0.995l-0.025,0.143l-0.147,0.862l-0.031,0.177l-0.154,0.878l-0.069,0.391  l-0.133,0.752l-0.03,0.166l-0.129,0.712l-0.106,0.577l-0.146,0.8l-0.018,0.1l-0.081,0.429l-0.17,0.9l-0.145,0.764l-0.005,0.028  l-0.07,0.359l-0.078,0.397c-0.101,0.523-0.204,1.044-0.307,1.565c-0.134,0.676-0.27,1.35-0.409,2.024l-0.128,0.616  c-0.111,0.537-0.223,1.074-0.336,1.611l-0.136,0.636l-0.202,0.94l-0.047,0.219l-0.077,0.348l-0.189,0.858l-0.158,0.716l-0.033,0.148  l-0.101,0.446l-0.189,0.833l-0.048,0.211l-0.157,0.689l-0.117,0.504l-0.177,0.762l-0.2,0.854l-0.128,0.533l-0.193,0.81l-0.185,0.767  l-0.173,0.706l-0.156,0.636l-0.176,0.71l-0.226,0.899l-0.143,0.569l-0.163,0.64l-0.272,1.054l-0.12,0.464l-0.165,0.629l-0.303,1.148  l-0.022,0.08l-0.004,0.017l-0.21,0.786l-0.345,1.273l-0.207,0.756l-0.366,1.322l-0.151,0.537l-0.052,0.185l-0.004,0.016  l-0.372,1.313l-0.17,0.593l-0.163,0.565l-0.279,0.962l-0.164,0.556l-0.005,0.018l-0.2,0.674l-0.233,0.787l-0.188,0.623l-0.021,0.07  l-0.194,0.641l-0.206,0.68l-0.237,0.772l-0.018,0.059l-0.189,0.613l-0.18,0.58l-0.252,0.803l-0.064,0.201l-0.159,0.504l-0.175,0.556  l-0.149,0.464l-0.207,0.644l-0.15,0.465c-0.203,0.629-0.408,1.257-0.615,1.884l-0.056,0.17c-0.233,0.708-0.47,1.415-0.707,2.121  l-0.003,0.01c-0.223,0.66-0.448,1.319-0.674,1.977l-0.095,0.28c-0.168,0.487-0.338,0.972-0.507,1.457l-0.196,0.563l-0.463,1.308  l-0.252,0.71l-0.505,1.397l-0.206,0.568l-0.077,0.21l-0.174,0.473l-0.237,0.645l-0.265,0.717l-0.104,0.277l-0.166,0.442  l-0.188,0.502l-0.298,0.791l-0.134,0.351l-0.167,0.437l-0.13,0.34l-0.345,0.901l-0.176,0.452l-0.143,0.369l-0.107,0.276  l-0.335,0.859l-0.214,0.542l-0.171,0.432l-0.068,0.172l-0.331,0.833l-0.281,0.703l-0.13,0.324l-0.04,0.099l-0.341,0.841  l-0.429,1.051l-0.007,0.017l-0.033,0.081l-0.333,0.809l-0.483,1.166l-0.007,0.018l-0.016,0.037l-0.3,0.715l-0.502,1.19l-0.059,0.14  l-0.036,0.086l-0.21,0.491l-0.535,1.25l-0.127,0.292l-0.002,0.004l-0.176,0.407l-0.53,1.216l-0.174,0.393l-0.02,0.044l-0.135,0.307  l-0.531,1.2l-0.286,0.638l-0.598,1.331l-0.024,0.051c-1.118,2.469-2.264,4.923-3.436,7.362l-0.047,0.098l-0.631,1.302l-0.323,0.664  l-0.58,1.181l-0.34,0.689l-0.653,1.309l-0.267,0.533l-0.657,1.299l-0.315,0.62l-0.636,1.239l-0.319,0.618l-0.618,1.187l-0.391,0.745  l-0.55,1.042l-0.476,0.895l-0.513,0.959l-0.445,0.825l-0.606,1.116l-0.38,0.695l-0.629,1.142l-0.411,0.74l-0.587,1.052l-0.47,0.835  l-0.575,1.018l-0.438,0.767l-0.622,1.085l-0.389,0.672l-0.663,1.143l-0.361,0.615l-0.725,1.232l-0.191,0.32  c-1.297,2.185-2.617,4.356-3.959,6.512l-0.149,0.242l-0.888,1.413l-0.214,0.341l-0.871,1.37l-0.252,0.397l-0.804,1.249l-0.341,0.528  l-0.777,1.193l-0.373,0.569l-0.71,1.077l-0.48,0.726l-0.688,1.028l-0.45,0.67l-0.764,1.13l-0.392,0.576l-0.758,1.108l-0.476,0.691  l-0.69,0.996l-0.495,0.709l-0.739,1.053l-0.428,0.606l-0.794,1.118l-0.43,0.602l-0.762,1.059l-0.485,0.67l-0.748,1.028l-0.498,0.679  l-0.742,1.008l-0.467,0.628l-0.799,1.073l-0.371,0.494l-0.883,1.172l-0.303,0.398c-1.51,1.987-3.041,3.957-4.591,5.912l-0.167,0.211  l-0.875,1.094l-0.454,0.568l-0.805,0.995l-0.515,0.637l-0.737,0.901l-0.613,0.747l-0.743,0.898l-0.568,0.683l-0.792,0.947  l-0.566,0.672l-0.788,0.93l-0.544,0.639l-0.812,0.949l-0.564,0.655l-0.809,0.933l-0.568,0.652l-0.774,0.884l-0.633,0.718  l-0.766,0.863l-0.634,0.711l-0.734,0.819l-0.67,0.742l-0.791,0.871l-0.5,0.547l-0.921,1.004l-0.46,0.498l-0.977,1.053l-0.379,0.405  l-1.026,1.094l-0.413,0.436c-2.101,2.22-4.23,4.414-6.387,6.58l-0.414,0.416l-0.987,0.983l-0.492,0.489l-0.939,0.925l-0.568,0.557  l-0.868,0.845l-0.633,0.615l-0.887,0.854l-0.632,0.606l-0.838,0.797l-0.68,0.644l-0.873,0.822l-0.662,0.62l-0.829,0.771  l-0.704,0.652l-0.873,0.802l-0.657,0.601l-0.896,0.815l-0.619,0.559l-0.938,0.844l-0.652,0.582l-0.898,0.797l-0.656,0.579  l-0.936,0.823l-0.592,0.516l-0.981,0.853l-0.649,0.558l-0.918,0.789l-0.662,0.563l-0.96,0.815l-0.539,0.452l-1.049,0.881  l-0.398,0.331c-1.433,1.192-2.875,2.375-4.326,3.545l-0.047,0.039l-1.141,0.914l-0.524,0.419l-0.903,0.716l-0.781,0.617  l-0.829,0.648l-0.811,0.633l-0.925,0.716l-0.707,0.545l-0.951,0.728l-0.734,0.559l-0.968,0.732l-0.662,0.499l-1.061,0.792  l-0.6,0.446l-1.026,0.757l-0.767,0.562l-0.845,0.617l-0.853,0.618l-0.908,0.654l-0.759,0.543l-0.96,0.683l-0.715,0.506l-1.028,0.723  l-0.631,0.441l-1.088,0.757l-0.711,0.49l-0.973,0.668l-0.787,0.535l-0.989,0.671l-0.64,0.43l-1.09,0.73l-0.54,0.357  c-1.893,1.256-3.798,2.495-5.716,3.716l-0.763,0.486l-1.027,0.647l-0.716,0.45l-1.078,0.67l-0.726,0.45l-1.001,0.615l-0.802,0.491  l-1.056,0.64l-0.713,0.43l-1.027,0.614l-0.854,0.509l-0.948,0.56l-0.807,0.474l-1.041,0.607l-0.816,0.473l-0.985,0.567l-0.847,0.483  l-1.013,0.574l-0.759,0.428l-1.121,0.627l-0.717,0.398l-1.079,0.596l-0.861,0.471l-0.966,0.526l-0.903,0.487l-0.985,0.53  l-0.776,0.412l-1.112,0.59l-0.698,0.365l-1.164,0.608l-0.675,0.348l-1.226,0.631l-0.185,0.094c-1.678,0.857-3.365,1.703-5.059,2.534  l-0.324,0.16l-1.036,0.504l-0.925,0.449l-1.225,0.587l-0.584,0.279l-1.177,0.556l-0.845,0.398l-0.931,0.433l-0.98,0.454  l-1.063,0.487l-0.818,0.373l-1.134,0.512l-0.797,0.358l-1.151,0.511l-0.811,0.358l-1.071,0.468l-0.882,0.383l-1.113,0.479  l-0.824,0.351l-1.099,0.465l-0.899,0.377l-1.04,0.433l-0.963,0.397l-1.038,0.424l-0.841,0.341l-1.142,0.461l-0.869,0.345  l-1.086,0.431l-0.951,0.372l-1.045,0.407l-0.929,0.356l-1.057,0.405l-0.822,0.31c-2.253,0.849-4.517,1.677-6.792,2.482l-0.329,0.117  l-1.301,0.455l-0.742,0.259l-1.21,0.414l-0.813,0.278l-1.21,0.407l-0.813,0.272l-1.219,0.402l-0.836,0.274l-1.074,0.348  l-1.001,0.322l-1.141,0.361l-0.839,0.264l-1.238,0.385l-0.799,0.246l-1.2,0.365l-0.949,0.285l-1.088,0.324l-0.894,0.263  l-1.254,0.365l-0.755,0.217l-1.301,0.37l-0.75,0.211l-1.344,0.374l-0.676,0.185l-1.379,0.376l-0.788,0.211l-1.258,0.334  l-0.894,0.233l-1.195,0.31l-0.802,0.204l-1.313,0.333l-0.623,0.154c-0.485,0.121-0.97,0.241-1.455,0.359l-0.305,0.074  c-1.237,0.3-2.476,0.594-3.718,0.882l-0.098,0.022c-0.549,0.127-1.099,0.252-1.65,0.377l-0.45,0.102l-1.36,0.302l-0.8,0.176  l-1.255,0.271l-0.853,0.183l-1.204,0.252l-0.965,0.201l-1.159,0.235l-0.944,0.19l-1.194,0.235l-0.956,0.186l-1.237,0.236  l-0.86,0.162l-1.24,0.229l-0.976,0.177l-1.162,0.207l-0.953,0.167l-1.186,0.205l-1.031,0.174l-1.119,0.186l-1.02,0.166l-1.146,0.184  l-1.055,0.164l-1.1,0.169l-1.08,0.161l-1.114,0.165l-0.964,0.138l-1.228,0.174l-0.983,0.135l-1.174,0.159l-0.988,0.129l-1.23,0.16  l-0.536,0.067c-1.77,0.221-3.544,0.43-5.322,0.626l-0.612,0.068c-0.534,0.058-1.069,0.114-1.604,0.169l-0.57,0.06l-1.285,0.128  l-0.995,0.098l-1.201,0.112l-0.95,0.087l-1.28,0.112l-0.958,0.082l-1.281,0.104l-0.895,0.071l-1.279,0.097l-0.99,0.072l-1.207,0.083  l-1.017,0.068l-1.166,0.073l-1.064,0.064l-1.24,0.071l-0.967,0.052l-1.197,0.062l-1.108,0.053l-1.126,0.05l-1.093,0.045  l-1.166,0.046l-1.094,0.039l-1.135,0.037l-1.127,0.032l-1.132,0.031l-1.031,0.023l-1.252,0.026l-0.898,0.014l-1.354,0.021  l-0.734,0.007c-1.244,0.013-2.489,0.02-3.736,0.02l-0.898-0.003l-1.213-0.004l-1.125-0.009l-1.062-0.01l-1.094-0.015l-1.082-0.018  l-1.086-0.021l-1.142-0.025l-0.99-0.025l-1.197-0.034l-1.036-0.032l-1.019-0.035l-1.156-0.042l-1.205-0.05  c-0.505-0.021-1.01-0.043-1.514-0.066c-0.497-0.023-0.993-0.046-1.489-0.07l-0.901-0.048l-1.252-0.068l-1.065-0.062l-1.068-0.064  l-1.027-0.065l-1.194-0.079l-0.961-0.067l-1.128-0.082l-1.102-0.083l-0.963-0.077l-1.141-0.092l-1.044-0.089  c-0.689-0.059-1.377-0.12-2.065-0.183l-1.04-0.096l-1.124-0.109l-0.969-0.095l-1.148-0.118l-0.99-0.103l-1.169-0.127l-0.9-0.1  l-1.2-0.137l-0.996-0.117l-1.034-0.124l-1.292-0.16l-0.81-0.101l-1.426-0.186c-0.545-0.071-1.09-0.145-1.634-0.219l-1.061-0.145  l-1.087-0.154l-1.054-0.151l-0.968-0.143l-1.15-0.172l-0.972-0.149l-1.11-0.173l-1.042-0.166l-1.028-0.167l-1.045-0.172  l-1.044-0.177l-1.056-0.18l-1.436-0.252l-0.601-0.106c-0.668-0.119-1.336-0.241-2.002-0.364l-1.011-0.189l-1.04-0.196l-1.044-0.202  l-1.035-0.201l-1.065-0.212l-0.999-0.201l-0.998-0.204l-1.121-0.233l-0.967-0.203l-1.065-0.228l-1.003-0.216l-0.917-0.203  c-0.808-0.178-1.616-0.36-2.422-0.544l-0.603-0.137l-1.07-0.249l-1.009-0.236l-0.95-0.227l-1.116-0.269l-0.953-0.233l-1.031-0.255  l-1.033-0.259l-1.044-0.265l-0.949-0.243l-1.141-0.298l-0.884-0.232l-1.194-0.319c-0.618-0.166-1.236-0.334-1.854-0.503  l-0.854-0.234l-1.066-0.298l-0.973-0.273l-1.046-0.299l-0.913-0.262l-1.057-0.308l-1.031-0.304l-0.904-0.269l-1.057-0.318  l-0.997-0.302l-0.94-0.289l-1.052-0.326l-0.881-0.277c-0.529-0.166-1.058-0.333-1.585-0.502l-1.393-0.448l-0.817-0.267l-1.097-0.36  l-1.076-0.359l-0.857-0.287l-1.092-0.37l-0.876-0.3l-1.033-0.357l-0.992-0.346l-0.932-0.327l-1.026-0.364l-0.938-0.335l-1.109-0.402  l-1.179-0.431c-0.496-0.182-0.992-0.365-1.487-0.549l-0.848-0.319l-1.11-0.418l-0.863-0.33l-1.05-0.402l-0.937-0.364l-0.973-0.38  l-0.928-0.366l-1.031-0.41l-0.897-0.36l-1.039-0.421l-0.864-0.352l-1.065-0.438l-1.427-0.593l-1.221-0.512l-0.953-0.406l-0.915-0.39  l-0.916-0.396l-1.034-0.449l-0.901-0.395l-0.871-0.384l-1.069-0.475l-0.823-0.369l-0.977-0.441l-1.034-0.472l-0.808-0.369  l-1.335-0.618l-0.519-0.241c-0.586-0.273-1.17-0.549-1.755-0.825l-1.028-0.491l-0.852-0.407l-0.977-0.472l-0.815-0.396l-1.002-0.491  l-0.893-0.44l-0.93-0.462l-0.879-0.44l-0.924-0.465l-0.948-0.482l-0.912-0.465l-0.635-0.327c-1.306-0.674-2.608-1.356-3.905-2.045  l-0.745-0.396l-0.938-0.504l-0.879-0.474l-0.877-0.478l-0.935-0.511l-0.884-0.487l-0.84-0.467l-0.988-0.551l-0.797-0.448  l-0.915-0.517l-0.95-0.542c-0.743-0.425-1.484-0.852-2.224-1.282l-0.253-0.146l-0.93-0.546l-0.862-0.506l-0.862-0.511l-0.853-0.508  l-0.924-0.554l-0.84-0.507l-0.902-0.548l-0.828-0.507l-0.892-0.548l-0.897-0.556l-0.809-0.503l-1.013-0.637l-0.726-0.457  l-0.028-0.018c-0.839-0.531-1.674-1.066-2.508-1.603l-0.811-0.524l-0.822-0.535l-0.857-0.561l-0.874-0.576l-0.812-0.539  l-0.901-0.601l-0.765-0.513l-0.908-0.612l-0.828-0.563l-0.828-0.565l-0.835-0.575c-0.518-0.358-1.036-0.717-1.553-1.077  l-0.859-0.599l-0.757-0.534l-0.92-0.65l-0.849-0.606l-0.751-0.537l-0.843-0.608l-0.899-0.652l-0.742-0.541l-0.784-0.575  l-0.945-0.697l-0.57-0.424l-1.035-0.772l-0.594-0.447c-1.115-0.839-2.224-1.683-3.328-2.535l-0.788-0.608l-0.797-0.62l-0.78-0.609  l-0.816-0.642l-0.791-0.625l-0.792-0.63l-0.787-0.629l-0.84-0.676l-0.633-0.513l-0.936-0.76l-0.601-0.493  c-0.571-0.469-1.14-0.94-1.709-1.411l-0.7-0.581l-0.816-0.685l-0.696-0.585l-0.919-0.779l-0.616-0.525l-0.874-0.749l-0.661-0.569  l-0.865-0.75l-0.66-0.575l-0.838-0.734l-0.693-0.611l-0.83-0.734l-0.59-0.527c-0.634-0.566-1.266-1.134-1.897-1.705l-0.415-0.375  l-0.735-0.672l-0.751-0.686l-0.819-0.756l-0.655-0.607l-0.788-0.734l-0.694-0.649l-0.781-0.736l-0.717-0.68l-0.739-0.704  l-0.692-0.664l-0.78-0.75l-0.72-0.698l-0.716-0.696l-1.109-1.089l-1.072-1.063l-0.592-0.588l-0.864-0.866l-0.544-0.548l-0.807-0.818  l-0.644-0.655l-0.737-0.755l-0.686-0.706l-0.748-0.775l-0.565-0.589l-0.857-0.896l-0.47-0.496l-0.876-0.926l-0.446-0.476  c-0.548-0.585-1.094-1.171-1.639-1.759l-0.576-0.624l-0.731-0.797l-0.649-0.709l-0.672-0.741l-0.696-0.771l-0.712-0.793  l-0.574-0.643l-0.772-0.869l-0.577-0.653l-0.754-0.858l-0.542-0.622l-0.78-0.897l-0.011-0.012c-0.672-0.778-1.341-1.558-2.007-2.341  l-0.516-0.608l-0.714-0.847l-0.566-0.673l-0.762-0.914l-0.523-0.63l-0.733-0.888l-0.575-0.701l-0.674-0.825l-0.611-0.754  l-0.689-0.853l-0.474-0.593c-1.002-1.251-1.995-2.509-2.98-3.773l-0.153-0.196l-0.843-1.09l-0.415-0.538l-0.742-0.969l-0.492-0.645  l-0.695-0.918l-0.541-0.719l-0.683-0.913l-0.496-0.668l-0.692-0.934l-0.462-0.63c-0.814-1.109-1.621-2.222-2.422-3.34l-0.596-0.834  l-0.638-0.9l-0.522-0.74l-0.656-0.937l-0.493-0.707l-0.669-0.965l-0.447-0.648l-0.702-1.024l-0.439-0.647l-0.676-0.998l-0.473-0.704  l-0.65-0.972l-0.217-0.326c-0.494-0.743-0.984-1.487-1.472-2.234l-0.457-0.699l-0.587-0.908l-0.525-0.813l-0.572-0.894l-0.503-0.79  l-0.608-0.96l-0.478-0.76l-0.566-0.905l-0.529-0.854l-0.56-0.906l-0.417-0.682c-0.806-1.319-1.606-2.644-2.396-3.974l-0.229-0.385  l-0.642-1.088l-0.41-0.699l-0.556-0.956l-0.477-0.825l-0.54-0.94l-0.459-0.803l-0.543-0.956l-0.469-0.834l-0.535-0.953l-0.409-0.738  l-0.58-1.048l-0.122-0.224c-0.475-0.865-0.947-1.733-1.415-2.602l-0.326-0.606l-0.549-1.031l-0.393-0.74l-0.6-1.139l-0.316-0.602  l-0.611-1.176l-0.333-0.645l-0.548-1.069l-0.399-0.784l-0.544-1.074l-0.317-0.633l-0.577-1.155l-0.215-0.434  c-0.457-0.924-0.91-1.85-1.36-2.779l-0.122-0.251l-0.606-1.262l-0.282-0.589l-0.524-1.109l-0.373-0.793l-0.462-0.989l-0.384-0.83  l-0.499-1.084l-0.336-0.738l-0.498-1.098l-0.341-0.761l-0.483-1.082l-0.465-1.052c-0.249-0.564-0.496-1.129-0.741-1.695  l-0.376-0.867l-0.461-1.077l-0.346-0.813l-0.424-1.006l-0.377-0.9l-0.417-1.004l-0.352-0.853l-0.448-1.095l-0.321-0.793  l-0.419-1.039l-0.387-0.972l-0.38-0.959l-0.394-1.008c-0.207-0.531-0.413-1.062-0.617-1.593l-0.438-1.143l-0.333-0.88l-0.386-1.025  l-0.386-1.039l-0.309-0.834l-0.41-1.123l-0.285-0.786l-0.414-1.15l-0.28-0.788l-0.399-1.127l-0.29-0.832l-0.38-1.093l-0.259-0.759  c-0.278-0.814-0.554-1.628-0.827-2.444l-0.183-0.547l-0.4-1.216l-0.243-0.741l-0.369-1.139l-0.275-0.856l-0.347-1.093l-0.27-0.861  l-0.347-1.114l-0.248-0.807l-0.371-1.215l-0.186-0.621l-0.397-1.323l-0.097-0.328c-0.324-1.096-0.643-2.195-0.957-3.294  l-0.039-0.135l-0.397-1.408l-0.163-0.58l-0.362-1.312l-0.184-0.673l-0.342-1.268l-0.207-0.775l-0.304-1.149l-0.234-0.896  l-0.295-1.143l-0.197-0.777l-0.308-1.216l-0.231-0.935c-0.166-0.669-0.329-1.339-0.49-2.01l-0.232-0.963l-0.274-1.165l-0.197-0.839  l-0.276-1.197l-0.187-0.823l-0.265-1.185l-0.199-0.898l-0.236-1.083l-0.209-0.975l-0.238-1.12l-0.182-0.875l-0.237-1.146  l-0.014-0.066c-0.818,9.894-1.236,19.902-1.236,30.008c0,198.328,160.776,359.104,359.104,359.104  C1186.985,1212.705,1347.761,1051.929,1347.761,853.602z"/>
</svg>