<svg version="1.2" xmlns="http://www.w3.org/2000/svg" viewBox="0 0 750 500" width="750" height="500">
	<title>Holding the arrow-pana-svg</title>
	<style>
		.s0 { fill: #e0e0e0 } 
		.s1 { fill: #fafafa } 
		.s2 { fill: #ebebeb } 
		.s3 { fill: #263238 } 
		.s4 { fill: #ffffff } 
		.s5 { fill: #ff725e } 
		.s6 { fill: #ffbf9d } 
		.s7 { fill: #455a64 } 
		.s8 { fill: #ae7461 } 
		.s9 { fill: #6f4439 } 
		.s10 { opacity: .3;fill: #000000 } 
		.s11 { fill: #ff9a6c } 
	</style>
	<g id="freepik--background-complete--inject-24">
		<path id="Layer" class="s0" d="m656.9 156.1q0 0 0 0 0 0 0-0.1 0 0 0 0 0-0.1 0-0.1 0-0.2 0-0.6 0-0.9 0-2.5c0-2.2 0.1-5.4 0.1-9.3l-0.1 0.1 47.8 0.1-0.2-0.2v12.6l0.2-0.2-34.1 0.1-10.1 0.1h-2.7-0.7-0.2 0.2 0.7 2.6 10l34.3 0.1h0.3v-0.2q0-3.1 0-6.2v-6.3c-0.5-0.5-0.1-0.1-0.2-0.2l-47.9 0.1h-0.1v0.1c0 4 0 7.2 0.1 9.4q0 1.5 0 2.4 0 0.4 0 0.7 0 0 0 0 0 0 0 0 0 0.1 0 0.1 0 0 0 0z"/>
		<path id="Layer" class="s0" d="m265.2 375q0 0 0-0.1 0 0 0 0 0 0 0-0.1 0 0 0 0 0-0.3 0-0.7 0-0.9 0-2.5c0-2.2 0-5.3 0.1-9.3l-0.2 0.2 47.9 0.1-0.3-0.3v12.7l0.3-0.2-34.1 0.1h-10.1-2.7-0.7-0.3 0.2 0.7 2.7l10 0.1 34.3 0.1h0.2v-0.1q0-3.1 0-6.2v-6.4c-0.5-0.5-0.1-0.1-0.3-0.2h-47.8-0.1v0.2c0 4 0.1 7.2 0.1 9.4q0 1.6 0 2.4 0 0.4 0 0.7 0 0 0 0 0 0 0 0 0 0 0.1 0.1 0 0 0 0z"/>
		<path id="Layer" class="s0" d="m44.5 314.7q0-0.1 0-0.1 0 0 0 0 0-0.1 0-0.1 0 0 0-0.1 0-0.2 0-0.6 0-0.9 0-2.5c0-2.2 0-5.3 0.1-9.3l-0.1 0.2 47.8 0.1-0.2-0.3v12.7l0.2-0.3-34.1 0.1-10 0.1h-2.8-0.7-0.2 0.2 0.7 2.7l10 0.1 34.2 0.1h0.3v-6.5q0-1.6 0-3.2v-3.1l-0.3-0.2-47.8 0.1h-0.2v0.1c0 4 0.1 7.2 0.1 9.4q0 1.6 0 2.4 0 0.4 0 0.7 0 0 0 0 0 0 0.1 0.1 0 0 0 0 0 0 0 0.1z"/>
		<path id="Layer" class="s0" d="m661 391.3q0 0 0 0 0 0 0-0.1 0 0 0 0 0-0.1 0-0.1 0-0.2 0-0.6 0-0.9 0-2.5c0-2.2 0-5.4 0.1-9.3l-0.2 0.1 47.9 0.1-0.3-0.2v12.6l0.3-0.2-34.1 0.1-10.1 0.1h-2.7-0.7-0.2q0 0 0.2 0h0.7 2.7 10l34.2 0.1h0.2v-12.7l-0.2-0.2-47.9 0.1h-0.1v0.1c0 4 0 7.2 0 9.4q0 1.6 0 2.4 0 0.4 0 0.7c0 0.1 0.2 0.2 0.2 0.1z"/>
		<path id="Layer" class="s0" d="m428.3 318.3q0 0 0 0 0 0 0-0.1 0 0 0 0 0-0.1 0-0.1v-0.6q0-0.9 0-2.5c0-2.2 0-5.4 0-9.3l-0.1 0.1 47.8 0.1c-0.1-0.1 0.3 0.3-0.2-0.2v3.2q0 1.6 0 3.2v6.2l0.2-0.2-34.1 0.1-10 0.1h-2.8-0.7-0.2q0 0 0.2 0h0.7 2.7 10l34.2 0.1h0.3v-12.7l-0.3-0.2-47.8 0.1h-0.2v0.1c0 4 0.1 7.2 0.1 9.4q0 1.6 0 2.4 0 0.4 0 0.7c0 0.1 0.1 0.2 0.2 0.1z"/>
		<path id="Layer" class="s0" d="m415.5 89.8q0 0 0-0.2 0-0.2 0-0.7 0-0.8 0-2.4c0-2.2 0-5.4 0.1-9.3l-0.2 0.1 47.9 0.1-0.3-0.2v6.4q0 3.2 0 6.2l0.3-0.2-34.1 0.1h-10.1-2.7-0.7-0.3q0 0 0.2 0h0.7 2.7l10 0.1 34.3 0.1h0.2v-0.2c0-2 0-4.1 0-6.2v-6.3l-0.3-0.2-47.8 0.1h-0.1v0.1c0 4 0 7.2 0 9.4 0 1 0 1.8 0 2.4q0 0.4 0 0.7c0 0.1 0.2 0.1 0.2 0.1z"/>
		<path id="Layer" class="s0" d="m409 77.2q0 0 0-0.3c0-0.1 0-0.4 0-0.6q0-1 0-2.6c0-2.2 0.1-5.3 0.1-9.2l-0.2 0.2 28.8 0.1c0.2 0.2-0.3-0.3-0.3-0.3v6.5q0 3.2 0 6.1l0.2-0.2-20.5 0.1-6 0.1h-1.6-0.6q0.1 0 0.1 0 0.1 0 0.2 0 0 0 0.1 0 0.1 0 0.1 0h1.6l6 0.2 20.7 0.1h0.3v-0.2q0-3 0-6.2 0-1.5 0-3.2v-3.3l-0.3-0.2-28.7 0.1h-0.2v0.1c0 3.9 0.1 7.1 0.1 9.3 0 1 0 1.9 0 2.5q0 0.1 0 0.3 0 0.1 0.1 0.2 0 0.1 0 0.2 0 0.1 0 0.2z"/>
		<path id="Layer" class="s0" d="m265.2 235q0 0 0-0.1 0 0 0 0 0 0 0-0.1 0 0 0 0 0-0.3 0-0.7 0-0.9 0-2.5c0-2.2 0-5.3 0.1-9.3l-0.2 0.2 47.9 0.1-0.3-0.3v12.7l0.3-0.2-34.1 0.1h-10.1-2.7-0.7-0.3 0.2 0.7 2.7l10 0.1 34.3 0.1h0.2v-0.1c0-2 0-4.1 0-6.2v-6.4l-0.3-0.3-47.8 0.1h-0.1v0.2c0 4 0.1 7.1 0.1 9.3q0 1.6 0 2.5v0.6q0 0 0 0.1 0 0 0 0 0 0 0.1 0.1 0 0 0 0z"/>
		<path id="Layer" class="s0" d="m258.7 222.3q0 0 0-0.2 0-0.3 0-0.7 0-0.9 0-2.5c0-2.2 0.1-5.4 0.1-9.2l-0.2 0.2h28.8l-0.3-0.2v6.5q0 3.2 0 6.1l0.2-0.2-20.5 0.1-6 0.1h-1.6-0.6q0.1 0 0.1 0 0.1 0 0.2 0 0 0 0.1 0 0.1 0 0.1 0h1.6 5.9l20.7 0.1h0.3v-0.2q0-3 0-6.1v-6.5l-0.3-0.3-28.7 0.1h-0.2v0.2c0 3.9 0.1 7 0.1 9.3q0 1.6 0 2.5 0 0.1 0 0.2 0.1 0.1 0.1 0.3 0 0.1 0 0.2 0.1 0.1 0.1 0.2z"/>
		<path id="Layer" class="s0" d="m60.6 424q0 0 0-0.1 0 0 0 0 0 0 0-0.1 0 0 0 0v-0.7q0-0.9 0-2.5c0-2.2 0-5.3 0.1-9.2l-0.2 0.1 47.9 0.1-0.3-0.3v1.7q0 0.8 0 1.6v9.4l0.3-0.2-34.1 0.1h-10.1-2.7-0.7-0.3q0 0 0.2 0h0.7 2.7l10 0.1 34.2 0.1h0.3v-12.7c-0.5-0.5-0.1-0.2-0.3-0.3l-47.8 0.1h-0.1v0.2c0 4 0 7.1 0 9.3q0 1.6 0 2.5 0 0.4 0 0.6c0 0.2 0.2 0.2 0.2 0.2z"/>
		<path id="Layer" class="s0" d="m54.1 411.3q0 0 0 0 0-0.1 0-0.1 0 0 0-0.1 0 0 0 0 0-0.3 0-0.7 0-0.9 0-2.5c0-2.2 0.1-5.4 0.1-9.2l-0.2 0.1 28.8 0.1-0.3-0.2v3.3q0 1.6 0 3.2v6.2l0.3-0.3-20.6 0.1-6 0.1h-1.6-0.6q0.1 0 0.1 0 0.1 0 0.2 0 0 0 0.1 0 0.1 0 0.1 0h1.6l5.9 0.1 20.8 0.1h0.2v-0.3q0-3 0-6.1v-6.5c0 0.1-0.5-0.4-0.3-0.2h-28.7-0.2v0.2c0 3.9 0.1 7.1 0.1 9.3q0 1.6 0 2.5c0 0.6 0.2 0.9 0.2 0.9z"/>
		<path id="Layer" class="s0" d="m535.9 402.8q1.2-0.8 2.6-1.5 1.3-0.6 2.7-1.1 1.4-0.5 2.9-0.8 1.4-0.3 2.9-0.5c1.8-0.2 3.8-0.1 5.3 1q0.1 0.1 0.2 0.2 0.1 0.1 0.2 0.3 0.1 0.1 0.1 0.2 0 0.2 0 0.3 0 0.1-0.1 0.2 0 0.1-0.1 0.2 0 0.1-0.1 0.2-0.1 0-0.2 0.1-1.8 1.3-3.8 2-2.1 0.7-4.2 0.9-2.2 0.2-4.4-0.3-2.1-0.4-4-1.4"/>
		<path id="Layer" class="s0" d="m536.2 402.5q0.9-0.8 1.9-1.5 0.9-0.8 1.8-1.6 0.9-0.7 1.8-1.6 0.8-0.8 1.7-1.7 0.8-0.9 1.5-1.8 0.7-1 1.3-2.1 0.6-1 1-2.1 0.4-1.2 0.7-2.3 0.1-0.4 0.1-0.8 0.1-0.3 0-0.7 0-0.3-0.2-0.7-0.1-0.3-0.3-0.6c-5.7 4.4-10.2 10.3-11.3 17.5z"/>
		<path id="Layer" class="s0" d="m535.9 402.7q0.2-1.1 0.3-2.3 0.1-1.2 0.1-2.4 0-1.2-0.1-2.4-0.2-1.2-0.4-2.3-0.2-1.2-0.7-2.3-0.4-1.1-1.1-2.1-0.6-1-1.4-1.9-0.8-0.8-1.8-1.5c-1 2.3-0.6 5 0.1 7.4q0.4 1.4 1 2.8 0.5 1.3 1.1 2.6 0.6 1.4 1.4 2.6 0.7 1.3 1.5 2.5"/>
		<path id="Layer" class="s0" d="m530.3 412.8q1.3 0.2 2.5 0.6 1.2 0.4 2.3 1 1.2 0.6 2.2 1.3 1 0.8 2 1.6 0.9 0.9 1.7 1.9 0.8 1 1.5 2.1 0.6 1.2 1.1 2.4 0.5 1.2 0.8 2.4c-3.4-0.2-6.2-2.5-8.3-5.2-2-2.6-3.5-5.6-5.7-8"/>
		<path id="Layer" class="s0" d="m529.1 414.4q1-2.5 1.3-5.3 0.4-2.7 0.1-5.4-0.4-2.8-1.4-5.3-1-2.6-2.6-4.8-0.7 2.6-1 5.3-0.2 2.7 0.2 5.4 0.3 2.6 1.1 5.2 0.9 2.6 2.3 4.9z"/>
		<path id="Layer" class="s0" d="m521.6 423.3q2.4-0.1 4.7 0.4 2.3 0.5 4.3 1.7 2 1.2 3.6 2.9 1.6 1.7 2.7 3.8c0.2 0.4 0.4 0.8 0.1 1.2q-0.1 0.1-0.2 0.1-0.1 0.1-0.3 0.1-0.1 0.1-0.2 0.1-0.2 0-0.3 0c-3-0.2-5.7-2-7.9-4.1-2.2-2-4.1-4.4-6.5-6.2"/>
		<path id="Layer" class="s0" d="m521.9 422.8q0.6-1.9 0.9-3.9 0.3-2 0.4-4 0-2-0.3-4-0.2-2-0.7-4c-0.6-2-1.5-4.2-3.4-5.1q-0.1-0.1-0.1-0.1-0.1 0-0.2 0 0 0-0.1 0-0.1 0-0.1 0-0.1 0-0.1 0.1-0.1 0-0.1 0-0.1 0.1-0.1 0.2 0 0-0.1 0.1-0.2 0.5-0.4 1.1-0.1 0.5-0.2 1.1-0.1 0.6-0.2 1.2 0 0.5 0 1.1 0.1 0.6 0.1 1.2 0.1 0.6 0.2 1.1 0.1 0.6 0.2 1.2 0.1 0.6 0.2 1.1c0.6 2.8 1 5.9 2.5 8.3q0.1 0.2 0.3 0.5 0.1 0.2 0.2 0.4 0.2 0.2 0.3 0.5 0.1 0.2 0.2 0.4c0.3 0.6 0.3 0.9 0.6 1.4"/>
		<path id="Layer" class="s0" d="m502.2 425.7q0.5-2.1 0.5-4.4 0-2.2-0.5-4.4-0.4-2.1-1.3-4.2-1-2-2.3-3.8c-0.3-0.3-0.6-0.7-1-0.6-0.7 0-0.8 0.9-0.8 1.5q0.1 2.1 0.5 4.2 0.4 2.1 1.1 4.2 0.7 2 1.6 3.9 1 1.9 2.2 3.6"/>
		<path id="Layer" class="s0" d="m500.4 427q-2.6 0.6-5.2 0.6-2.7 0.1-5.3-0.4-2.6-0.6-5-1.6-2.4-1.1-4.6-2.7 1.3-0.6 2.6-1 1.4-0.4 2.7-0.6 1.4-0.2 2.8-0.1 1.4 0.1 2.8 0.4 1.3 0.2 2.6 0.7 1.3 0.5 2.5 1.2 1.2 0.7 2.2 1.6 1 0.8 1.9 1.9z"/>
		<path id="Layer" class="s0" d="m498.9 423.3q-1.5-2.3-3.5-4.2-2-1.9-4.3-3.3-2.4-1.4-5-2.1-2.7-0.8-5.4-1 0.4 1.1 0.9 2.1 0.6 1 1.4 1.8 0.8 0.9 1.7 1.6 0.9 0.6 2 1.1 1 0.5 2.1 0.9 1.1 0.4 2.2 0.7 1.1 0.3 2.2 0.6 1.1 0.2 2.2 0.4c1.2 0.2 2.8 0.4 3.6 1.4"/>
		<path id="Layer" class="s0" d="m501.8 405.3q-0.4-1.3-0.8-2.6-0.3-1.3-0.6-2.6-0.3-1.4-0.5-2.7-0.3-1.4-0.4-2.7-0.2-1.4-0.1-2.8 0.1-1.4 0.3-2.7 0.3-1.3 0.8-2.6 0.4-1.3 1.1-2.5 1.3 2.5 2.1 5.2 0.7 2.7 0.7 5.6 0.1 2.8-0.6 5.5-0.6 2.8-1.9 5.3"/>
		<path id="Layer" class="s0" d="m489.9 399.3c-4.1-7.5-12.5-13.5-21-14.3 3.3 8.2 12.2 14.5 21 14.3z"/>
		<path id="Layer" class="s0" d="m492.5 400.8c-6.1 0.9-11.4 4.9-17.1 7.2q-0.5 0.3-0.9 0.4-0.5 0.2-1 0.3-0.5 0.1-1 0.1-0.5 0-1 0c-0.6 0-1.2-0.2-1.8-0.5-0.5-0.4-0.9-0.9-1.1-1.5-0.2-0.6-0.2-1.2 0-1.9 0.1-0.6 0.5-1.1 1-1.5q0.3-0.3 0.6-0.5 0.4-0.3 0.7-0.5 0.4-0.2 0.8-0.4 0.3-0.1 0.7-0.3c6.3-2.6 13-2.7 19.6-1.1"/>
		<path id="Layer" class="s0" d="m496.1 405.1c-1.4 0.4-1.9 1.1-3 2.1q-1.4 1.2-2.9 2.2-1.6 1-3.2 1.9-1.7 0.8-3.4 1.5-1.7 0.6-3.5 1c-0.5 0.2-1.1 0.2-1.4-0.2-0.2-0.5 0.1-0.9 0.3-1.2q0.8-1 1.7-1.8 0.9-0.8 1.9-1.4 1-0.7 2.1-1.2 1.1-0.6 2.2-1c3-1.1 5.6-2.4 9.2-2.1"/>
		<path id="Layer" class="s0" d="m500.1 379.1q-1.9 1.7-4.1 3-2.2 1.3-4.6 2.2-2.5 0.8-5 1.1-2.6 0.3-5.2 0.1-0.1 0-0.2 0-0.1-0.1-0.2-0.1-0.1 0-0.2-0.1-0.1-0.1-0.2-0.1c-0.5-0.6 0.1-1.4 0.6-1.8 5.6-4.3 12.3-6.1 19.1-4.4z"/>
		<path id="Layer" class="s0" d="m495.3 377.3q-2.5-1.8-5.3-3-2.9-1.3-6-1.8-3-0.5-6.1-0.2-3.1 0.2-6.1 1.1 1.1 1.1 2.5 1.9 1.3 0.9 2.7 1.5 1.4 0.7 2.9 1 1.5 0.4 3.1 0.6 1.5 0.1 3.1 0.1 1.6 0 3.1-0.1 1.6-0.1 3.1-0.4 1.5-0.3 3-0.6"/>
		<path id="Layer" class="s0" d="m497.2 365.3c0.6-5.5 0.2-9.9 0.6-15.4 0-0.5 0.1-1 0.6-1.2 0.5-0.2 1 0.5 1.2 1.1q0.6 1.9 0.8 4 0.1 2-0.2 4-0.3 2-1.1 3.9-0.7 1.8-1.9 3.5"/>
		<path id="Layer" class="s0" d="m497.6 365.9q-1.3-0.8-2.6-1.8-1.2-1-2.4-2.2-1.1-1.1-2.2-2.3-1-1.2-1.9-2.6c-1.9-2.5-3.4-5.4-3-8.5q1 0.1 1.9 0.3 1 0.2 1.8 0.7 0.9 0.4 1.6 1 0.8 0.6 1.3 1.3 0.6 0.8 1.2 1.6 0.5 0.8 0.9 1.6 0.4 0.9 0.7 1.8 0.4 0.9 0.6 1.8c0.8 2.4 1.3 4.9 2.1 7.3z"/>
		<path id="Layer" class="s0" d="m488.6 363.4q-3.1-1.1-6-2.5-3-1.4-5.9-3.1-2.8-1.7-5.5-3.6-2.6-1.9-5.1-4.1c2.6-1 5.7-0.4 8.4 0.7q2.3 0.8 4.4 2.1 2.1 1.3 3.9 2.9 1.8 1.6 3.3 3.5 1.5 1.9 2.6 4.1"/>
		<path id="Layer" class="s0" d="m495.1 369q-1.6 0.2-3.1 0.3-1.6 0.1-3.2 0.2-1.5 0-3.1-0.1-1.6-0.1-3.1-0.3-1.5-0.4-3-0.8-1.5-0.4-3-0.8-1.5-0.5-2.9-1.1-1.4-0.6-2.8-1.2-0.2-0.1-0.3-0.1-0.1-0.1-0.2-0.2-0.1 0-0.2-0.1-0.1-0.1-0.1-0.2-0.1-0.2-0.1-0.3 0-0.1 0.1-0.3 0-0.1 0.1-0.2 0.1-0.1 0.2-0.2 0.1-0.1 0.2-0.2 0.1-0.1 0.2-0.1 0.2-0.1 0.3-0.1 0.1-0.1 0.3-0.1 1.5-0.4 3.1-0.5 1.6-0.2 3.2-0.1 1.6 0.1 3.2 0.5 1.6 0.3 3.1 0.9 1.5 0.5 2.9 1 1.4 0.6 2.8 1.2 1.4 0.7 2.7 1.4 1.4 0.7 2.7 1.5z"/>
		<path id="Layer" class="s0" d="m518.9 379.2q1-2.1 1.5-4.4 0.5-2.3 0.6-4.7 0-2.4-0.5-4.7-0.5-2.3-1.4-4.5c-1.7 2.6-2 6-1.6 9.1 0.3 3.1 1.2 6.4 1.3 9.5"/>
		<path id="Layer" class="s0" d="m530.2 373.5q2.7 0 5.3 0.5 2.6 0.5 5.1 1.6 2.4 1 4.6 2.5 2.2 1.6 4 3.5-1.3 0.2-2.6 0.1-1.4 0-2.7-0.3-1.3-0.2-2.6-0.6-1.3-0.5-2.5-1.1-1.2-0.7-2.3-1.3-1.2-0.7-2.3-1.5-1.1-0.7-2.2-1.6-1.1-0.8-2.1-1.6"/>
		<path id="Layer" class="s0" d="m537.9 371c3.4-0.3 6.8-0.7 10.1 0.3q1.3 0.4 2.4 1 1.2 0.6 2.2 1.4 1 0.9 1.8 1.9 0.8 1.1 1.4 2.3-1.3 0.1-2.5 0-1.2-0.1-2.4-0.3-1.2-0.2-2.4-0.6-1.2-0.4-2.3-0.9-1.1-0.6-2.1-1.2-1.1-0.5-2.2-1.2-1-0.6-2-1.3-1-0.7-2-1.4z"/>
		<path id="Layer" class="s0" d="m526.6 371.1c3.1-2.1 6.3-4.2 10-5 3.6-0.9 7.8-0.2 10.4 2.5-3 1.7-6.6 1.9-10 1.9-3.4 0-7.6 0-10.8 1.1"/>
		<path id="Layer" class="s0" d="m526.5 371.2c5.4-5.2 7.4-14.6 5.3-21.8q-1.6 2.4-2.7 5-1.2 2.7-1.8 5.5-0.7 2.8-0.9 5.6-0.2 2.9 0.1 5.7z"/>
		<path id="Layer" class="s0" d="m511.9 356.4c-1-2.3-1.7-4.8-2.6-7.2q-0.4-0.9-0.7-1.8-0.4-0.8-0.9-1.7-0.5-0.8-1-1.6-0.6-0.8-1.2-1.5-0.6-0.7-1.3-1.3-0.8-0.6-1.6-1.1-0.9-0.4-1.8-0.7-0.9-0.3-1.9-0.3 0.6 2.7 1.8 5.2 1.1 2.5 2.8 4.7 1.7 2.3 3.7 4.1 2.1 1.9 4.5 3.2"/>
		<path id="Layer" class="s0" d="m514.5 359.5c1.7-2.3 3.6-5.4 5.9-7.1q0.8-0.7 1.8-1.2 0.9-0.5 1.9-0.8 1.1-0.2 2.2-0.3 1 0 2.1 0.2-1.1 1.8-2.6 3.4-1.4 1.6-3.2 2.8-1.8 1.2-3.9 2-2 0.7-4.1 1"/>
		<path id="Layer" class="s0" d="m514 356.6q0.4-1 0.8-2.1 0.4-1 0.8-2.1 0.3-1.1 0.6-2.2 0.2-1.1 0.4-2.2 0.2-1.1 0.3-2.2 0-1.1-0.2-2.2-0.2-1.1-0.5-2.2-0.4-1-0.9-2c-2.9 5.5-3.9 11.5-1.4 17.2"/>
		<path id="Layer" class="s0" d="m511.9 339.4c-1.7-5.5-6.7-9.6-12.2-11.4q-0.2-0.1-0.5-0.2-0.2-0.1-0.5-0.1-0.3 0-0.6 0-0.2-0.1-0.5 0-0.3 0-0.5 0.1-0.3 0.1-0.5 0.3-0.2 0.2-0.4 0.4-0.1 0.2-0.2 0.5c-0.2 0.9 0.6 1.8 1.3 2.4q1.6 1.4 3.3 2.5 1.7 1.2 3.5 2.2 1.9 1 3.8 1.9 1.9 0.8 3.9 1.4"/>
		<path id="Layer" class="s0" d="m511.8 334.9q0-1.3-0.1-2.7-0.2-1.3-0.4-2.6-0.2-1.3-0.4-2.6-0.3-1.3-0.7-2.6c-1.2-3.4-3.4-6.5-6.6-8-0.6 3.6 1 7.1 2.9 10.2 2 3.1 4.2 6 5.4 9.4"/>
		<path id="Layer" class="s0" d="m511.9 337.3c1.3-4 1.5-9.1 3.9-12.6 1.7-2.4 4.3-4.1 5.8-6.6q0.3 0.9 0.4 1.9 0.2 0.9 0.1 1.9 0 1-0.2 1.9-0.2 1-0.6 1.9-0.5 0.8-0.9 1.7-0.5 0.8-1.1 1.6-0.5 0.8-1.2 1.6-0.6 0.7-1.3 1.4c-1.8 1.9-3.3 3.3-4.9 5.3z"/>
		<path id="Layer" class="s0" d="m511.9 335.9c0.1 0 0.2 26.7 0.2 59.7 0 32.9-0.1 59.6-0.2 59.6-0.1 0-0.2-26.7-0.2-59.6 0-33 0.1-59.7 0.2-59.7z"/>
		<path id="Layer" class="s0" d="m488.5 375.2q0.1 0.1 0.3 0.1 0.1 0.1 0.2 0.1 0.1 0.1 0.3 0.1 0.1 0.1 0.2 0.1l2.8 0.9c2.3 0.8 5.5 2 9 3.4 3.4 1.4 6.6 2.7 8.5 4.3q0.3 0.2 0.5 0.4 0.3 0.3 0.5 0.6 0.2 0.3 0.4 0.6 0.2 0.3 0.3 0.6c0.3 0.6 0.3 1 0.4 1 0 0 0-0.1 0-0.3q-0.1-0.1-0.1-0.2 0-0.1 0-0.2 0-0.1-0.1-0.1 0-0.1 0-0.2-0.2-0.4-0.3-0.7-0.2-0.3-0.4-0.6-0.2-0.3-0.5-0.6-0.2-0.3-0.5-0.5-0.4-0.4-0.9-0.7-0.4-0.3-0.9-0.6-0.4-0.3-0.9-0.5-0.5-0.3-1-0.5c-1.5-0.7-3.1-1.4-4.9-2.1-3.4-1.5-6.7-2.6-9-3.3-1.2-0.4-2.2-0.6-2.8-0.8q-0.2-0.1-0.3-0.1-0.1 0-0.3-0.1-0.1 0-0.2 0-0.2-0.1-0.3-0.1z"/>
		<path id="Layer" class="s0" d="m480.9 356.4c0 0 0.1 0.1 0.3 0.3l0.8 0.8 3.2 2.9 10.7 9.5c4.1 3.7 7.7 7.3 10.2 9.9 1.2 1.3 2.2 2.4 2.9 3.2q0.4 0.5 0.8 0.9c0.2 0.2 0.2 0.3 0.2 0.3q0-0.1 0-0.1 0-0.1-0.1-0.1 0 0 0-0.1-0.1 0-0.1-0.1-0.2-0.3-0.7-0.9c-0.6-0.8-1.6-1.9-2.8-3.3q-1.2-1.3-2.5-2.6-1.2-1.3-2.5-2.5-1.3-1.3-2.6-2.5-1.3-1.2-2.6-2.4c-4.2-3.7-8-7-10.7-9.4l-3.3-2.8-0.9-0.7q0-0.1-0.1-0.1 0 0-0.1-0.1 0 0 0 0-0.1-0.1-0.1-0.1z"/>
		<path id="Layer" class="s0" d="m500.3 373.7c0.1 0-0.7-2.1-1.6-4.6-0.8-2.5-1.3-4.7-1.4-4.7q0 0.6 0.1 1.3 0.1 0.6 0.2 1.2 0.2 0.6 0.3 1.1 0.2 0.6 0.4 1.2 0.2 0.4 0.3 0.8 0.2 0.4 0.3 0.8 0.2 0.4 0.4 0.8 0.1 0.4 0.3 0.8 0.1 0.2 0.2 0.4 0 0.1 0.1 0.3 0.1 0.1 0.2 0.3 0.1 0.1 0.2 0.3z"/>
		<path id="Layer" class="s0" d="m511.8 389.8q0.1-0.1 0.2-0.1 0.1-0.1 0.2-0.2 0-0.1 0.1-0.2 0.1-0.1 0.2-0.2l1.6-2.1c1.4-1.8 3.3-4.2 5.4-6.9 2.2-2.7 4.1-5.1 5.5-6.9l1.7-2.1q0.1 0 0.2-0.1 0.1-0.1 0.1-0.2 0.1-0.1 0.2-0.2 0-0.1 0.1-0.2-0.1 0-0.2 0.1-0.1 0.1-0.2 0.2-0.1 0.1-0.1 0.2-0.1 0-0.2 0.1c-0.4 0.5-1 1.2-1.8 2-1.4 1.7-3.4 4.1-5.6 6.8-2.1 2.7-4 5.2-5.3 7-0.7 0.9-1.2 1.7-1.6 2.2q0 0.1-0.1 0.2-0.1 0.1-0.1 0.2-0.1 0.1-0.2 0.2 0 0.1-0.1 0.2z"/>
		<path id="Layer" class="s0" d="m516.9 383.3q0.4-0.5 0.7-0.9 0.4-0.5 0.6-1 0.3-0.5 0.5-1 0.2-0.6 0.4-1.1 0.1-0.5 0.2-1 0.1-0.5 0.2-1 0.1-0.5 0.1-1 0-0.5 0-1h-0.2q0.1 0.4 0.2 0.4c0 0 0-0.1 0-0.5h-0.2q0 0.5-0.1 1-0.1 0.5-0.1 1-0.1 0.5-0.2 1-0.2 0.5-0.3 1-0.2 0.5-0.4 1-0.2 0.5-0.4 1.1-0.2 0.5-0.5 1-0.2 0.5-0.5 1z"/>
		<path id="Layer" class="s0" d="m523.5 375q0.2-0.1 0.4-0.3 0.2-0.1 0.4-0.2 0.2-0.1 0.3-0.2 0.2-0.1 0.4-0.2 0.5-0.1 1.1-0.2 0.5-0.1 1-0.2 0.5 0 1 0 0.6 0 1.1 0.1 0.5 0 1 0.1 0.6 0.1 1.1 0.1 0.5 0.1 1 0.2 0.6 0.1 1.1 0.3 0.2 0 0.4 0.1 0.2 0.1 0.4 0.1 0.2 0.1 0.5 0.1 0.2 0.1 0.4 0.1-0.2-0.1-0.4-0.2-0.2-0.1-0.4-0.2-0.2-0.1-0.4-0.2-0.2 0-0.4-0.1-0.6-0.1-1.1-0.3-0.5-0.1-1-0.2-0.6-0.1-1.1-0.2-0.5 0-1.1-0.1-0.5-0.1-1.1-0.1-0.5 0-1 0.1-0.6 0-1.1 0.2-0.5 0.1-1.1 0.3-0.2 0.1-0.4 0.2-0.2 0.1-0.4 0.2-0.1 0.2-0.3 0.3-0.1 0.2-0.3 0.4z"/>
		<path id="Layer" class="s0" d="m525.1 372.9c0 0.1 0.9-0.3 2.3-0.8q1.4-0.5 2.8-0.8 1.5-0.3 2.9-0.4 1.5-0.1 2.9 0 1.5 0.1 3 0.3c1.4 0.3 2.3 0.6 2.3 0.5 0.1 0-0.2-0.1-0.6-0.2q-0.2-0.1-0.4-0.2-0.2 0-0.4-0.1-0.2-0.1-0.5-0.1-0.2-0.1-0.4-0.1-1.5-0.3-2.9-0.4-1.5-0.1-3 0-1.5 0.1-3 0.4-1.4 0.4-2.8 0.9-0.2 0.1-0.4 0.2-0.2 0-0.4 0.1-0.2 0.1-0.4 0.2-0.2 0.1-0.4 0.2c-0.4 0.2-0.6 0.3-0.6 0.3z"/>
		<path id="Layer" class="s0" d="m511.9 364.4q0.4-1.4 0.9-2.9 0.4-1.4 0.8-2.9 0.3-1.4 0.7-2.9 0.3-1.5 0.6-3-0.5 1.5-0.9 2.9-0.4 1.5-0.8 2.9-0.4 1.5-0.7 3-0.3 1.4-0.6 2.9z"/>
		<path id="Layer" class="s0" d="m511.8 364.4q0.2-0.4 0.4-0.9 0.2-0.4 0.4-0.8 0.3-0.5 0.5-0.9 0.3-0.4 0.5-0.8 0.3-0.4 0.6-0.8 0.4-0.4 0.7-0.7 0.3-0.4 0.7-0.7 0.4-0.4 0.8-0.7-0.2 0.1-0.3 0.1-0.2 0.1-0.3 0.1-0.1 0.1-0.3 0.2-0.1 0.1-0.2 0.2-0.3 0.2-0.6 0.4-0.2 0.3-0.5 0.5-0.2 0.3-0.5 0.6-0.2 0.2-0.4 0.5-0.3 0.4-0.6 0.9-0.2 0.4-0.4 0.9-0.2 0.4-0.3 0.9-0.2 0.5-0.2 1z"/>
		<path id="Layer" class="s0" d="m511.9 441c0 0 0.1-0.6 0.4-1.8q0.1-0.6 0.3-1.2 0.2-0.6 0.4-1.1 0.3-0.6 0.5-1.2 0.3-0.5 0.5-1.1 1-1.8 2.1-3.6 1.1-1.7 2.3-3.4 1.1-1.6 2.4-3.2 1.3-1.6 2.7-3.1c2.1-2.4 4.2-4.7 5.9-6.9q0.6-0.7 1.2-1.5 0.5-0.7 1-1.5 0.6-0.7 1.1-1.5 0.5-0.8 0.9-1.6 0.4-0.5 0.6-1.1 0.3-0.5 0.6-1.1 0.3-0.6 0.5-1.1 0.3-0.6 0.5-1.2 0.3-0.9 0.4-1.3 0-0.1 0-0.1 0-0.1 0.1-0.1 0-0.1 0-0.2 0 0 0-0.1c0 0-0.2 0.6-0.7 1.7q-0.2 0.6-0.5 1.2-0.2 0.5-0.5 1.1-0.3 0.5-0.6 1.1-0.3 0.5-0.6 1.1-0.5 0.8-1 1.5-0.5 0.8-1 1.5-0.6 0.8-1.1 1.5-0.6 0.8-1.2 1.5c-1.7 2.1-3.8 4.4-5.9 6.8q-1.4 1.5-2.7 3.1-1.3 1.6-2.4 3.3-1.2 1.7-2.3 3.5-1.1 1.7-2 3.6-0.3 0.5-0.5 1.1-0.3 0.6-0.5 1.2-0.2 0.6-0.4 1.2-0.1 0.6-0.3 1.2c-0.1 0.6-0.2 1-0.2 1.3q0 0.1 0 0.1 0 0.1-0.1 0.2 0 0 0 0.1 0 0 0.1 0.1z"/>
		<path id="Layer" class="s0" d="m490.8 417.1q0.1 0.1 0.2 0.2 0.2 0.1 0.3 0.2 0.1 0 0.3 0.1 0.1 0.1 0.3 0.2 0.3 0.2 0.7 0.4 0.4 0.2 0.7 0.5 0.4 0.2 0.7 0.4 0.4 0.3 0.7 0.5 0.5 0.4 1 0.9 0.5 0.4 1 0.8 0.5 0.4 0.9 0.9 0.5 0.4 0.9 0.9c1.3 1.4 2.7 3 4.1 4.7 2.7 3.5 5.3 6.6 6.9 9 0.8 1.3 1.4 2.3 1.7 3q0.1 0.2 0.2 0.3 0 0.2 0.1 0.3 0.1 0.1 0.2 0.3 0.1 0.1 0.2 0.2-0.1 0-0.1 0 0-0.1 0-0.1 0 0 0-0.1 0 0-0.1-0.1-0.1-0.3-0.3-0.8-0.2-0.4-0.4-0.8-0.2-0.4-0.4-0.8-0.2-0.3-0.4-0.7-0.2-0.4-0.5-0.7-0.8-1.2-1.6-2.4-0.8-1.1-1.7-2.3-0.8-1.1-1.7-2.2-0.9-1.2-1.8-2.3c-1.4-1.7-2.8-3.3-4.2-4.7q-0.4-0.5-0.9-0.9-0.4-0.5-0.9-0.9-0.5-0.4-1-0.8-0.5-0.4-1-0.8-0.4-0.3-0.7-0.5-0.4-0.3-0.8-0.5-0.3-0.2-0.7-0.4-0.4-0.2-0.8-0.4c-0.4-0.2-0.7-0.3-0.9-0.4q0 0 0-0.1-0.1 0-0.1 0 0 0-0.1 0 0 0 0-0.1z"/>
		<path id="Layer" class="s0" d="m490.4 424.9q0.2 0 0.5 0.1 0.3 0 0.6 0.1 0.3 0 0.6 0.1 0.3 0 0.6 0 0.7 0.1 1.4 0.2 0.7 0.1 1.4 0.2 0.7 0.2 1.4 0.3 0.6 0.2 1.3 0.4 0.7 0.2 1.3 0.5 0.7 0.3 1.3 0.6 0.7 0.3 1.3 0.7 0.6 0.4 1.1 0.8c1.2 0.9 1.7 1.6 1.8 1.6 0-0.1-0.1-0.2-0.4-0.6q-0.1-0.1-0.3-0.3-0.1-0.2-0.3-0.3-0.1-0.2-0.3-0.3-0.1-0.2-0.3-0.3-0.6-0.5-1.1-0.9-0.6-0.4-1.3-0.7-0.6-0.4-1.3-0.7-0.6-0.2-1.3-0.5-0.7-0.2-1.4-0.3-0.7-0.2-1.4-0.3-0.7-0.2-1.4-0.2-0.7-0.1-1.4-0.2-0.3 0-0.6 0-0.3 0-0.6-0.1-0.3 0-0.6 0-0.3 0-0.6 0.1z"/>
		<path id="Layer" class="s0" d="m504.2 429.6c0.2-0.1-0.9-1.7-1.7-3.8-0.8-2.2-1-4.1-1.1-4.1q0 0.2 0 0.3 0 0.2 0 0.3 0 0.2 0 0.3 0 0.2 0 0.4 0.1 0.3 0.1 0.7 0.1 0.4 0.2 0.8 0 0.4 0.2 0.7 0.1 0.4 0.2 0.8 0.1 0.3 0.3 0.7 0.1 0.3 0.3 0.7 0.2 0.3 0.3 0.6 0.2 0.4 0.4 0.7c0.5 0.6 0.8 0.9 0.8 0.9z"/>
		<path id="Layer" class="s0" d="m483.9 396.4q0.1 0 0.1 0.1 0.1 0 0.1 0 0.1 0 0.1 0.1 0.1 0 0.1 0l1.1 0.5q0.7 0.3 1.7 0.8c0.7 0.4 1.5 0.7 2.3 1.2l1.2 0.7c0.5 0.3 0.9 0.6 1.4 0.9 0.9 0.5 1.9 1.2 2.9 1.9q1.6 1.2 3.1 2.6 1.5 1.3 2.9 2.7 1.4 1.5 2.7 3 1.3 1.6 2.4 3.2c0.7 1 1.4 2 1.9 3 0.3 0.5 0.6 0.9 0.8 1.4l0.7 1.3c0.4 0.8 0.8 1.6 1.1 2.2q0.4 1 0.7 1.8l0.5 1.1q0.1 0.4 0.2 0.4 0-0.1-0.1-0.1 0-0.1 0-0.1 0-0.1 0-0.1 0-0.1 0-0.1l-0.4-1.2c-0.2-0.5-0.4-1.1-0.7-1.8-0.3-0.6-0.6-1.4-1-2.3l-0.7-1.3c-0.2-0.4-0.5-0.9-0.8-1.4-0.5-1-1.2-1.9-1.9-3q-0.5-0.8-1.1-1.6-0.6-0.8-1.3-1.6-0.6-0.8-1.3-1.6-0.7-0.7-1.4-1.4-0.7-0.8-1.4-1.5-0.7-0.7-1.5-1.3-0.8-0.7-1.6-1.3-0.7-0.6-1.5-1.2c-1-0.8-2-1.5-3-2-0.4-0.3-0.9-0.6-1.3-0.9l-1.3-0.7c-0.8-0.5-1.6-0.8-2.3-1.1q-0.2-0.1-0.4-0.2-0.2-0.1-0.5-0.2-0.2-0.1-0.4-0.2-0.2-0.1-0.5-0.2l-1.1-0.4q0 0-0.1 0-0.1-0.1-0.1-0.1-0.1 0-0.1 0-0.1 0-0.2 0z"/>
		<path id="Layer" class="s0" d="m500.6 407.6q0-0.2-0.1-0.4-0.1-0.2-0.2-0.4-0.1-0.2-0.3-0.3-0.1-0.2-0.3-0.3-0.4-0.3-0.8-0.6-0.4-0.2-0.9-0.4-0.5-0.2-1-0.3-0.5-0.1-1-0.1-0.5 0-1 0-0.5 0.1-1 0.2-0.5 0.1-0.9 0.2-0.5 0.2-1 0.3-0.2 0.1-0.4 0.2-0.2 0.1-0.3 0.2-0.2 0-0.4 0.1-0.2 0.2-0.4 0.3 0.2-0.1 0.4-0.1 0.2-0.1 0.4-0.1 0.2-0.1 0.4-0.1 0.2-0.1 0.4-0.2 0.5-0.1 0.9-0.3 0.5-0.1 1-0.2 0.4 0 0.9-0.1 0.5 0 1 0 0.5 0 0.9 0.1 0.5 0.1 1 0.2 0.4 0.2 0.8 0.4 0.4 0.2 0.8 0.5 0.2 0.2 0.3 0.3 0.2 0.1 0.3 0.3 0.1 0.1 0.3 0.3 0.1 0.1 0.2 0.3z"/>
		<path id="Layer" class="s0" d="m503.1 410.1q-0.2-0.4-0.3-0.8-0.2-0.4-0.3-0.8-0.2-0.4-0.3-0.9-0.1-0.4-0.1-0.9-0.1-0.4-0.1-0.9 0-0.4 0.1-0.9 0-0.4 0.1-0.8 0-0.5 0.1-0.9-0.1 0.1-0.2 0.2 0 0.1-0.1 0.2 0 0.2-0.1 0.3 0 0.1 0 0.3-0.1 0.3-0.2 0.6 0 0.3-0.1 0.7 0 0.3 0 0.6 0 0.4 0.1 0.7 0 0.3 0.1 0.6 0.1 0.4 0.2 0.7 0.1 0.3 0.2 0.6 0.1 0.3 0.3 0.6c0.3 0.6 0.6 0.9 0.6 0.8z"/>
		<path id="Layer" class="s0" d="m530.3 444.8c-0.6 10.2-3.7 20.6-8.4 31h-20.6c-4.5-10.3-7.3-20.7-7.8-31z"/>
		<path id="Layer" class="s1" d="m496.8 461.3c0 0.1 6.8 0.2 15.1 0.2 8.4 0 15.1-0.1 15.1-0.2 0-0.1-6.7-0.2-15.1-0.2-8.3 0-15.1 0.1-15.1 0.2z"/>
		<path id="Layer" class="s1" d="m497.3 465c-0.1 0.1 6.3 0.2 14.1 0.2 7.9 0 14.2-0.1 14.2-0.2 0-0.1-6.3-0.2-14.2-0.2-7.8 0-14.2 0.1-14.2 0.2z"/>
		<path id="Layer" class="s1" d="m521.6 451.5q-0.1 1.2-0.2 2.3 0 1.2 0 2.4 0 1.2 0 2.4 0.1 1.2 0.2 2.4 0.1-1.2 0.1-2.4 0.1-1.2 0.1-2.4 0-1.2-0.1-2.4 0-1.1-0.1-2.3z"/>
		<path id="Layer" class="s1" d="m510.6 451.5q-0.1 1.2-0.2 2.4 0 1.3 0 2.5 0 1.2 0 2.4 0.1 1.3 0.2 2.5 0.1-1.2 0.1-2.5 0-1.2 0-2.4 0-1.2 0-2.5 0-1.2-0.1-2.4z"/>
		<path id="Layer" class="s1" d="m500.2 451.4q-0.1 1.2-0.1 2.5-0.1 1.2-0.1 2.5 0 1.2 0.1 2.5 0 1.2 0.1 2.5 0.1-1.3 0.2-2.5 0-1.3 0-2.5 0-1.3 0-2.5-0.1-1.3-0.2-2.5z"/>
		<path id="Layer" class="s1" d="m494.1 451.5c0 0.1 7.9 0.2 17.8 0.2 9.8 0 17.7-0.1 17.7-0.2 0-0.1-7.9-0.2-17.8-0.2-9.8 0-17.7 0.1-17.7 0.2z"/>
		<path id="Layer" class="s2" d="m482.6 150.6l-23.5 18.8 23.5 18.5v-37.3z"/>
		<path id="Layer" class="s2" d="m478.9 161v16.9h68.6v-16.9z"/>
		<path id="Layer" class="s2" d="m79.8 212.3l-16 12.8 16 12.5v-25.3z"/>
		<path id="Layer" class="s2" d="m77.2 219.3h46.6v11.5h-46.6z"/>
	</g>
	<g id="freepik--Floor--inject-24">
		<path id="Layer" class="s3" d="m46.5 475.3c0 0.1 149 0.2 332.9 0.2 183.8 0 332.9-0.1 332.9-0.2 0-0.2-149-0.3-332.9-0.3-184 0-332.9 0.1-332.9 0.3z"/>
	</g>
	<g id="freepik--speech-bubble-3--inject-24">
		<path id="Layer" class="s4" d="m129.5 163.5l-5.3 0.7c-8.9-5.8-20.6-3.8-27.2 4.4-6.5 8.3-5.7 20.2 2 27.5 7.7 7.2 19.6 7.5 27.5 0.5 7.9-7 9.2-18.9 3-27.4z"/>
		<path id="Layer" class="s5" d="m122.1 182l-2.5-2.7-5.2 4.4-9.7-10-2.5 2.6 12.4 12.4 7.5-6.7z"/>
	</g>
	<g id="freepik--speech-bubble-2--inject-24">
		<path id="Layer" class="s4" d="m375.5 124.6l-5.5-2.7c-9.9 3.9-21.1-0.4-25.9-9.9-4.8-9.5-1.5-21 7.5-26.7 9-5.6 20.8-3.4 27.2 5.1 6.4 8.5 5.3 20.4-2.6 27.6z"/>
		<path id="Layer" class="s3" d="m375.5 124.6l0.1-0.4c0-0.3 0.1-0.7 0.1-1.2q0.3-1.8 0.7-5 0 0 0-0.1-0.1 0-0.1 0 0 0 0 0 0 0 0 0h-0.1l0.1 0.1c2-1.8 3.7-4 4.8-6.5 1.2-2.4 1.9-5.1 2-7.8 0.1-2.7-0.3-5.4-1.2-8-1-2.6-2.4-4.9-4.2-6.9-1.6-1.8-3.5-3.2-5.6-4.3-2.1-1.1-4.4-1.9-6.7-2.2-2.3-0.3-4.7-0.3-7 0.2-2.4 0.5-4.6 1.4-6.6 2.6q-1.1 0.6-2.1 1.4-1 0.8-1.9 1.7-0.9 0.9-1.6 1.9-0.8 1-1.4 2-0.7 1.1-1.2 2.2-0.5 1.1-0.8 2.2-0.4 1.2-0.6 2.3-0.2 1.2-0.3 2.4c-0.2 2.6 0.1 5.3 0.9 7.8 0.8 2.5 2.1 4.8 3.8 6.9 1.6 2 3.7 3.7 6 4.9 2.3 1.3 4.9 2.1 7.5 2.4q1.2 0.2 2.5 0.2 1.3 0 2.5-0.2 1.3-0.1 2.5-0.4 1.2-0.3 2.4-0.8l4.1 2 1.1 0.5q0 0 0.1 0 0 0.1 0.1 0.1 0 0 0 0 0.1 0 0.1 0.1l-0.3-0.2-1.1-0.6-4-2.1q0 0 0 0 0 0 0 0 0 0 0 0 0 0 0 0c-2.6 1-5.3 1.5-8 1.4-2.7 0-5.3-0.6-7.8-1.7-2.5-1.1-4.7-2.7-6.5-4.7-1.9-1.9-3.3-4.3-4.3-6.8q-0.4-1-0.7-2.1-0.2-1.1-0.4-2.2-0.2-1.1-0.2-2.2 0-1.1 0-2.2 0.1-1.2 0.4-2.3 0.2-1.2 0.6-2.3 0.3-1.1 0.8-2.2 0.5-1.1 1.1-2.1 0.6-1.1 1.4-2 0.7-1 1.6-1.9 0.9-0.9 1.9-1.6 0.9-0.8 2-1.4c4.3-2.6 9.5-3.5 14.4-2.5 4.9 1 9.3 3.7 12.3 7.8 3 4 4.5 9 4 14-0.5 5.1-2.8 9.7-6.5 13.1q0 0 0 0 0 0.1 0 0.1 0 0 0 0 0 0 0 0 0 0 0 0.1 0 0 0 0 0 0 0.1 0 0-0.1 0-0.1l-0.1-0.1q-0.4 3.3-0.5 5c-0.1 0.5-0.1 1-0.2 1.3 0 0.2 0 0.4 0 0.4z"/>
		<path id="Layer" class="s3" d="m368.2 102.8c0 0.8 0.5 1.6 1.3 1.9 0.8 0.3 1.7 0.2 2.3-0.4 0.6-0.6 0.7-1.5 0.4-2.3-0.3-0.8-1.1-1.3-1.9-1.3q-0.4 0-0.8 0.2-0.4 0.1-0.7 0.4-0.3 0.3-0.4 0.7-0.2 0.4-0.2 0.8z"/>
		<path id="Layer" class="s3" d="m359.9 102.8c0 0.8 0.5 1.6 1.3 1.9 0.7 0.3 1.6 0.2 2.2-0.4 0.6-0.6 0.8-1.5 0.5-2.3-0.3-0.8-1.1-1.3-1.9-1.3q-0.5 0-0.8 0.2-0.4 0.1-0.7 0.4-0.3 0.3-0.5 0.7-0.1 0.4-0.1 0.8z"/>
		<path id="Layer" class="s3" d="m351.6 101.8c-0.5 0.7-0.4 1.6 0.1 2.3 0.5 0.6 1.4 0.9 2.2 0.7 0.8-0.2 1.4-0.9 1.5-1.7 0.1-0.9-0.3-1.7-1-2.1q-0.3-0.2-0.8-0.3-0.4 0-0.8 0.1-0.4 0.1-0.7 0.4-0.3 0.2-0.5 0.6z"/>
	</g>
	<g id="freepik--speech-bubble-1--inject-24">
		<path id="Layer" class="s4" d="m635 231l2-6.7c-6.3-10.2-3.7-23.5 5.9-30.6 9.6-7.2 23-5.8 31 3.1 8 8.9 7.9 22.4-0.2 31.2-8.2 8.7-21.7 9.8-31.2 2.5z"/>
		<path id="Layer" class="s3" d="m635 231h0.5l1.4-0.1 5.7-0.3q0 0 0 0 0 0 0 0 0 0 0 0 0.1-0.1 0-0.1 0.1 0 0.1 0 0 0 0 0 0 0 0 0 0 0-0.1 0l-0.1 0.1c2.4 1.9 5.2 3.3 8.2 4.1 2.9 0.8 6 1 9.1 0.6 3-0.3 6-1.3 8.6-2.9 2.7-1.5 5-3.6 6.9-6 1.6-2.1 2.9-4.5 3.7-7.1 0.8-2.5 1.2-5.2 1.1-7.9-0.1-2.6-0.7-5.3-1.6-7.7-1-2.5-2.4-4.8-4.2-6.8q-0.9-1.1-2-2.1-1.1-0.9-2.2-1.7-1.2-0.8-2.4-1.5-1.3-0.7-2.6-1.2-1.3-0.5-2.6-0.8-1.3-0.3-2.7-0.5-1.3-0.2-2.7-0.2-1.3 0-2.7 0.1-1.3 0.1-2.5 0.4-1.3 0.2-2.5 0.6-1.2 0.4-2.4 1-1.1 0.5-2.2 1.2-2.8 1.6-5 3.9-2.2 2.4-3.7 5.2-1.5 2.8-2.2 6-0.6 3.1-0.4 6.3 0 1.4 0.3 2.8 0.3 1.4 0.7 2.8 0.4 1.4 1 2.7 0.6 1.3 1.4 2.5v-0.1q-0.9 3.3-1.4 5l-0.4 1.3q0 0.1 0 0.1 0 0.1 0 0.1-0.1 0.1-0.1 0.1 0 0.1 0 0.1c0 0.1 0.1-0.1 0.2-0.4q0.1-0.5 0.4-1.3 0.5-1.7 1.5-4.9 0 0 0 0 0 0 0 0 0-0.1 0-0.1 0 0 0 0c-1.6-2.6-2.7-5.5-3.1-8.5-0.5-3-0.4-6.1 0.4-9.1 0.7-2.9 2-5.7 3.9-8.2 1.8-2.4 4.1-4.5 6.7-6q1.1-0.7 2.2-1.2 1.2-0.5 2.3-0.9 1.2-0.4 2.5-0.6 1.2-0.3 2.4-0.4 1.4-0.2 2.7-0.1 1.3 0 2.7 0.2 1.3 0.2 2.6 0.5 1.3 0.3 2.5 0.8 1.3 0.5 2.5 1.1 1.3 0.7 2.4 1.5 1.1 0.8 2.2 1.7 1 1 1.9 2c2.7 3.1 4.5 6.9 5.3 10.9 0.7 4 0.4 8.2-1 12-1.4 3.9-3.8 7.3-6.9 9.9-3.2 2.6-7 4.3-11 4.9q-0.9 0.2-1.9 0.3-0.9 0-1.8 0-0.9 0-1.9 0-0.9-0.1-1.8-0.3-1.4-0.2-2.8-0.6-1.3-0.4-2.6-1-1.3-0.5-2.6-1.2-1.2-0.8-2.3-1.6-0.1 0-0.1 0 0 0 0 0 0 0-0.1 0 0 0 0 0 0 0 0 0 0 0 0 0 0 0.1 0 0.1 0 0 0 0l0.1-0.2-5.6 0.5-1.4 0.1z"/>
		<path id="Layer" class="s5" d="m663.9 207.6l-7.5-9.3-7.3 9.3h14.8z"/>
		<path id="Layer" class="s5" d="m653 206.1h6.8v18.9h-6.8z"/>
	</g>
	<g id="freepik--characters-2--inject-24">
		<path id="Layer" class="s0" d="m317 409h127.6v66.3h-127.6z"/>
		<path id="Layer" class="s3" d="m317 475.3q0 0 0-1.2 0-1.2 0-3.5c0-3 0-7.5 0.1-13.2 0-11.5 0-28 0.1-48.4l-0.2 0.2 127.6 0.1-0.2-0.3c0 23.4 0 45.8 0 66.3l0.2-0.3-91.7 0.2h-26.5-7-1.8-0.6 0.6 1.8 7l26.4 0.1 91.8 0.1h0.3v-0.2c0-20.5 0-42.9 0-66.3v-0.2h-0.3-127.6-0.2v0.3c0 20.4 0.1 37 0.1 48.5 0 5.7 0 10.2 0 13.2q0 2.2 0 3.4c0 0.8 0.1 1.2 0.1 1.2z"/>
		<path id="Layer" class="s0" d="m113.2 387.4h141v87.9h-141z"/>
		<path id="Layer" class="s3" d="m113.2 475.3q0 0 0-1.6 0-1.6 0-4.6c0-4.1 0-10 0-17.7 0-15.2 0-37.2 0.1-64l-0.2 0.2h141l-0.3-0.2c0 31.1 0 60.8 0 87.9l0.2-0.3-101.5 0.2h-29-7.8-2.7 0.7 2 7.7l29 0.1 101.6 0.1h0.3v-0.2c0-27 0-56.8 0-87.9v-0.3h-0.3l-141 0.1h-0.2v0.2c0 26.9 0.1 48.9 0.1 64.1 0 7.7 0 13.6 0 17.6q0 3.1 0 4.6c0 1.1 0.3 1.7 0.3 1.7z"/>
		<path id="Layer" class="s6" d="m262.5 136.2l1.8-10.2 3.1-7.9-16.5-7-0.1 4.7 4 10.2-3.1 7.8 10.8 2.4"/>
		<path id="Layer" class="s7" d="m337.6 182l15.5 13 31.4-13 0.2 3.5-2.7 15.4-28.3 10.1q-0.2 0.1-0.4 0.1-0.2 0-0.3 0-0.2 0-0.4 0-0.2 0-0.4-0.1-0.1 0-0.1 0-0.1 0-0.2 0-0.1 0-0.1 0-0.1 0-0.2 0c-4-0.5-22.5-24.1-22.5-24.1 0 0 8-4.5 8.5-4.9z"/>
		<path id="Layer" class="s3" d="m417.1 116q0.4-0.4 0.8-0.7 0.4-0.3 0.9-0.4 0.5-0.2 1-0.3 0.6-0.1 1.1 0 0.2 0 0.4 0.1 0.2 0 0.4 0 0.2 0 0.4-0.1 0.3 0 0.4-0.1 0.2-0.1 0.3-0.2 0.1-0.1 0.2-0.2 0.1-0.1 0.2-0.3 0-0.1 0.1-0.2 0.3-0.4 0.8-0.6 0.4-0.2 0.8-0.2 0.5 0 0.9 0.2 0.5 0.1 0.8 0.4 0.1 0.1 0.2 0.2 0 0.1 0.1 0.2 0.1 0.1 0.2 0.1 0.1 0.1 0.2 0.2c1.1 0.5 2.3-1.5 3.4-1q-0.2 0.1-0.4 0.2-0.2 0.1-0.3 0.2-0.2 0.2-0.3 0.3-0.1 0.2-0.2 0.3-0.1 0.2-0.2 0.4 0 0.2 0 0.4 0 0.2 0.1 0.4 0.1 0.1 0.2 0.3c1 0.9 2.7-1.2 3.9-0.4 0.6 0.4 0.7 1.4 1.4 1.6q0.1 0 0.2 0 0.1 0 0.2 0 0.1 0 0.2-0.1 0.1 0 0.2 0 0.4 0 0.7 0.1 0.4 0.1 0.7 0.3 0.2 0.2 0.4 0.5 0.2 0.3 0.2 0.7c0.1 0.8-0.3 1.8 0.4 2.3q0.1 0.1 0.3 0.2 0.2 0.1 0.4 0.1 0.2 0 0.3 0 0.2 0 0.4-0.1 0 0.3 0 0.6-0.1 0.2-0.1 0.5-0.1 0.3-0.2 0.6-0.1 0.2-0.2 0.5 0.5 0.3 0.8 0.7 0.4 0.5 0.5 1.1 0.1 0.5 0.1 1.1-0.1 0.6-0.4 1.1 0.3 0.1 0.5 0.3 0.2 0.2 0.5 0.4 0.2 0.3 0.4 0.5 0.2 0.2 0.3 0.5 0.2 0.2 0.3 0.5 0.1 0.3 0.1 0.6 0 0.3-0.1 0.6 0 0.3-0.2 0.6 0 0.1-0.1 0.1 0 0.1-0.1 0.1 0 0.1 0 0.1-0.1 0.1-0.1 0.2 0 0 0 0.1-0.1 0.1-0.1 0.2 0 0 0.1 0.1 0 0.1 0 0.2 0.1 0.2 0.2 0.5 0 0.3 0.1 0.6 0.1 0.3 0.1 0.6 0.1 0.3 0.1 0.5c0 0.8-0.6 1.7-1.4 1.6-0.1 0-0.3 0-0.5 0q0 0.1-0.1 0.1 0 0 0 0.1 0 0-0.1 0.1 0 0 0 0.1 0 0.2 0 0.4 0 0.2 0 0.4 0 0.2 0.1 0.4 0 0.2 0.1 0.4 0 0.2 0 0.5 0 0.2 0 0.4 0 0.2-0.1 0.4-0.1 0.2-0.2 0.4-0.1 0.1-0.3 0.2-0.1 0.1-0.3 0.2-0.2 0-0.4-0.1-0.2 0-0.4-0.1 0.4 1.2 0.7 2.5c0.1 0.6 0.3 1.2-0.1 1.6-0.4 0.3-1.4 0.1-1.8-0.5-0.4-0.6-0.5-1.3-0.9-1.9q0-0.1-0.1-0.2 0 0-0.1-0.1-0.1-0.1-0.1-0.2-0.1-0.1-0.1-0.2c-0.1-0.2-0.2-0.4-0.3-0.6-0.4-0.3-0.9 0.2-0.9 0.7q0.1 0.1 0.2 0.3 0 0.1 0.1 0.3 0.1 0.1 0.2 0.3 0.1 0.1 0.2 0.2 0.2 0.1 0.3 0.3 0 0.1 0.1 0.3 0 0.1 0 0.3 0 0.2-0.1 0.3c-0.1 0.2-0.3 0.4-0.4 0.5-0.3 0.7 0.7 1.3 0.8 2q0 0.2-0.1 0.5 0 0.2-0.1 0.3-0.1 0.2-0.2 0.4-0.1 0.2-0.3 0.3c-0.5 0.5-1.4 0.9-1.7 0.3q0-0.1-0.1-0.2 0-0.1 0-0.2 0-0.1 0-0.1-0.1-0.1-0.1-0.2 0-0.1-0.1-0.2 0-0.1-0.1-0.2-0.1 0-0.2-0.1 0-0.1-0.1-0.1-0.2-0.2-0.4-0.4-0.1-0.2-0.3-0.4-0.1-0.2-0.2-0.5-0.1-0.2-0.2-0.4c0.6 0.7 1.2 1.6 0.8 2.4q-0.1 0.1-0.1 0.2-0.1 0.2-0.2 0.3-0.1 0.1-0.2 0.2-0.1 0.1-0.2 0.2c-0.5 0.5-0.9 1.2-1.4 1.8q-0.1 0.2-0.4 0.3-0.2 0.2-0.5 0.3-0.2 0.1-0.5 0-0.3 0-0.6-0.1c0.2 0.4 0.2 0.8 0 1.2-0.1 0.3-0.3 0.6-0.7 0.8-0.3 0.2-0.7 0.3-1 0.3-0.4-0.1-0.8-0.3-1-0.5q-0.1-0.1-0.1-0.2-0.1 0-0.1-0.1-0.1 0-0.2-0.1 0 0-0.1 0-0.1-0.1-0.2-0.1 0 0-0.1 0-0.1 0-0.2 0-0.1 0-0.2 0.1-0.5 0.1-1 0-0.5 0-0.9-0.2-0.5-0.2-0.9-0.5-0.4-0.3-0.7-0.7l0.7-0.2q-0.5-0.1-1-0.1-0.5-0.1-1-0.2-0.5-0.2-0.9-0.4-0.5-0.2-0.9-0.4-0.4-0.2-0.8-0.6-0.3-0.4-0.5-0.9-0.1-0.4-0.1-0.9-0.1-0.5 0.1-1c0.2-0.5 0.7-1.1 0.5-1.6q-0.1-0.1-0.2-0.2-0.1-0.1-0.2-0.2-0.1-0.1-0.3-0.2-0.1 0-0.3 0l-4.7-1.6q-0.3-0.1-0.5-0.2-0.3-0.1-0.6-0.3-0.2-0.1-0.5-0.3-0.2-0.2-0.4-0.4-0.2-0.2-0.3-0.5-0.1-0.3-0.1-0.6 0-0.3 0.1-0.5 0.1-0.3 0.3-0.5-0.1-0.3-0.3-0.5-0.1-0.3-0.3-0.5-0.3-0.2-0.5-0.4-0.2-0.2-0.5-0.3c-0.8-0.5-1.7-0.7-2.5-1.1q-0.3-0.1-0.6-0.4-0.2-0.2-0.4-0.4-0.2-0.3-0.4-0.6-0.1-0.4-0.1-0.7c0-0.9 1.3-1.6 1.9-1-0.1-1.4-2.6-1.4-2.8-2.8-0.2-1 1.2-1.6 1.9-2.5-0.1-0.4-0.5-0.6-0.7-1-0.3-0.8 0.5-1.6 1.3-2 0.7-0.4 1.7-0.8 1.8-1.6 0.2-0.8-0.5-1.8-0.1-2.6q0.1-0.1 0.3-0.2 0.1-0.2 0.3-0.2 0.2 0 0.4 0 0.1 0 0.3 0.1c0.6-1.6 3.6-0.5 4.4-1.9q0-0.1 0.1-0.1 0-0.1 0-0.1 0-0.1 0-0.1 0-0.1 0-0.1 0-0.1 0-0.1 0 0 0-0.1-0.1 0-0.1-0.1 0 0-0.1 0-0.1-0.2-0.3-0.3-0.1-0.1-0.3-0.3-0.1-0.1-0.3-0.2-0.2-0.1-0.4-0.2-0.1-0.1-0.3-0.3-0.1-0.1-0.2-0.3-0.1-0.2-0.1-0.4 0-0.2 0-0.4c0.2-0.5 1.2-0.5 1.2 0q0.2-0.2 0.5-0.3 0.2 0 0.5 0.1 0.3 0 0.5 0.2 0.2 0.2 0.3 0.4 0.2-0.1 0.4-0.2 0.2-0.1 0.4-0.2 0.2 0 0.5 0.1 0.2 0 0.4 0.1 0.1 0.2 0.3 0.3 0.2 0.2 0.3 0.3 0.2 0.2 0.3 0.4 0.1 0.2 0.2 0.4"/>
		<path id="Layer" class="s5" d="m424.8 133.2q-0.3-0.8-0.7-1.6-0.4-0.7-0.9-1.4-0.5-0.7-1.2-1.3-0.6-0.6-1.4-1-0.3-0.2-0.6-0.4-0.3-0.2-0.6-0.4-0.3-0.1-0.7-0.2-0.3-0.1-0.7-0.2-0.3 0-0.7 0-0.4 0-0.7 0.2-0.3 0.1-0.6 0.4-0.3 0.2-0.5 0.5l0.2 1.6c-0.1 2.6 2 4.7 3 7 0.5 1 0.8 2.3 1.9 2.7q0.2 0.1 0.4 0.1 0.2 0 0.5 0 0.2 0 0.4 0 0.2-0.1 0.4-0.2c2.1-0.8 3.1-3.6 2.5-5.8z"/>
		<path id="Layer" class="s3" d="m425.5 145.1q0.5-0.8 0.7-1.7 0.2-0.9 0.1-1.8-0.1-0.9-0.5-1.7-0.4-0.8-1.1-1.4 0.3-0.5 0.4-1.1 0.1-0.5 0-1.1-0.1-0.6-0.3-1.1-0.3-0.5-0.7-0.9-0.4-0.4-0.8-0.7-0.5-0.3-1-0.6-0.5-0.3-1-0.5-0.5-0.3-1.1-0.4-0.4-1.3-1.2-2.3-0.9-1.1-2-1.7-1.2-0.7-2.5-0.8-1.3-0.2-2.6 0.1c-2-2.5-5.8-2.7-8.8-1.7q-0.3 0.1-0.5 0.2-0.3 0.1-0.6 0.2-0.3 0.1-0.6 0.1-0.3 0.1-0.6 0.1-0.2 0-0.4 0-0.2 0-0.4 0-0.2 0-0.4 0-0.2-0.1-0.5-0.1c-3.1-0.2-6.1 2.1-7.1 5.1q-0.1 0.2-0.1 0.3-0.1 0.2-0.2 0.4-0.1 0.2-0.1 0.3-0.1 0.2-0.2 0.4-0.2 0.1-0.4 0.3-0.1 0.2-0.3 0.4-0.2 0.1-0.4 0.3-0.2 0.2-0.4 0.3-0.4 0.4-0.7 0.8-0.3 0.4-0.6 0.9-0.2 0.5-0.3 1-0.1 0.5-0.1 1.1c0 1.2 0.5 2.5 0 3.6-0.2 0.6-0.7 1-0.8 1.6-0.5 1.7 1.4 3.3 1.2 5-0.1 0.4-0.2 0.7-0.3 1q-0.1 0.3-0.1 0.5 0 0.3 0.1 0.6 0 0.3 0.1 0.5 0.1 0.3 0.2 0.5 0.1 0.2 0.2 0.4 0.2 0.2 0.2 0.4 0.1 0.1 0.2 0.3 0.1 0.2 0.2 0.4-0.1 0.2-0.1 0.4 0 0.1 0 0.3 0 0.1-0.1 0.3 0 0.2 0 0.3c-0.2 1 2.2 4.9 3.2 5.4l26.6-1.1q0.7-0.2 1.4-0.7 0.6-0.4 1.1-1 0.5-0.6 0.8-1.3 0.3-0.7 0.3-1.5 0-0.1 0-0.3 0-0.1 0-0.2 0.1-0.1 0.1-0.3 0.1-0.1 0.1-0.2 0.1-0.1 0.2-0.2 0 0 0.1-0.1 0.1-0.1 0.2-0.1 0.1-0.1 0.2-0.1c1.7-1 1.7-3.4 1.5-5.3q0-0.1-0.1-0.2 0-0.1 0-0.2 0-0.1 0-0.2 0.1-0.1 0.1-0.2 0-0.2 0.1-0.3 0-0.1 0.1-0.3 0.1-0.1 0.1-0.2 0.1-0.1 0.2-0.2z"/>
		<path id="Layer" class="s8" d="m417.9 145.5q-0.1-1.9-0.7-3.7-0.6-1.8-1.7-3.4-1.1-1.6-2.6-2.9-1.4-1.2-3.2-2-0.8-0.3-1.6-0.6-0.9-0.2-1.8-0.4-0.8-0.2-1.7-0.2-0.9-0.1-1.8-0.1-0.8 0-1.6 0.1-0.8 0.1-1.6 0.3-0.8 0.2-1.5 0.5-0.8 0.3-1.5 0.8c-1.4 0.4-6.5 5.6-6.5 11 0 5.9 0.2 13.2 1.2 17.5 2 8.8 8.9 9.5 8.9 9.5l-0.2 6.2 19.1-1.4z"/>
		<path id="Layer" class="s9" d="m404.5 160.2q0-0.1-0.1-0.3 0-0.2-0.1-0.3-0.1-0.2-0.2-0.3-0.1-0.1-0.3-0.2-0.2-0.2-0.5-0.3-0.3-0.2-0.6-0.2-0.3 0-0.6 0.1-0.3 0.1-0.6 0.3-0.2 0.2-0.5 0.5-0.2 0.2-0.3 0.5-0.1 0.4-0.2 0.7 0 0.3 0 0.7 0.2 0.2 0.4 0.4 0.1 0.1 0.4 0.3 0.2 0.1 0.4 0.2 0.3 0.1 0.5 0.1h0.3q0.2 0 0.4-0.1 0.2 0 0.4-0.1 0.2 0 0.3-0.1 0.2-0.1 0.3-0.3 0.2-0.1 0.3-0.3 0.1-0.2 0.2-0.4 0.1-0.2 0.1-0.4 0-0.3 0-0.5z"/>
		<path id="Layer" class="s3" d="m392.5 151.7q0 0.3 0.1 0.5 0.1 0.2 0.2 0.3 0.2 0.2 0.4 0.2 0.2 0.1 0.4 0.1 0.3 0 0.5-0.1 0.2 0 0.3-0.2 0.2-0.2 0.3-0.4 0.1-0.2 0.1-0.4-0.1-0.2-0.2-0.4-0.1-0.2-0.2-0.4-0.2-0.1-0.4-0.2-0.2-0.1-0.4-0.1-0.2 0-0.4 0.1-0.3 0.1-0.4 0.3-0.2 0.1-0.2 0.3-0.1 0.2-0.1 0.4z"/>
		<path id="Layer" class="s3" d="m392.3 148.1c0.1 0.2 1-0.5 2.2-0.6 1.2-0.1 2.2 0.5 2.3 0.3 0.1-0.1-0.1-0.3-0.5-0.6q-0.2-0.1-0.5-0.2-0.2-0.1-0.4-0.1-0.2-0.1-0.5-0.1-0.2 0-0.5 0-0.2 0-0.4 0-0.3 0.1-0.5 0.2-0.2 0.1-0.4 0.2-0.2 0.1-0.4 0.3c-0.4 0.3-0.5 0.6-0.4 0.6z"/>
		<path id="Layer" class="s3" d="m400.1 157.3q-0.3 0-0.5-0.1-0.3 0-0.5 0-0.3-0.1-0.5-0.1-0.3 0-0.5 0c-0.3 0-0.6 0-0.7-0.3q0-0.1 0-0.2 0-0.1 0-0.2 0-0.2 0.1-0.3 0-0.1 0.1-0.2 0.3-1.2 0.7-2.4 0.3-0.8 0.5-1.6 0.3-0.8 0.5-1.6 0.2-0.8 0.4-1.6 0.2-0.8 0.3-1.6-0.3 0.7-0.6 1.5-0.3 0.8-0.6 1.6-0.3 0.7-0.5 1.5-0.3 0.8-0.5 1.6-0.4 1.3-0.7 2.5-0.1 0.1-0.1 0.3-0.1 0.1-0.1 0.3 0 0.1 0 0.3 0.1 0.1 0.1 0.3 0 0.1 0.1 0.2 0.1 0 0.1 0.1 0.1 0 0.2 0.1 0.1 0 0.1 0 0.1 0 0.2 0 0.1 0 0.1 0 0.1 0 0.2 0 0 0 0.1 0 0.2 0 0.5 0.1 0.2 0 0.5-0.1 0.2 0 0.5 0 0.2 0 0.5-0.1z"/>
		<path id="Layer" class="s9" d="m400.2 171.9q1.5-0.1 3.1-0.4 1.5-0.2 3-0.7 1.5-0.5 2.9-1.2 1.4-0.7 2.7-1.6c0.8-0.6-2.8 6.4-11.8 6.1z"/>
		<path id="Layer" class="s3" d="m403.8 158c-0.2 0-0.2 1.3-1.2 2.3-1.1 1.1-2.5 1-2.5 1.2 0 0.2 0.3 0.2 0.9 0.2q0.3 0 0.6-0.1 0.2 0 0.5-0.1 0.3-0.2 0.5-0.3 0.3-0.2 0.5-0.4 0.2-0.2 0.4-0.4 0.1-0.2 0.2-0.5 0.2-0.2 0.2-0.5 0.1-0.3 0.1-0.6c0-0.5-0.1-0.9-0.2-0.8z"/>
		<path id="Layer" class="s3" d="m392.5 143.5c0.2 0.3 1.1 0 2.3 0 1.1 0 2 0.2 2.2 0 0.1-0.1 0-0.4-0.4-0.7q-0.2-0.1-0.5-0.2-0.2-0.1-0.4-0.2-0.2-0.1-0.5-0.1-0.2 0-0.5 0-0.2 0-0.4 0-0.3 0-0.5 0.1-0.2 0.1-0.4 0.2-0.3 0.1-0.5 0.2c-0.4 0.3-0.5 0.5-0.4 0.7z"/>
		<path id="Layer" class="s3" d="m405.7 151.3q0 0.3-0.1 0.5 0 0.2-0.2 0.4-0.1 0.1-0.3 0.2-0.2 0.1-0.5 0.1-0.2 0-0.4 0-0.2-0.1-0.4-0.2-0.1-0.2-0.2-0.4-0.1-0.2-0.2-0.4 0-0.2 0.1-0.4 0.1-0.2 0.2-0.4 0.2-0.2 0.4-0.3 0.2 0 0.4-0.1 0.2 0 0.4 0.1 0.3 0 0.4 0.2 0.2 0.1 0.3 0.3 0.1 0.2 0.1 0.4z"/>
		<path id="Layer" class="s3" d="m409.1 147.5c-0.1 0.2-1-0.4-2.2-0.4-1.3 0-2.2 0.7-2.3 0.5-0.1-0.1 0.1-0.3 0.5-0.6q0.2-0.2 0.4-0.3 0.2-0.1 0.4-0.2 0.2 0 0.5-0.1 0.2 0 0.5 0 0.2 0 0.4 0 0.3 0 0.5 0.1 0.2 0.1 0.4 0.2 0.3 0.1 0.5 0.2c0.3 0.3 0.5 0.5 0.4 0.6z"/>
		<path id="Layer" class="s3" d="m409.2 143.4c-0.2 0.3-1.2 0-2.3 0-1.2 0-2.1 0.2-2.4-0.1-0.1-0.1 0.1-0.4 0.5-0.7q0.4-0.2 0.9-0.3 0.5-0.2 1-0.2 0.5 0 0.9 0.2 0.5 0.1 0.9 0.3 0.7 0.6 0.5 0.8z"/>
		<path id="Layer" class="s8" d="m417 154c0-0.7 0.6-2.3 1.3-2.4 1.7-0.4 4.8-0.5 5.2 4 0.4 6.1-5.8 5.2-5.8 5.1 0-0.2-0.6-4.4-0.7-6.7z"/>
		<path id="Layer" class="s9" d="m419.2 158.3c0 0 0.1 0.1 0.3 0.1q0.1 0.1 0.2 0.1 0.1 0 0.2 0 0.1 0 0.2 0 0.1 0 0.2-0.1 0.3-0.2 0.5-0.4 0.2-0.3 0.3-0.6 0.2-0.4 0.2-0.7 0-0.3 0-0.7 0-0.2 0-0.4-0.1-0.2-0.1-0.3-0.1-0.2-0.1-0.4-0.1-0.2-0.2-0.4-0.1-0.1-0.1-0.2-0.1-0.2-0.2-0.2-0.1-0.1-0.3-0.2-0.1-0.1-0.2-0.1-0.1 0-0.2 0-0.1 0-0.2 0-0.1 0.1-0.2 0.2 0 0 0 0.1c-0.1 0.2 0 0.3-0.1 0.3-0.1 0-0.1-0.1-0.1-0.3q0-0.1 0-0.1 0-0.1 0.1-0.1 0-0.1 0-0.1 0.1-0.1 0.1-0.1 0.1-0.1 0.1-0.1 0.1-0.1 0.2-0.1 0 0 0.1 0 0.1 0 0.2 0 0.2 0 0.3 0.1 0.2 0 0.4 0.2 0.1 0.1 0.2 0.2 0.2 0.2 0.2 0.3 0.1 0.2 0.2 0.4 0.1 0.2 0.2 0.4 0 0.3 0.1 0.5 0 0.2 0 0.4 0.1 0.4 0 0.8-0.1 0.4-0.2 0.8-0.2 0.3-0.5 0.6-0.3 0.3-0.6 0.5-0.2 0.1-0.3 0.1-0.1 0-0.2 0-0.2 0-0.3 0-0.1-0.1-0.2-0.2c-0.2-0.1-0.2-0.3-0.2-0.3z"/>
		<path id="Layer" class="s3" d="m388.7 145q0.4-0.3 0.8-0.6 0.3-0.4 0.6-0.8 0.2-0.5 0.3-1 0.1-0.5 0-1c0.9 0.2 1.6-0.9 2-1.6 0.5-0.7 1-1.1 0.9-2q0-0.1 0-0.1 0-0.1 0-0.2 0 0 0-0.1 0 0 0-0.1c0.1-0.2 0.4-0.3 0.7-0.4q0.4-0.2 0.9-0.5 0.4-0.3 0.7-0.7 0.3-0.4 0.6-0.9 0.2-0.4 0.3-0.9 0.5 0.2 1 0.3 0.5 0.1 1 0.1 0.6 0.1 1.1 0.1 0.5 0 1.1-0.1 0.5 0.7 1.3 1 0.8 0.3 1.6 0.2 0.8-0.1 1.5-0.6 0.7-0.4 1.1-1.2 0.2 0.3 0.4 0.5 0.2 0.2 0.5 0.4 0.2 0.2 0.5 0.3 0.3 0.1 0.7 0.1 0.3 0.1 0.6 0.1 0.3 0 0.6 0 0.3 0 0.7 0 0.3 0 0.6-0.1-0.1 0.6 0 1.3 0.2 0.6 0.5 1.1 0.4 0.5 0.9 0.9 0.5 0.3 1.1 0.5c0.2 0.1 0.5 0.1 0.6 0.3 0.1 0.2 0 0.5-0.1 0.7q-0.1 0.5 0 1.1 0.1 0.5 0.4 1 0.3 0.5 0.7 0.8 0.5 0.3 1 0.5-0.3 0.3-0.5 0.7-0.1 0.5-0.1 0.9 0.1 0.5 0.3 0.9 0.3 0.4 0.7 0.6c0.2 0.2 0.5 0.3 0.5 0.6q0 0 0 0 0 0.1 0 0.1-0.1 0-0.1 0.1 0 0 0 0-0.2 0.2-0.3 0.5-0.2 0.2-0.3 0.5-0.1 0.3-0.2 0.5 0 0.3 0 0.6-0.1 0.3 0 0.5 0.1 0.3 0.3 0.5 0.2 0.2 0.4 0.4 0.3 0.1 0.6 0.1-0.2 0.2-0.3 0.3-0.1 0.2-0.2 0.4-0.1 0.1-0.2 0.3 0 0.2 0 0.4c0 0.5 0.6 1 1 0.8q0.5-0.1 0.9-0.2 0.4-0.1 0.8-0.3 0.4-0.1 0.8-0.3 0.4-0.1 0.8-0.2c1.6-2.5-0.7-4.9-1.1-7.8q-0.1-1.1-0.4-2.1-0.3-1.1-0.7-2.1-0.4-1-0.9-1.9-0.5-1-1.1-1.9-0.2-0.4-0.5-0.8-0.3-0.3-0.6-0.7-0.3-0.3-0.6-0.6-0.3-0.4-0.6-0.7-0.4-0.3-0.9-0.6-0.4-0.3-0.8-0.6-0.4-0.3-0.9-0.5-0.5-0.3-0.9-0.5-0.6-0.4-1.2-0.7-0.6-0.3-1.2-0.5-0.7-0.3-1.3-0.5-0.7-0.2-1.3-0.3c-3.3-0.6-6.7 0.8-9.6 2.4q-0.4 0.2-0.9 0.5-0.4 0.2-0.8 0.5-0.4 0.3-0.7 0.6-0.4 0.2-0.8 0.6-0.4 0.4-0.7 0.8-0.4 0.5-0.7 1-0.3 0.4-0.6 0.9-0.3 0.5-0.5 1.1-0.4 0.7-0.7 1.5-0.3 0.7-0.6 1.5-0.2 0.8-0.3 1.7-0.2 0.8-0.2 1.6"/>
		<path id="Layer" class="s7" d="m387.4 143q0-0.1 0-0.2 0.1-0.1 0.1-0.1 0-0.1 0.1-0.2 0-0.1 0.1-0.2c0.1-0.2 0.3-0.4 0.4-0.7q0.1-0.2 0.1-0.3 0.1-0.1 0.1-0.3 0-0.1 0-0.3 0.1-0.1 0.1-0.3 0-0.2 0-0.4 0-0.2-0.1-0.3 0-0.2 0-0.4 0-0.2 0-0.4-0.1-0.2-0.1-0.4 0-0.3 0-0.5 0-0.2 0-0.4 0-0.3 0-0.5 0-0.2 0.1-0.5 0-0.3 0.1-0.5 0.1-0.2 0.2-0.5 0.1-0.2 0.3-0.4 0-0.2 0.1-0.3 0.1-0.1 0.2-0.2 0.1-0.1 0.2-0.2 0.1-0.1 0.2-0.2 0.1-0.2 0.2-0.3 0.1-0.1 0.2-0.2 0.1 0 0.2-0.1 0.1-0.1 0.3-0.2 0.1-0.1 0.2-0.2 0.1-0.1 0.2-0.2 0.1-0.1 0.2-0.2 0.1-0.1 0.2-0.3 0.1-0.1 0.2-0.3 0.1-0.1 0.1-0.2 0.1-0.2 0.1-0.3 0.1-0.2 0.1-0.3 0.3-0.7 0.6-1.4 0.4-0.6 0.8-1.2 0.5-0.6 1-1 0.6-0.5 1.2-0.9 0.2-0.1 0.3-0.2 0.2-0.1 0.4-0.2 0.2 0 0.4-0.1 0.1-0.1 0.3-0.1 0.2-0.1 0.4-0.1 0.2-0.1 0.4-0.1 0.2-0.1 0.4-0.1 0.2 0 0.4 0 0.1 0 0.2 0 0.1 0 0.2 0 0.1 0 0.2 0 0.1 0 0.2 0l0.8 0.1q0.3 0 0.5 0 0.2 0 0.4 0 0.2 0 0.4 0 0.2-0.1 0.4-0.1c0.5-0.2 1-0.4 1.6-0.6q0.2 0 0.4-0.1 0.2-0.1 0.4-0.1 0.2-0.1 0.4-0.1 0.3 0 0.5-0.1 0.2 0 0.4 0 0.2-0.1 0.5-0.1 0.2 0 0.4 0 0.2 0 0.4 0 0.3 0 0.5 0 0.2 0 0.4 0.1 0.3 0 0.5 0 0.2 0.1 0.4 0.1 0.5 0.1 0.9 0.3 0.5 0.1 0.9 0.4 0.4 0.2 0.7 0.5 0.4 0.3 0.7 0.6l0.3 0.3h-0.1q0.6-0.1 1.3-0.2 0.7 0 1.4 0.1 0.7 0.1 1.3 0.3 0.7 0.2 1.2 0.6 0.6 0.3 1.1 0.7 0.5 0.4 0.9 1 0.4 0.5 0.7 1.1 0.3 0.5 0.5 1.2v-0.1q0.3 0.1 0.5 0.2 0.3 0.2 0.6 0.3 0.3 0.1 0.5 0.2 0.3 0.2 0.6 0.3 0.2 0.1 0.5 0.3 0.2 0.2 0.4 0.4 0.3 0.1 0.5 0.3 0.2 0.2 0.4 0.5 0.2 0.2 0.3 0.4 0.2 0.2 0.3 0.5 0.1 0.3 0.2 0.5 0.1 0.3 0.1 0.6 0.1 0.2 0.1 0.5-0.1 0.3-0.1 0.5-0.1 0.3-0.2 0.6-0.1 0.2-0.2 0.4v-0.1q0.3 0.3 0.5 0.7 0.3 0.3 0.5 0.7 0.2 0.4 0.4 0.8 0.1 0.4 0.1 0.8 0.1 0.4 0.1 0.8 0 0.4-0.1 0.8 0 0.4-0.1 0.7-0.1 0.4-0.3 0.7 0 0.1-0.1 0.2 0 0.1-0.1 0.2 0 0-0.1 0.1 0 0.1-0.1 0.2-0.2 0.3-0.4 0.5 0 0.1 0 0.2-0.1 0-0.1 0.1 0 0.1 0 0.2 0 0.1 0 0.1 0 0.1 0 0.2 0 0.1 0 0.2 0 0 0 0.1 0 0.1 0 0.2 0.1 0.2 0.1 0.5 0 0.3 0 0.6 0 0.3 0 0.6 0 0.3 0 0.6 0 0.2 0 0.4-0.1 0.3-0.1 0.5-0.1 0.2-0.2 0.4-0.1 0.3-0.2 0.5-0.1 0.1-0.2 0.2-0.1 0.2-0.2 0.3-0.1 0.1-0.2 0.2-0.1 0.2-0.3 0.3c-0.3 0.2-0.5 0.3-0.7 0.4q0 0 0 0-0.1 0.1-0.1 0.1 0 0 0 0-0.1 0.1-0.1 0.1 0 0 0-0.1 0.1 0 0.1 0 0 0 0-0.1 0.1 0 0.1 0c0.1-0.1 0.4-0.2 0.7-0.5q0.1-0.1 0.3-0.2 0.1-0.1 0.2-0.2 0.1-0.2 0.2-0.3 0.1-0.1 0.2-0.3 0.1-0.2 0.1-0.4 0.1-0.2 0.2-0.4 0-0.3 0.1-0.5 0-0.2 0-0.4 0-0.3 0-0.6 0-0.3 0-0.6 0-0.3 0-0.6 0-0.2-0.1-0.5c0-0.2 0-0.4 0-0.7q0-0.1 0-0.1 0-0.1 0-0.2 0-0.1 0.1-0.2 0-0.1 0-0.1 0.2-0.3 0.4-0.6 0.1-0.1 0.1-0.2 0.1 0 0.1-0.1 0.1-0.1 0.1-0.2 0.1 0 0.1-0.1 0.2-0.4 0.3-0.7 0.1-0.4 0.1-0.8 0.1-0.4 0.1-0.8 0-0.3-0.1-0.7 0-0.4-0.2-0.8-0.1-0.4-0.3-0.8-0.2-0.4-0.5-0.7-0.2-0.4-0.5-0.7v-0.1q0.1-0.2 0.2-0.4 0.1-0.3 0.2-0.5 0-0.3 0-0.5 0-0.3 0-0.6-0.1-0.2-0.1-0.5-0.1-0.3-0.2-0.5-0.1-0.3-0.3-0.5-0.1-0.2-0.3-0.5-0.2-0.2-0.4-0.4-0.2-0.2-0.4-0.3-0.3-0.2-0.5-0.4-0.2-0.1-0.5-0.3-0.3-0.1-0.5-0.2-0.3-0.2-0.6-0.3-0.2-0.1-0.5-0.2-0.3-0.1-0.6-0.3-0.4-1.2-1.2-2.2-0.8-1-2-1.7-1.1-0.6-2.4-0.8-1.3-0.1-2.6 0.2h-0.1l-0.3-0.3q-0.3-0.3-0.6-0.6-0.4-0.3-0.8-0.5-0.3-0.2-0.8-0.4-0.4-0.2-0.8-0.3-0.2 0-0.5 0-0.2-0.1-0.4-0.1-0.2 0-0.4-0.1-0.3 0-0.5 0-0.2 0-0.4 0-0.2 0-0.5 0-0.2 0.1-0.4 0.1-0.2 0-0.4 0-0.2 0.1-0.5 0.1-0.2 0.1-0.4 0.1-0.2 0.1-0.4 0.1-0.2 0.1-0.4 0.1c-0.5 0.2-1.1 0.4-1.6 0.6q-0.1 0-0.2 0-0.1 0.1-0.2 0.1-0.1 0-0.2 0-0.2 0-0.3 0-0.1 0-0.2 0-0.1 0-0.2 0-0.1 0-0.2 0-0.1 0-0.2 0l-0.8-0.1q-0.1 0-0.2 0-0.1 0-0.2 0-0.1 0-0.2 0-0.1 0-0.2 0-0.4 0-0.8 0.1-0.4 0.1-0.7 0.2-0.4 0.1-0.8 0.3-0.3 0.1-0.6 0.3-0.7 0.4-1.2 0.8-0.5 0.5-1 1-0.4 0.6-0.8 1.2-0.3 0.6-0.6 1.3 0 0.2-0.1 0.3 0 0.2-0.1 0.3 0 0.2-0.1 0.3-0.1 0.2-0.2 0.3-0.1 0.1-0.2 0.3-0.1 0.1-0.2 0.2-0.1 0.1-0.2 0.2-0.1 0.1-0.3 0.2-0.1 0.1-0.2 0.2-0.1 0.1-0.2 0.2-0.2 0-0.3 0.1-0.1 0.1-0.2 0.2-0.1 0.2-0.2 0.3-0.1 0.1-0.2 0.2 0 0.1-0.1 0.2-0.1 0.1-0.2 0.2-0.1 0.2-0.2 0.5-0.1 0.2-0.2 0.5-0.1 0.2-0.1 0.4-0.1 0.3-0.1 0.5-0.1 0.3-0.1 0.5 0 0.2 0 0.4 0 0.2 0 0.5 0 0.2 0.1 0.4 0 0.2 0 0.4 0 0.2 0 0.4 0.1 0.2 0.1 0.3 0 0.2 0 0.4 0 0.2-0.1 0.3 0 0.2 0 0.3-0.1 0.2-0.1 0.3-0.1 0.2-0.1 0.3-0.3 0.5-0.5 0.8 0 0-0.1 0.1 0 0 0 0.1 0 0.1-0.1 0.1 0 0.1 0 0.1-0.1 0.3-0.1 0.3z"/>
		<path id="Layer" class="s7" d="m409 126.3q0 0-0.5-0.2-0.1-0.1-0.3-0.2-0.2 0-0.3-0.1-0.2 0-0.4 0-0.1 0-0.3 0-0.3-0.1-0.5 0-0.3 0-0.5 0-0.3 0.1-0.5 0.2-0.3 0-0.5 0.2-0.3 0.1-0.5 0.3-0.3 0.2-0.5 0.4-0.2 0.2-0.4 0.5-0.2 0.2-0.3 0.5-0.1 0.1-0.1 0.2 0 0.1-0.1 0.2 0 0.1 0 0.1-0.1 0.1-0.1 0.2 0 0.1 0 0.2 0 0.1 0 0.1 0 0.1 0 0.2 0.1 0.1 0.1 0.2l0.2 0.1h-0.3q-0.2 0-0.5 0-0.2 0-0.4 0-0.3 0.1-0.5 0.2-0.2 0.1-0.4 0.2-0.2 0.1-0.4 0.2-0.1 0.1-0.2 0.3-0.2 0.1-0.3 0.3-0.1 0.2-0.1 0.4-0.1 0.1-0.1 0.2-0.1 0.1-0.1 0.3 0 0.1 0 0.2 0 0.1 0 0.3 0 0 0 0.1 0 0 0 0.1 0 0 0 0 0 0.1 0 0.1 0-0.1 0-0.1 0-0.1-0.1-0.1 0 0 0-0.1 0 0 0 0 0-0.2 0-0.3 0-0.1 0-0.3 0.1-0.1 0.1-0.2 0-0.2 0.1-0.3 0-0.2 0.1-0.4 0.1-0.1 0.3-0.3 0.1-0.2 0.2-0.3 0.2-0.1 0.4-0.3 0.2-0.1 0.4-0.2 0.3-0.1 0.5-0.2 0.3 0 0.5 0 0.3 0 0.6 0.1l-0.1 0.1q-0.1-0.1-0.1-0.2-0.1-0.1-0.1-0.2 0-0.1 0-0.2 0-0.1 0.1-0.2 0-0.1 0-0.2 0-0.1 0.1-0.2 0-0.1 0-0.2 0.1 0 0.1-0.1 0.2-0.3 0.4-0.6 0.1-0.3 0.4-0.5 0.2-0.2 0.5-0.4 0.2-0.2 0.5-0.4 0.3-0.1 0.5-0.2 0.3 0 0.5-0.1 0.3 0 0.5-0.1 0.3 0 0.6 0.1 0.2 0 0.3 0 0.2 0 0.4 0.1 0.1 0 0.3 0.1 0.2 0 0.3 0.1l0.4 0.2c0 0 0.1 0.1 0.1 0.1z"/>
		<path id="Layer" class="s7" d="m419.2 132.6q0 0-0.2 0.3-0.1 0-0.1 0.1-0.1 0.1-0.2 0.1-0.1 0.1-0.2 0.2-0.1 0-0.1 0.1-0.2 0.1-0.3 0.1-0.2 0.1-0.3 0.2-0.2 0-0.3 0-0.2 0.1-0.3 0.1-0.2 0-0.4 0-0.2 0-0.4 0-0.2-0.1-0.4-0.2-0.2 0-0.3-0.2h0.1l-0.2 0.3q0 0 0 0.1-0.1 0-0.1 0 0 0.1 0 0.1-0.1 0-0.1 0-0.1 0.2-0.3 0.4-0.2 0.1-0.3 0.2-0.2 0.2-0.4 0.3-0.2 0.1-0.4 0.1-0.2 0.1-0.4 0.2-0.2 0-0.3 0.1-0.2 0-0.4 0-0.2 0-0.4 0-0.1 0-0.2 0-0.2 0-0.3 0-0.1 0-0.2-0.1-0.1 0-0.3 0 0-0.1-0.1-0.1 0 0 0 0-0.1 0-0.1 0-0.1-0.1-0.1-0.1 0.2 0.1 0.3 0.1 0.2 0 0.3 0 0.2 0.1 0.4 0.1 0.1 0 0.3 0 0.2 0 0.3 0 0.2-0.1 0.4-0.1 0.2 0 0.3-0.1 0.2 0 0.4-0.1 0.2-0.1 0.3-0.2 0.2-0.1 0.4-0.2 0.2-0.2 0.3-0.3 0.2-0.1 0.3-0.3l0.2-0.3 0.2-0.2v-0.1h0.1q0.2 0.1 0.3 0.2 0.2 0.1 0.4 0.1 0.2 0.1 0.3 0.1 0.2 0 0.4 0 0.2 0 0.3-0.1 0.2 0 0.3-0.1 0.2 0 0.3-0.1 0.1 0 0.3-0.1c0.6-0.3 0.9-0.6 0.9-0.6z"/>
		<path id="Layer" class="s7" d="m422.8 138q0 0 0 0 0 0 0 0.1 0 0 0 0 0 0 0 0 0 0.1-0.1 0.1 0 0 0 0.1 0 0 0 0 0 0.1-0.1 0.1 0 0.1-0.1 0.3-0.1 0.1-0.3 0.2-0.1 0.1-0.2 0.1-0.1 0.1-0.3 0.1-0.2 0.1-0.4 0.1-0.2 0-0.5 0-0.2 0-0.4 0-0.2-0.1-0.4-0.2-0.2 0-0.3 0-0.1-0.1-0.2-0.1-0.2 0-0.3-0.1-0.1 0-0.2-0.1-0.2 0-0.3-0.1-0.1-0.1-0.2-0.2-0.1 0-0.2-0.2-0.1-0.1-0.2-0.2h-0.1 0.1q-0.1 0.2-0.3 0.3-0.3 0.2-0.5 0.4-0.2 0.1-0.4 0.2-0.2 0.2-0.5 0.3-0.2 0.1-0.4 0.1-0.2 0.1-0.4 0.1-0.2 0.1-0.4 0.1-0.3 0-0.5 0-0.1 0-0.3-0.1-0.1 0-0.2-0.1-0.2 0-0.3-0.1-0.1-0.1-0.3-0.1 0-0.1 0-0.1 0 0-0.1 0 0-0.1 0-0.1-0.1 0-0.1-0.1h-0.1q0.1 0 0.4 0.2 0.1 0.1 0.2 0.1 0.2 0.1 0.3 0.1 0.1 0.1 0.3 0.1 0.1 0 0.2 0 0.2 0.1 0.5 0 0.2 0 0.4 0 0.2 0 0.4-0.1 0.2-0.1 0.3-0.2 0.3-0.1 0.5-0.2 0.2-0.1 0.4-0.3 0.2-0.1 0.4-0.3 0.2-0.2 0.4-0.3l0.1-0.1 0.1 0.1v0.1q0 0.1 0.1 0.2 0.1 0.1 0.2 0.2 0.1 0 0.2 0.1 0.1 0.1 0.3 0.1 0.1 0.1 0.2 0.1 0.1 0 0.3 0.1 0.1 0 0.2 0.1 0.1 0 0.3 0 0.2 0.1 0.4 0.1 0.2 0.1 0.4 0.1 0.2 0 0.4 0 0.2 0 0.4 0 0.2-0.1 0.3-0.1 0.1-0.1 0.2-0.2 0.1-0.1 0.2-0.2 0.1-0.1 0.2-0.2 0.1 0 0.1-0.1 0 0 0.1-0.1 0 0 0-0.1 0 0 0.1-0.1z"/>
		<path id="Layer" class="s7" d="m427.9 116c0 0-0.1 0-0.3 0.1q-0.1 0-0.1 0.1-0.1 0-0.2 0.1-0.1 0-0.2 0.1 0 0.1-0.1 0.1-0.1 0.2-0.2 0.3-0.1 0.2-0.1 0.3 0 0.2-0.1 0.3 0 0.2 0 0.3 0 0.2 0 0.4 0.1 0.3 0.1 0.5 0.1 0.2 0.1 0.4 0.1 0.2 0.1 0.4v0.1h-0.1q-0.2 0-0.5 0-0.3 0.1-0.6 0.2-0.2 0.1-0.5 0.2-0.2 0.2-0.4 0.3-0.3 0.2-0.5 0.5-0.1 0.2-0.3 0.5-0.1 0.3-0.2 0.6 0 0.3 0 0.6 0 0.3 0 0.6 0.1 0.3 0.2 0.5 0.2 0.3 0.4 0.5 0.1 0.2 0.4 0.4l0.2 0.2h-0.3q-0.3 0-0.6 0.1-0.3 0.1-0.6 0.2-0.3 0.2-0.6 0.4-0.2 0.2-0.4 0.4-0.2 0.2-0.3 0.5-0.1 0.2-0.2 0.4-0.1 0.3-0.1 0.5-0.1 0.3-0.1 0.5 0 0.2 0.1 0.4 0 0.1 0 0.3 0 0.2 0.1 0.3 0.1 0.2 0.1 0.4c0.1 0.2 0.3 0.4 0.2 0.4 0 0 0 0 0-0.1q-0.1 0-0.1-0.1 0 0 0-0.1-0.1 0-0.1 0 0-0.1 0-0.1-0.1-0.2-0.2-0.3 0-0.2-0.1-0.4 0-0.1-0.1-0.3 0-0.2 0-0.4 0-0.2 0.1-0.5 0-0.3 0.1-0.5 0.1-0.3 0.2-0.5 0.1-0.3 0.3-0.5 0.2-0.2 0.5-0.5 0.2-0.2 0.5-0.3 0.3-0.2 0.7-0.3 0.3-0.1 0.6-0.1v0.2q-0.2-0.2-0.4-0.5-0.2-0.2-0.4-0.5-0.1-0.2-0.2-0.5-0.1-0.3-0.1-0.6 0-0.2 0-0.4 0.1-0.2 0.1-0.3 0-0.2 0.1-0.4 0-0.1 0.1-0.3 0.1-0.1 0.2-0.3 0.1-0.1 0.2-0.2 0.1-0.1 0.2-0.3 0.1-0.1 0.2-0.2 0.2-0.2 0.5-0.3 0.3-0.1 0.5-0.2 0.3-0.1 0.6-0.2 0.3-0.1 0.6-0.1l-0.1 0.1q-0.1-0.2-0.1-0.4-0.1-0.2-0.1-0.4 0-0.2-0.1-0.4 0-0.2 0-0.4 0-0.2 0-0.4 0.1-0.1 0.1-0.3 0.1-0.2 0.2-0.3 0-0.1 0.1-0.3 0.1-0.1 0.2-0.1 0.1-0.1 0.2-0.2 0 0 0.1-0.1 0.1 0 0.2 0h0.3z"/>
		<path id="Layer" class="s7" d="m439.6 128.5h-0.2l-0.2 0.2q-0.2 0.1-0.3 0.1-0.2 0.1-0.3 0.1-0.2 0.1-0.3 0.1-0.2 0-0.4 0.1-0.2 0-0.4 0-0.3 0-0.5 0-0.3 0-0.5-0.1-0.2 0-0.5-0.1-0.3 0-0.5-0.2-0.3-0.1-0.6-0.2-0.3-0.2-0.5-0.4-0.3-0.2-0.5-0.4h0.1q-0.1 0.4-0.4 0.7-0.3 0.4-0.6 0.6-0.4 0.3-0.8 0.5-0.3 0.1-0.8 0.2-0.4 0.1-0.9 0.1-0.4-0.1-0.9-0.3-0.4-0.2-0.7-0.5-0.4-0.3-0.6-0.7h0.2q-0.1 0.2-0.1 0.3-0.1 0.1-0.2 0.3-0.1 0.1-0.2 0.2-0.1 0.2-0.2 0.3-0.1 0.1-0.2 0.2-0.1 0-0.3 0.1-0.1 0.1-0.2 0.2-0.2 0-0.3 0.1-0.2 0.1-0.4 0.1-0.3 0.1-0.5 0.1-0.2 0.1-0.5 0.1-0.2 0-0.4 0-0.2 0-0.3 0-0.2 0-0.3 0-0.2-0.1-0.3-0.1-0.2 0-0.3 0-0.1 0-0.1 0-0.1 0-0.1-0.1-0.1 0-0.1 0-0.1 0-0.2 0 0.1 0 0.2 0 0 0 0.1 0 0 0 0.1 0 0 0 0.1 0c0.3 0 0.7 0.1 1.2 0.1q0.2 0 0.4-0.1 0.3 0 0.5 0 0.2-0.1 0.4-0.1 0.2-0.1 0.4-0.2 0.3-0.1 0.6-0.2 0.2-0.2 0.4-0.4 0.2-0.2 0.3-0.5 0.2-0.2 0.3-0.5v-0.2l0.1 0.2q0.2 0.4 0.6 0.7 0.3 0.2 0.7 0.4 0.4 0.2 0.8 0.2 0.4 0.1 0.9 0 0.4-0.1 0.7-0.3 0.4-0.1 0.7-0.4 0.4-0.2 0.6-0.5 0.3-0.4 0.5-0.7v-0.1l0.1 0.1q0.2 0.2 0.4 0.3 0.3 0.2 0.5 0.4 0.3 0.1 0.5 0.2 0.3 0.2 0.6 0.3 0.2 0 0.5 0.1 0.2 0 0.4 0 0.3 0 0.5 0 0.2 0 0.5 0 0.2 0 0.4-0.1 0.2 0 0.4-0.1 0.2 0 0.4-0.1 0.2 0 0.4-0.1z"/>
		<path id="Layer" class="s7" d="m433.7 137.7q0 0 0 0.1 0 0 0 0 0 0 0 0 0 0 0 0-0.1 0.1-0.1 0.1 0 0-0.1 0.1 0 0-0.1 0 0 0-0.1 0-0.1 0-0.3 0-0.2 0-0.3 0-0.2 0-0.4 0-0.1-0.1-0.3-0.1-0.3-0.1-0.5-0.2-0.2-0.1-0.4-0.3-0.2-0.1-0.4-0.3-0.2-0.2-0.3-0.4-0.2-0.3-0.3-0.6-0.2-0.2-0.3-0.6 0-0.3-0.1-0.6 0-0.3 0.1-0.6l0.1 0.1q-0.3 0.1-0.6 0.3-0.2 0.1-0.6 0.1-0.3 0.1-0.6 0.1-0.3 0-0.6 0-0.3-0.1-0.5-0.1-0.2-0.1-0.5-0.2-0.2 0-0.4-0.2-0.3-0.1-0.5-0.2-0.1-0.1-0.3-0.2-0.1-0.1-0.2-0.2-0.1-0.1-0.3-0.2-0.1-0.2-0.2-0.3 0 0-0.1-0.1 0 0-0.1-0.1 0 0 0-0.1-0.1 0-0.1-0.1 0.2 0.2 0.3 0.3 0.2 0.2 0.4 0.3 0.1 0.2 0.3 0.3 0.2 0.2 0.4 0.3 0.2 0.1 0.4 0.2 0.3 0.1 0.5 0.2 0.2 0.1 0.5 0.1 0.2 0.1 0.4 0.1 0.3 0 0.6 0 0.3 0 0.6-0.1 0.3 0 0.6-0.1 0.3-0.1 0.5-0.3l0.2-0.1v0.2q0 0.3 0 0.6 0 0.3 0.1 0.6 0 0.3 0.2 0.6 0.1 0.3 0.3 0.5 0.1 0.2 0.3 0.4 0.1 0.1 0.3 0.3 0.2 0.1 0.4 0.3 0.3 0.1 0.5 0.2 0.1 0 0.3 0.1 0.2 0 0.3 0 0.2 0.1 0.3 0.1 0.2 0 0.4 0 0-0.1 0.1-0.1 0 0 0.1 0 0-0.1 0.1-0.1 0 0 0-0.1z"/>
		<path id="Layer" class="s7" d="m414.7 117q-0.1 0.2-0.1 0.5 0 0.2-0.1 0.4 0 0.3 0 0.5 0 0.2 0 0.5 0.1 0.2 0.1 0.5 0.1 0.2 0.2 0.5 0.1 0.2 0.2 0.4 0.1 0.3 0.2 0.5 0.2 0.2 0.4 0.5 0.3 0.2 0.5 0.4 0.3 0.2 0.5 0.3 0.3 0.2 0.6 0.3 0.2 0 0.3 0.1 0.2 0 0.4 0.1 0.2 0 0.3 0 0.2 0 0.4 0.1h0.1v0.1q0 0.2-0.1 0.5 0 0.2 0 0.5 0 0.2 0 0.5 0 0.2 0 0.5 0 0.2 0.1 0.3 0 0.2 0.1 0.4 0 0.2 0.1 0.4 0.1 0.2 0.1 0.4 0.1 0 0.1 0.1 0 0.1 0.1 0.1 0 0.1 0.1 0.2 0 0 0 0.1 0.1 0 0.1 0.1 0 0 0.1 0.1 0 0 0.1 0 0 0 0.1 0 0 0 0 0 0.1 0 0.1 0 0 0 0.1 0 0 0 0-0.1c0 0 0-0.1 0.1 0q0 0 0 0 0 0 0 0 0 0 0 0 0 0 0 0.1-0.1 0-0.1 0 0 0-0.1 0.1 0 0 0 0-0.1 0-0.1 0-0.1 0-0.1 0-0.1-0.1-0.1-0.1-0.1 0-0.1-0.1-0.1 0-0.1-0.1-0.1 0-0.1-0.1 0 0-0.1-0.1 0-0.1-0.1-0.1 0-0.1 0-0.2-0.1-0.2-0.2-0.3-0.1-0.2-0.1-0.4-0.1-0.2-0.1-0.4-0.1-0.2-0.1-0.4 0-0.3-0.1-0.5 0-0.3 0-0.5 0-0.3 0.1-0.5 0-0.3 0.1-0.5v0.1q-0.1 0-0.3 0-0.2 0-0.4-0.1-0.2 0-0.4-0.1-0.1 0-0.3-0.1-0.6-0.2-1.1-0.5-0.4-0.4-0.8-0.9-0.4-0.4-0.6-1-0.2-0.5-0.2-1.1 0-0.2-0.1-0.4 0-0.2 0.1-0.3 0-0.2 0-0.4 0-0.2 0.1-0.3 0-0.1 0-0.1 0-0.1 0-0.1 0-0.1 0.1-0.1 0-0.1 0-0.1 0-0.2 0-0.2z"/>
		<path id="Layer" class="s7" d="m399.4 176.4l-4.5 3.7-10.3 1.9c0 0-5.7 28.3-9.8 37.6-4 9.2-8.4 27.6-8.4 27.6l6 4.6z"/>
		<path id="Layer" class="s3" d="m384.9 187.2q-0.4 0.5-0.7 1.1-0.4 0.5-0.7 1.1-0.3 0.6-0.6 1.1-0.3 0.6-0.5 1.2-0.4 0.6-0.7 1.2-0.2 0.5-0.5 1.1-0.3 0.6-0.5 1.2-0.2 0.6-0.4 1.2 0.3-0.5 0.7-1 0.3-0.6 0.6-1.2 0.4-0.5 0.7-1.1 0.2-0.6 0.5-1.2 0.3-0.5 0.6-1.1 0.3-0.6 0.6-1.2 0.2-0.6 0.5-1.2 0.2-0.6 0.4-1.2z"/>
		<path id="Layer" class="s7" d="m369.5 237.8c-0.1 0.8-11 30.6-8.4 32.3 2.6 1.7 16.5 2.9 16.4 2.5-0.2-0.5 4-27.3 3.2-27.9-0.7-0.6-9.8-6.9-10.5-6.9"/>
		<path id="Layer" class="s10" d="m367.5 271.8l3.3-7 0.9-7.8c0 0-2.1-4.8-2.1-7.3 0-2.5 2.1-7.5 2.1-7.5l7.7 2.4c0 0-1.3 16.2-1.3 16.5 0 0.3-2 9.3-2 9.3l-4.5 2.2z"/>
		<path id="Layer" class="s3" d="m420.2 257.4c0 0 4.8 14.6 4.5 25.2-0.3 10.5-4.8 49.7-4.8 49.7 0 0 6.1 30.5 8.5 41.9 2.8 12.8 4.4 19.7 4.4 19.7l-19.7 3.1c0 0-15.5-46.2-18.6-59.6-3.1-13.4-3.2-41.2-3.2-42.3 0-1.2 0.4-29.3 0.4-29.3z"/>
		<path id="Layer" class="s3" d="m409.8 380.3l5.3 16v1.9c0 0-19.3 7-19.5 10.5l37.2 0.2 0.1-9.3-4.6-19.3z"/>
		<path id="Layer" class="s0" d="m426.6 396.6q0.3 0.1 0.5 0.3 0.2 0.2 0.3 0.4 0.2 0.3 0.2 0.5 0.1 0.3 0 0.6-0.1 0.2-0.2 0.5-0.2 0.2-0.4 0.3-0.3 0.2-0.5 0.2-0.3 0.1-0.6 0-0.3-0.1-0.5-0.3-0.2-0.1-0.4-0.4-0.1-0.2-0.2-0.5 0-0.3 0-0.6 0.1-0.3 0.3-0.5 0.2-0.2 0.5-0.4 0.3-0.1 0.5-0.1 0.3 0 0.6 0.1"/>
		<path id="Layer" class="s7" d="m432.8 409l-0.1-3-35.6 0.9c0 0-1.7 0.7-1.5 1.9z"/>
		<path id="Layer" class="s4" d="m414.5 398c0 0.2 0.9 0.3 1.8 0.9 0.9 0.6 1.4 1.3 1.5 1.2 0.2 0-0.1-1.1-1.1-1.8-1.1-0.7-2.2-0.5-2.2-0.3z"/>
		<path id="Layer" class="s4" d="m410.6 399.6c0 0.2 0.8 0.5 1.4 1.2 0.6 0.8 0.8 1.6 1 1.6 0.2 0 0.3-1-0.5-2-0.8-1-1.9-1-1.9-0.8z"/>
		<path id="Layer" class="s4" d="m408.4 404.2c0.1 0 0.4-0.8 0-1.8-0.5-1-1.3-1.4-1.4-1.3-0.1 0.2 0.4 0.7 0.8 1.5 0.4 0.9 0.4 1.6 0.6 1.6z"/>
		<path id="Layer" class="s3" d="m349.9 380.3l5.3 16v1.9c0 0-19.2 7-19.5 10.6l37.2 0.2 0.1-9.4-4.5-19.3z"/>
		<path id="Layer" class="s0" d="m366.8 396.7q0.2 0.1 0.4 0.3 0.2 0.1 0.4 0.4 0.1 0.2 0.2 0.5 0 0.3-0.1 0.5 0 0.3-0.2 0.5-0.2 0.3-0.4 0.4-0.2 0.1-0.5 0.2-0.3 0-0.6 0-0.2-0.1-0.5-0.3-0.2-0.2-0.4-0.4-0.1-0.3-0.2-0.6 0-0.3 0-0.6 0.1-0.2 0.3-0.5 0.3-0.2 0.5-0.3 0.3-0.1 0.6-0.1 0.3-0.1 0.6 0"/>
		<path id="Layer" class="s7" d="m372.9 409l-0.1-3-35.6 0.9c0 0-1.6 0.7-1.5 1.9z"/>
		<path id="Layer" class="s4" d="m354.6 398.1c0 0.1 0.9 0.2 1.8 0.8 0.9 0.6 1.4 1.4 1.6 1.3 0.1-0.1-0.1-1.1-1.2-1.8-1.1-0.7-2.2-0.5-2.2-0.4z"/>
		<path id="Layer" class="s4" d="m350.7 399.6c0 0.2 0.8 0.5 1.4 1.3 0.6 0.8 0.8 1.6 1 1.6 0.2 0 0.3-1-0.5-2-0.8-1-1.9-1-1.9-0.9z"/>
		<path id="Layer" class="s4" d="m348.5 404.3c0.2 0 0.4-0.9 0-1.9-0.4-1-1.3-1.4-1.4-1.2-0.1 0.1 0.5 0.7 0.8 1.5 0.4 0.8 0.4 1.6 0.6 1.6z"/>
		<path id="Layer" class="s3" d="m375.3 253.9l-1.4 13.5c0 0-37.9 53.8-38.7 59.8-0.7 6.1 16.8 67.4 16.8 67.4l20.2-3.8-10.6-58.6 33.1-39.9v-37.1z"/>
		<path id="Layer" class="s7" d="m392.6 323.6q0 0 0-0.1 0 0 0-0.1 0-0.1 0-0.1 0-0.1-0.1-0.2 0.1-0.6 0-1.5c0-1.4-0.1-3.2-0.1-5.5-0.2-4.8-0.5-11.2-0.8-18.3v-0.8q0-1.3-0.1-2.5 0-1.2-0.2-2.4-0.2-1.3-0.4-2.5-0.3-1.2-0.6-2.4c-0.7-2.9-1.5-5.5-2.2-7.6-0.7-2.2-1.2-3.9-1.7-5.1q0-0.3-0.1-0.5-0.1-0.2-0.1-0.5-0.1-0.2-0.2-0.4-0.1-0.3-0.2-0.5 0 0.1 0 0.1 0.1 0.1 0.1 0.2 0 0 0 0.1 0 0.1 0 0.1 0.1 0.5 0.4 1.4c0.3 1.3 0.8 3 1.4 5.2 0.7 2.1 1.5 4.7 2.2 7.6q0.3 1.2 0.5 2.4 0.2 1.2 0.4 2.4 0.2 1.2 0.2 2.4 0.1 1.2 0.1 2.5v0.8c0.4 7.1 0.7 13.5 0.9 18.2 0.2 2.3 0.3 4.2 0.4 5.6q0 0.9 0.1 1.5 0 0.1 0 0.1 0 0.1 0 0.2 0 0 0 0.1 0 0.1 0 0.1z"/>
		<path id="Layer" class="s2" d="m383 200.9c3.6-8.4 17.1-26 17.1-26l-0.1 3.2 19.1-8.7 3.5 9.4-28 61.2-1.3 15.2h-18.1c-1-0.1-2.5-4.7-2.3-5.7 1.2-4.3 5.8-16 8-27.2 1.7-8.7-3-9.3 2.1-21.4z"/>
		<path id="Layer" class="s3" d="m379.4 254.6q0-0.1 0-0.2 0-0.1 0.1-0.2 0-0.1 0-0.2 0-0.1 0-0.2 0.1-0.9 0.3-2.3c0.2-2 0.5-4.9 0.9-8.4 0.4-3.4 0.8-7.7 1.3-12.3q0.3-3.5 0.7-7.4 0.2-0.9 0.3-1.9 0.2-1 0.4-1.9 0.1-1 0.4-2 0.2-0.9 0.4-1.9c2.5-10.5 7.3-19.2 10.7-25.4 1.7-3.1 3.1-5.6 3.9-7.5q0.3-0.6 0.5-1.2l0.3-0.9q0-0.1 0.1-0.2 0-0.1 0-0.2 0.1-0.1 0.1-0.2 0-0.1 0-0.2 0 0.1-0.1 0.2 0 0.1-0.1 0.2 0 0.1 0 0.2-0.1 0.1-0.1 0.2l-0.4 0.9-0.5 1.2c-0.8 1.8-2.2 4.3-4 7.3-3.5 6.2-8.3 14.9-10.9 25.5q-0.2 1-0.5 1.9-0.2 1-0.4 2-0.1 0.9-0.3 1.9-0.1 1-0.3 2l-0.7 7.3c-0.4 4.7-0.8 8.9-1.2 12.4q-0.5 5.3-0.7 8.4-0.2 1.4-0.2 2.3 0 0.1 0 0.2 0 0.1 0 0.2 0 0.1 0 0.2 0 0.1 0 0.2z"/>
		<path id="Layer" class="s7" d="m430.3 180.5l-8.1-5.1-1.5-4.1c0 0-15.9 12.1-20.1 19.6-5 8.8-13.6 34.6-13.6 34.6 0 0-2.4 47-1.5 52 0.9 5.1 47.5 0.3 47.7-0.1 0.1-0.5-12.6-43-12.6-43z"/>
		<path id="Layer" class="s3" d="m394.4 214.3c0 0 0.1-0.2 0.4-0.4 0.2-0.2 0.6-0.6 1-1q1.3-1.4 3.4-4.1 0.6-0.8 1.2-1.6 0.5-0.8 1.1-1.6 0.5-0.8 1.1-1.6 0.5-0.9 1-1.7 1.1-2 2.3-4.1 0.5-1.1 1-2.3 0.2-0.2 0.3-0.5 0.1-0.4 0.2-0.7 0.1-0.3 0.2-0.6 0-0.3 0.1-0.7 0-0.2 0-0.4 0-0.2-0.1-0.5 0-0.2-0.1-0.4-0.1-0.2-0.2-0.4l-0.3 0.3q0.3 0.1 0.7 0.1 0.3 0 0.6-0.1 0.3 0 0.6-0.2 0.3-0.1 0.6-0.3 0.3-0.1 0.5-0.3 0.2-0.2 0.5-0.4 0.2-0.2 0.4-0.4 0.2-0.2 0.4-0.4c1-1.2 1.8-2.4 2.7-3.5 1.6-2.2 3.1-4.2 4.4-5.9l2.9-4 0.7-1.1q0.3-0.3 0.3-0.4-0.1 0.1-0.1 0.1-0.1 0.1-0.1 0.1 0 0-0.1 0.1 0 0-0.1 0.1-0.3 0.4-0.8 1l-3 3.8-4.5 5.9c-0.8 1.1-1.7 2.3-2.6 3.4q-0.2 0.2-0.4 0.4-0.2 0.2-0.4 0.4-0.2 0.2-0.5 0.3-0.2 0.2-0.4 0.3-0.3 0.2-0.5 0.3-0.3 0.1-0.5 0.2-0.3 0-0.6 0-0.3 0-0.5 0l-0.6-0.1 0.3 0.5q0.1 0.1 0.2 0.3 0 0.2 0.1 0.4 0 0.2 0 0.4 0 0.2 0 0.3 0 0.4-0.1 0.7-0.1 0.3-0.2 0.5 0 0.3-0.2 0.6-0.1 0.3-0.2 0.6-0.5 1.1-1.1 2.2-1.1 2.1-2.2 4.1-0.5 0.8-1 1.7-0.5 0.8-1 1.6-0.6 0.8-1.1 1.6-0.6 0.9-1.2 1.7c-1.3 1.8-2.4 3.2-3.2 4.1q-0.2 0.2-0.4 0.4-0.1 0.2-0.3 0.4-0.2 0.2-0.3 0.4-0.2 0.2-0.3 0.4z"/>
		<path id="Layer" class="s3" d="m393 185.4q0 0.2 0.1 0.3 0 0.2 0.1 0.4 0 0.1 0.1 0.3 0 0.1 0.1 0.3v0.1l0.2-0.1q0.8-0.8 1.6-1.6 0.9-0.9 1.6-1.7 0.8-0.9 1.6-1.8 0.8-0.8 1.5-1.7l-0.4-0.2q0.1 1.1 0.2 2.3c0.3 2 0.5 4 0.7 5.7l0.1 0.3 0.3-0.2c1.7-1.1 3.2-2.1 4.3-2.8q0.2-0.1 0.4-0.3 0.2-0.1 0.4-0.2 0.2-0.2 0.4-0.3 0.2-0.2 0.3-0.3-0.2 0-0.4 0.1-0.2 0.2-0.4 0.3-0.3 0.1-0.5 0.2-0.2 0.1-0.4 0.3c-1.1 0.6-2.6 1.5-4.4 2.7l0.4 0.1c-0.2-1.7-0.5-3.6-0.7-5.7q-0.1-1.1-0.3-2.2v-0.6l-0.4 0.5c-2.6 3.2-4.9 5.7-6.1 7h0.2q-0.1-0.2-0.1-0.3-0.1-0.2-0.2-0.3-0.1-0.2-0.1-0.3-0.1-0.1-0.2-0.3z"/>
		<path id="Layer" class="s10" d="m425.3 250.3l-39.3-2.7 0.1-3.9 37.8 1.8 1.4 4.8z"/>
		<path id="Layer" class="s10" d="m418.8 202.2l-6.1 13.2 5.2-0.1 0.9-13.1z"/>
		<path id="Layer" class="s5" d="m85.1 45.9l195.8 44.8 111.6 119.2 168.3 2.1 133.3 105.6-18.2 24.3-121.5-100.9-181.1-1.8-111.3-122.3-195.8-44.9 18.9-26.1z"/>
		<path id="Layer" class="s5" d="m82 98.5l-41.6-48.5 59-20.6-17.4 69.1z"/>
		<path id="Layer" class="s6" d="m122 93.5l5.5-7.5-4.5-1c0 0-1-8.4-2.8-9.8-1.7-1.4-2.7-0.2-2.5 1.6 0.3 1.8 1 2.2 1 4q0.1 0.4 0.1 0.7 0 0.4-0.1 0.8 0 0.4 0 0.7-0.1 0.4-0.1 0.8-0.8 0.9-1.4 1.8-0.6 1-1.1 2-0.5 1-0.9 2.1-0.3 1.1-0.5 2.2l0.1 2.3z"/>
		<path id="Layer" class="s6" d="m110.4 82.1l2.3 3.8q-0.3 1.1-0.4 2.2-0.2 1-0.1 2.1 0 1.1 0.1 2.2 0.2 1 0.5 2.1c0.6 1.7-2.1 11-2.1 11l12.2-0.8-0.6-11.5-3-9.3z"/>
		<path id="Layer" class="s8" d="m318.1 183.7c0 0-2-2-1.6-3.4 0.3-1.4 6.6-5 7.5-4.4q0.2 0.1 0.4 0.3 0.1 0.1 0.2 0.3 0.1 0.2 0.1 0.4 0 0.2 0 0.4c0 0.2 3.1-2.1 3.2 0.9q0.4 0 0.6 0.2 0.3 0.2 0.4 0.5 0.2 0.3 0.1 0.6 0 0.3-0.2 0.6-0.3 0.5-0.7 1-0.4 0.5-0.8 1-0.4 0.5-0.8 1-0.5 0.4-0.9 0.8c-0.3 0.3 2-0.5 1.7 2l-0.2 0.6 2 2.9q-0.4 0.4-0.8 0.7-0.5 0.3-1 0.5-0.5 0.1-1 0.1-0.6 0-1.1-0.2c-2.3-0.8-2.1-2-2.1-2q-0.4-0.1-0.7-0.3-0.4-0.1-0.7-0.4-0.3-0.2-0.6-0.5-0.2-0.3-0.4-0.6c-0.2-0.3-2.6 0-2.6-3z"/>
		<path id="Layer" class="s6" d="m261.7 123.6q0.3-1.5 0.3-3 0-1.5-0.4-3-0.4-1.5-1.2-2.8-0.8-1.3-1.9-2.3 0.6-0.7 1-1.5 0.4-0.7 0.6-1.6 0.3-0.8 0.5-1.6 0.1-0.9 0.1-1.8 0-0.2 0-0.4 0-0.1 0-0.3-0.1-0.2-0.1-0.4-0.1-0.2-0.2-0.4 0-0.1-0.2-0.3-0.1-0.1-0.3-0.2-0.1-0.1-0.3-0.2-0.2 0-0.4 0-0.2 0.1-0.5 0.2-0.2 0.1-0.3 0.3-0.2 0.2-0.3 0.5 0 0.2-0.1 0.4c0 0.7 0 1.3 0 2-0.3 1.6-1.8 2.6-3.2 3.6-1.3 0.9-2.7 2.3-2.5 3.9l2 8.4z"/>
		<path id="Layer" class="s8" d="m365.6 230.4c0 0 8.8-3.1 9.9-3.4 1.1-0.3 12.3 3.2 12.3 3.2l-1.4 11.2-2.4-1c0 0-6.9 5.8-9.3 5.5q-0.5 0-0.9-0.2-0.5-0.2-0.8-0.6-0.4-0.3-0.6-0.8-0.2-0.4-0.3-0.9c0-0.3-3.1-0.2-2-3q-0.3-0.2-0.6-0.6-0.2-0.4-0.4-0.9-0.1-0.4-0.1-0.9 0.1-0.4 0.2-0.8c0.1-0.3-2.6-0.8-1.8-2.6q0.2-0.3 0.4-0.7 0.1-0.3 0.3-0.6 0.3-0.4 0.5-0.7 0.2-0.3 0.5-0.6c0.2-0.2-3.3 0.9-3.5-1.6z"/>
		<path id="Layer" class="s7" d="m430.1 180.4c0 0 8.9 5.4 8.9 15.2 0 8.6-2.2 35.5-4.7 42.9-2.5 7.4-7.7 7.2-18.1 6.9-10.6-0.2-31.7-1.8-31.7-1.8l1.5-15.9 30.9-0.2 2.2-27.1"/>
		<path id="Layer" class="s3" d="m419.1 200.4q0 0-0.1 0.5c-0.1 0.3-0.1 0.8-0.1 1.4-0.1 1.2-0.3 3-0.5 5.3-0.4 4.7-1 11.5-1.7 19.8l0.2-0.1-30.9 0.2h-0.2v0.2c-0.5 5-1 10.4-1.4 15.8v0.3h0.2c6.5 0.5 13.3 1 20.2 1.4 6.5 0.3 12.9 0.7 19 0.5q0.6 0 1.2-0.1 0.5 0 1.1-0.1 0.6-0.1 1.2-0.2 0.5-0.1 1.1-0.3 0.5-0.1 1.1-0.3 0.5-0.3 1-0.6 0.5-0.3 0.9-0.6 0.5-0.4 0.9-0.8 0.3-0.4 0.7-0.9 0.3-0.5 0.6-0.9 0.2-0.5 0.5-1 0.2-0.5 0.4-1.1 0.1-0.5 0.3-1 0.1-0.5 0.3-1 0.1-0.6 0.2-1.1 0.1-0.5 0.2-1c1.1-5.6 1.7-10.9 2.2-15.9 0.6-5 0.9-9.7 1.2-13.9q0.2-3.2 0.3-6.1 0-0.7 0-1.4 0-0.7 0-1.3 0-0.7 0-1.4-0.1-0.7-0.2-1.3-0.1-1.1-0.4-2.2-0.3-1-0.8-2-0.4-1-1-2-0.5-0.9-1.2-1.8-0.4-0.5-0.9-1.1-0.4-0.5-0.9-1-0.5-0.5-1-0.9-0.5-0.5-1.1-0.9-0.7-0.6-1.1-0.9-0.1 0-0.1 0-0.1 0-0.1-0.1-0.1 0-0.1 0-0.1-0.1-0.1-0.1l0.3 0.3q0.4 0.3 1.2 0.9 0.5 0.4 1 0.9 0.5 0.4 1 0.9 0.4 0.5 0.9 1.1 0.4 0.5 0.8 1 0.7 0.9 1.2 1.8 0.6 1 1 1.9 0.4 1 0.7 2.1 0.3 1 0.4 2.1 0.1 0.7 0.2 1.3 0 0.7 0 1.4 0 0.7 0 1.3 0 0.7-0.1 1.4-0.1 2.9-0.3 6c-0.3 4.3-0.7 8.9-1.2 13.9-0.5 5-1.1 10.3-2.2 15.9q-0.2 1-0.5 2-0.2 1.1-0.6 2-0.1 0.5-0.4 1-0.2 0.5-0.4 1-0.3 0.4-0.6 0.9-0.3 0.4-0.7 0.8-0.4 0.4-0.8 0.8-0.4 0.3-0.9 0.6-0.4 0.3-0.9 0.5-0.5 0.2-1.1 0.3-0.5 0.2-1.1 0.3-0.5 0.1-1.1 0.2-0.5 0.1-1.1 0.1-0.5 0-1.1 0.1c-6.1 0.1-12.5-0.2-19-0.6-7-0.4-13.7-0.9-20.2-1.3l0.2 0.2c0.5-5.5 1-10.8 1.4-15.8l-0.2 0.2 30.9-0.3h0.2v-0.2c0.6-8.4 1.1-15.1 1.5-19.8q0.2-3.5 0.4-5.4c0-0.6 0-1.1 0-1.4q0.1 0 0.1-0.1 0 0 0-0.1 0-0.1 0-0.1 0-0.1 0-0.1z"/>
		<path id="Layer" class="s3" d="m421.1 191.6q0.3-0.6 0.7-1.2 0.3-0.6 0.7-1.2 0.4-0.6 0.8-1.2 0.4-0.5 0.8-1.1 0.5-0.5 1-1 0.5-0.5 1-0.9 0.6-0.5 1.1-0.9 0.6-0.4 1.2-0.8-1.4 0.5-2.5 1.4-1.2 0.8-2.2 1.9-0.9 1.1-1.6 2.3-0.6 1.3-1 2.7z"/>
		<path id="Layer" class="s3" d="m421.3 232.9q-0.2-0.9-0.6-1.8-0.4-0.9-0.9-1.6-0.6-0.8-1.4-1.4-0.8-0.5-1.7-0.9 0.4 0.3 0.7 0.6 0.3 0.3 0.7 0.7 0.3 0.3 0.6 0.6 0.3 0.3 0.7 0.7 0.2 0.3 0.5 0.7 0.2 0.4 0.5 0.8 0.2 0.4 0.4 0.8 0.2 0.4 0.5 0.8z"/>
		<path id="Layer" class="s3" d="m135.3 358.7l5.2 16 0.1 1.9c0 0-19.3 7-19.5 10.5l37.2 0.2 0.1-9.3-4.6-19.3z"/>
		<path id="Layer" class="s0" d="m152.1 375q0.3 0.1 0.5 0.3 0.2 0.1 0.3 0.4 0.2 0.2 0.2 0.5 0.1 0.3 0 0.5-0.1 0.3-0.3 0.5-0.1 0.2-0.4 0.4-0.2 0.1-0.5 0.2-0.2 0-0.5-0.1-0.3 0-0.5-0.2-0.3-0.2-0.4-0.5-0.2-0.2-0.2-0.5-0.1-0.3 0-0.6 0.1-0.3 0.3-0.5 0.2-0.2 0.5-0.3 0.2-0.2 0.5-0.2 0.3 0 0.6 0.1"/>
		<path id="Layer" class="s7" d="m158.3 387.4l-0.1-3-35.6 0.9c0 0-1.7 0.7-1.5 1.9z"/>
		<path id="Layer" class="s4" d="m140 376.4c0 0.2 0.9 0.3 1.8 0.9 0.9 0.6 1.4 1.3 1.5 1.2 0.2 0-0.1-1.1-1.2-1.8-1-0.7-2.1-0.5-2.1-0.3z"/>
		<path id="Layer" class="s4" d="m136.1 378c-0.1 0.2 0.7 0.5 1.3 1.3 0.7 0.7 0.8 1.5 1 1.5 0.3 0 0.3-1-0.4-2-0.8-1-1.9-1-1.9-0.8z"/>
		<path id="Layer" class="s4" d="m133.9 382.6c0.1 0 0.4-0.8 0-1.8-0.5-1-1.4-1.4-1.4-1.3-0.1 0.2 0.4 0.7 0.8 1.5 0.3 0.9 0.4 1.6 0.6 1.6z"/>
		<path id="Layer" class="s3" d="m215.1 361.6l6.5 13.1v1.9c0 0-19.3 7-19.5 10.6l37.2 0.2 0.1-9.4-8.1-19.3z"/>
		<path id="Layer" class="s0" d="m233.2 375q0.2 0.1 0.4 0.3 0.3 0.1 0.4 0.4 0.1 0.2 0.2 0.5 0 0.3 0 0.5-0.1 0.3-0.3 0.5-0.2 0.2-0.4 0.4-0.2 0.1-0.5 0.2-0.3 0-0.5-0.1-0.3 0-0.6-0.2-0.2-0.2-0.3-0.5-0.2-0.2-0.2-0.5-0.1-0.3 0-0.6 0.1-0.3 0.3-0.5 0.2-0.2 0.4-0.3 0.3-0.2 0.6-0.2 0.3 0 0.6 0.1"/>
		<path id="Layer" class="s7" d="m239.3 387.4l-0.1-3-35.6 0.9c0 0-1.6 0.7-1.4 1.9z"/>
		<path id="Layer" class="s4" d="m221.1 376.4c0 0.2 0.9 0.3 1.8 0.9 0.8 0.6 1.3 1.3 1.5 1.2 0.1 0-0.1-1.1-1.2-1.8-1.1-0.7-2.2-0.5-2.1-0.3z"/>
		<path id="Layer" class="s4" d="m217.1 378c0 0.2 0.8 0.5 1.4 1.3 0.6 0.7 0.8 1.5 1 1.5 0.2 0 0.3-1-0.5-2-0.7-1-1.8-1-1.9-0.8z"/>
		<path id="Layer" class="s4" d="m214.9 382.6c0.2 0 0.4-0.8 0-1.8-0.4-1-1.3-1.4-1.4-1.3-0.1 0.2 0.5 0.7 0.8 1.5 0.4 0.9 0.4 1.6 0.6 1.6z"/>
		<path id="Layer" class="s3" d="m175.7 231.9l34.2-4.2 1.4 5q0.7 1.9 1.2 3.8 0.6 1.8 1 3.7 0.4 1.9 0.7 3.9 0.2 1.9 0.3 3.9c1.4 22.6 1.5 58 1.5 58l24.5 65.6-22.7 4.1-30.9-68.1-8.1-47.3z"/>
		<path id="Layer" class="s3" d="m155.2 230.4c0 0.3-0.1 5.1-0.1 5.1-10.2 14-35.9 55.8-37.4 62.7-1.9 8.6 18.4 75.9 18.4 75.9l23.6-3.3-16.8-63.6 36.4-44.6-1.6-30.6z"/>
		<path id="Layer" class="s7" d="m210.2 232.4l-8.1 1.5-0.7-4.2 7.9-1.2 0.9 3.9z"/>
		<path id="Layer" class="s7" d="m200.1 234.2l-12 1.7-1-4.2 12-1.5 1 4z"/>
		<path id="Layer" class="s7" d="m186.4 236.2l-0.8-4.2q-1.3 0.2-2.6 0.4-1.3 0.2-2.6 0.3-1.3 0.1-2.6 0.2-1.3 0.1-2.7 0.1c-3.8 0-11.8-1-11.8-1v4.4q1.5 0.2 3 0.3 1.5 0.1 3 0.2 1.5 0.1 3 0.1 1.5 0.1 3 0.1c3.9-0.3 11.1-0.9 11.1-0.9z"/>
		<path id="Layer" class="s7" d="m161.6 236.2v-4.2l-6.4-0.8-0.1 4.3z"/>
		<path id="Layer" class="s7" d="m174.6 255.2q0.3 0.8 0.6 1.6 0.4 0.8 0.8 1.6 0.3 0.7 0.7 1.5 0.4 0.8 0.8 1.5 0.4 0.8 0.8 1.6 0.4 0.7 0.8 1.5 0.5 0.7 0.9 1.5 0.5 0.7 0.9 1.4-0.3-0.8-0.6-1.6-0.4-0.8-0.7-1.5-0.4-0.8-0.8-1.6-0.4-0.8-0.9-1.5-0.3-0.8-0.7-1.5-0.4-0.8-0.8-1.6-0.4-0.7-0.9-1.4-0.4-0.8-0.9-1.5z"/>
		<path id="Layer" class="s7" d="m196.7 238.3q0.1 0.3 0.3 0.6 0.1 0.2 0.3 0.5 0.1 0.3 0.3 0.6 0.2 0.2 0.4 0.5 0.4 0.6 0.9 1.2 0.5 0.6 1 1.2 0.5 0.5 1.1 1.1 0.5 0.5 1.1 1 0.6 0.5 1.2 0.9 0.7 0.5 1.3 0.9 0.7 0.4 1.4 0.7 0.6 0.4 1.3 0.7 0.3 0.1 0.6 0.2 0.3 0.1 0.6 0.2 0.3 0.1 0.6 0.2 0.3 0.1 0.7 0.1-2-0.8-3.9-1.9-1.8-1.1-3.5-2.4-1.6-1.4-3-3-1.5-1.5-2.6-3.3z"/>
		<path id="Layer" class="s7" d="m136.3 302.6c-0.1 0.1 1.7 1 3.5 2.6 1.7 1.5 2.8 3.2 3 3.1q-0.2-0.5-0.5-1-0.3-0.5-0.6-0.9-0.3-0.5-0.7-0.9-0.4-0.4-0.9-0.7-0.4-0.4-0.8-0.7-0.5-0.4-1-0.7-0.4-0.2-1-0.4-0.5-0.3-1-0.4z"/>
		<path id="Layer" class="s0" d="m266.3 126c-0.2 0.7-2.6 33.8-7.8 37.3-5.1 3.4-50.4 11.6-50.4 11.6l1.4-27.9 12.2 4.5 24.8-3.3 8.2-26.4z"/>
		<path id="Layer" class="s0" d="m214.1 173.2l-2.1 48.3 0.3 1c0.6 1.8-0.9 4.8-2.8 5.3-7.6 1.8-25.1 4.7-34 5.1q-2.6 0.1-5.1 0-2.6-0.1-5.1-0.4-2.6-0.3-5.1-0.8-2.5-0.5-4.9-1.3c-1.5-1.6-2.5-4.3-0.9-5.7l-1.5-57.6 2.7-17.5 2.2-2.8 13.6 0.4 4-4.3 19.4-1.4 3.6 4.7 11.1 0.8z"/>
		<path id="Layer" class="s10" d="m180.9 167.7l6.2 52.6-9.8 9.4-7.6-9.4 11.2-52.6z"/>
		<path id="Layer" class="s5" d="m179.9 157.7l5.1 61.2-8.3 9.2-7-7.8c0 0 4.2-43.8 5.3-51.5 1.1-8.6 1.6-11.6 1.6-11.6z"/>
		<path id="Layer" class="s0" d="m123.7 98.5l3 27.3 17.5 16.2c5.8 1.2 14.4 4.7 14.4 5.4l-5.2 28.7-8.1-10.8c0 0-32.4-25-33.8-29.6-1.3-4.7-1.7-37.2-1.7-37.2z"/>
		<path id="Layer" class="s3" d="m179.3 151.2q0.1 0.3 0.2 0.5 0.1 0.2 0.2 0.4 0.1 0.2 0.2 0.5 0.1 0.2 0.3 0.4l1.1 1.9 0.7 1.2q0.1 0.1 0.2 0.3 0.2 0.2 0.3 0.3 0.1 0.2 0.2 0.4 0.1 0.1 0.2 0.3l0.2 0.1 0.1-0.1 4.6-3.2c2.8-2 5.4-3.8 7.3-5.2 0.9-0.6 1.6-1.2 2.1-1.6q0.1-0.1 0.2-0.1 0.1-0.1 0.2-0.2 0.1-0.1 0.2-0.2 0.1 0 0.2-0.1-0.1 0-0.2 0.1-0.2 0-0.3 0.1-0.1 0-0.2 0.1-0.1 0.1-0.2 0.1c-0.5 0.4-1.3 0.9-2.2 1.5-1.9 1.3-4.6 3.1-7.4 5.1-1.6 1.1-3.2 2.2-4.5 3.2h0.2q-0.2-0.3-0.4-0.6-0.2-0.2-0.4-0.5-0.2-0.3-0.4-0.6-0.2-0.3-0.4-0.6l-1.2-1.9q-0.1-0.2-0.2-0.4-0.2-0.2-0.3-0.4-0.2-0.2-0.3-0.4-0.2-0.2-0.3-0.4z"/>
		<path id="Layer" class="s5" d="m179.8 159l2.1-3.1-2.1-3.6h-1.8l-2.8 2.8 1.2 3.5 3.4 0.4z"/>
		<path id="Layer" class="s3" d="m172.3 148.2q0 0.2 0 0.5 0 0.3 0 0.5 0 0.3 0 0.6 0.1 0.2 0.1 0.5 0.1 0.6 0.3 1.3 0.1 0.6 0.3 1.2 0.2 0.7 0.4 1.3 0.2 0.6 0.5 1.2 0.1 0.3 0.2 0.6l0.2 0.3 0.2-0.2c1.4-1.3 2.6-2.5 3.4-3.3q0.2-0.2 0.4-0.4 0.2-0.1 0.3-0.3 0.2-0.2 0.3-0.4 0.2-0.2 0.3-0.4-0.2 0.1-0.4 0.3-0.2 0.1-0.4 0.3-0.2 0.1-0.4 0.3-0.1 0.1-0.3 0.3c-0.9 0.8-2.1 1.9-3.5 3.2l0.4 0.1q-0.1-0.3-0.3-0.6-0.3-0.8-0.6-1.7-0.3-0.9-0.5-1.7-0.3-0.9-0.5-1.8-0.2-0.9-0.4-1.7z"/>
		<path id="Layer" class="s3" d="m120 131.2c0.1 0.1 1.4-1.4 3.3-2.7 1.9-1.3 3.6-2 3.6-2.1q-0.5 0-1.1 0.2-0.5 0.2-1 0.4-0.5 0.2-0.9 0.5-0.5 0.3-0.9 0.6-0.5 0.3-0.9 0.6-0.4 0.4-0.8 0.7-0.4 0.4-0.7 0.9-0.3 0.4-0.6 0.9z"/>
		<path id="Layer" class="s3" d="m210.4 150.3q-0.1 0.1-0.1 0.2 0 0.1-0.1 0.3 0 0.1 0 0.2 0 0.1 0 0.2-0.2 0.9-0.3 2.5 0 1.1 0 2.1 0 1.1 0.1 2.1 0.1 1.1 0.2 2.1 0.2 1.1 0.3 2.1 0.2 1 0.5 2.1 0.3 1 0.6 2 0.3 1 0.6 2 0.4 0.9 0.8 1.9 0.7 1.5 1.2 2.3 0 0.1 0.1 0.2 0 0.1 0.1 0.2 0.1 0.1 0.1 0.2 0.1 0.1 0.2 0.1c0.1 0-0.5-1.2-1.3-3.1q-0.4-1-0.8-2-0.3-1-0.6-2-0.3-1-0.5-2-0.3-1-0.5-2-0.2-1-0.3-2-0.2-1.1-0.3-2.1-0.1-1-0.1-2.1 0-1 0-2c0-2.2 0.1-3.5 0.1-3.5z"/>
		<path id="Layer" class="s3" d="m153.1 177.3q0.1-0.2 0.1-0.3 0-0.1 0-0.3 0-0.1 0-0.3 0-0.1 0-0.2v-3.1c0-2.6 0.1-6.2 0.4-10.1q0.1-1.2 0.2-2.5 0.1-1.2 0.3-2.5 0.2-1.2 0.5-2.5 0.2-1.2 0.5-2.4c0.7-2.5 1.5-3.9 1.4-4q-0.1 0.2-0.1 0.3-0.1 0.1-0.2 0.2-0.1 0.2-0.1 0.3-0.1 0.1-0.2 0.2-0.1 0.4-0.3 0.8-0.1 0.3-0.3 0.7-0.1 0.3-0.2 0.7-0.2 0.4-0.3 0.7-0.3 1.2-0.6 2.5-0.3 1.2-0.5 2.5-0.3 1.2-0.4 2.5-0.1 1.3-0.2 2.5c-0.3 4-0.3 7.6-0.3 10.1 0 1.3 0.1 2.4 0.2 3.1q0 0.1 0 0.3 0 0.1 0 0.3 0 0.1 0.1 0.2 0 0.1 0 0.3z"/>
		<path id="Layer" class="s3" d="m214.1 162.1c0.1 0 1.4-2.7 3-5.9 1.6-3.2 3.1-5.8 3-5.9q-0.5 0.7-1 1.4-0.4 0.7-0.9 1.4-0.4 0.7-0.8 1.4-0.4 0.7-0.7 1.5-0.4 0.7-0.8 1.5-0.3 0.7-0.7 1.5-0.3 0.7-0.6 1.5-0.3 0.8-0.5 1.6z"/>
		<path id="Layer" class="s3" d="m245.9 148.4q-0.2 1.2-0.2 2.4-0.1 1.2 0 2.3 0.2 1.2 0.5 2.3 0.3 1.2 0.7 2.3c0.1 0-0.4-2-0.7-4.6-0.2-2.6-0.2-4.6-0.3-4.7z"/>
		<path id="Layer" class="s10" d="m192.9 150.3l-10.1 9.1-4.8-7.2 1.3-0.7 3.8 5.7 9.8-6.4"/>
		<path id="Layer" class="s3" d="m185 227.6q0.1 0 0.2 0 0.1 0 0.3 0 0.1 0 0.2 0 0.1 0 0.2 0c0.6 0 1.4-0.1 2.5-0.2q1-0.1 2-0.3 1-0.1 2-0.3 1-0.1 2.1-0.4 1-0.2 1.9-0.4 1-0.2 2-0.5 1-0.3 2-0.5 1-0.3 2-0.7 0.9-0.3 1.9-0.7 1.5-0.5 2.3-0.9 0.1 0 0.2-0.1 0.1 0 0.2-0.1 0.1 0 0.2-0.1 0.1 0 0.2-0.1-0.4 0.1-0.8 0.2-0.4 0.1-0.8 0.3-0.4 0.1-0.8 0.2-0.4 0.2-0.8 0.3c-2 0.7-4.8 1.5-7.9 2.2-3.1 0.7-5.9 1.2-8 1.5q-0.4 0.1-0.8 0.1-0.4 0.1-0.8 0.2-0.5 0-0.9 0.1-0.4 0.1-0.8 0.2z"/>
		<path id="Layer" class="s3" d="m187.1 95.2q-0.3-0.5-0.7-1-0.4-0.4-0.9-0.6-0.6-0.3-1.2-0.4-0.6-0.1-1.2 0-0.7-0.5-1.5-0.8-0.8-0.3-1.7-0.3-0.9 0-1.7 0.3-0.9 0.3-1.6 0.8c-0.6-0.4-1.4-0.7-2.2-0.7-0.9 0-1.7 0.2-2.4 0.5-0.7 0.4-1.3 0.9-1.7 1.6-0.5 0.7-0.7 1.5-0.8 2.3-0.8-0.2-1.6 0-2.4 0.3-0.7 0.4-1.3 0.9-1.7 1.7-0.4 0.7-0.6 1.5-0.5 2.3 0.1 0.8 0.5 1.6 1.1 2.2-0.9 0.3-1.7 0.9-2.2 1.7-0.4 0.8-0.6 1.7-0.4 2.6 0.1 0.9 0.6 1.7 1.4 2.3 0.7 0.6 1.7 0.8 2.6 0.7l18.9-11.1q0.5-0.4 0.7-1 0.3-0.5 0.4-1.1 0.1-0.6 0.1-1.2-0.1-0.6-0.4-1.1z"/>
		<path id="Layer" class="s6" d="m173.8 144.6v-3c0 0-8.5-1.5-8.5-10.1 0-4.1 0.8-12.6 1.6-20.3 0.2-2 0.8-3.9 1.7-5.7 0.9-1.8 2.1-3.4 3.6-4.7 1.5-1.3 3.2-2.3 5.1-3 1.8-0.7 3.8-1 5.8-1h0.8c8.9 0.7 13.3 8.7 12.4 17.6l-1.5 27-15.4 8.8"/>
		<path id="Layer" class="s11" d="m173.8 141.6q1.4 0.1 2.9-0.1 1.5-0.2 2.9-0.6 1.4-0.4 2.8-1 1.3-0.6 2.6-1.3c0.8-0.6-2.8 6.1-11.2 5.2z"/>
		<path id="Layer" class="s3" d="m170.7 119.6q0 0.2 0.1 0.4 0 0.3 0.2 0.4 0.2 0.2 0.4 0.3 0.2 0.1 0.4 0.1 0.3 0.1 0.5 0 0.2-0.1 0.4-0.2 0.2-0.2 0.3-0.4 0.1-0.2 0.1-0.4 0-0.3-0.1-0.5 0-0.2-0.2-0.4-0.2-0.2-0.4-0.3-0.2-0.1-0.4-0.1-0.3 0-0.5 0-0.2 0.1-0.4 0.3-0.2 0.1-0.3 0.3-0.1 0.2-0.1 0.5z"/>
		<path id="Layer" class="s3" d="m168.5 115.9c0.2 0.1 1.1-0.5 2.4-0.5 1.3 0 2.3 0.7 2.4 0.5 0.2-0.1 0-0.3-0.5-0.6q-0.2-0.2-0.4-0.3-0.2-0.1-0.5-0.2-0.2-0.1-0.5-0.1-0.2-0.1-0.5-0.1-0.2 0-0.5 0.1-0.2 0-0.5 0.1-0.2 0-0.5 0.2-0.2 0.1-0.4 0.2c-0.4 0.3-0.5 0.6-0.5 0.7z"/>
		<path id="Layer" class="s3" d="m182.6 119.8q0 0.2 0.1 0.5 0.1 0.2 0.2 0.4 0.2 0.1 0.4 0.2 0.2 0.1 0.5 0.2 0.2 0 0.4-0.1 0.3-0.1 0.4-0.2 0.2-0.2 0.3-0.4 0.1-0.2 0.2-0.4 0-0.2-0.1-0.5-0.1-0.2-0.3-0.4-0.1-0.1-0.3-0.3-0.3-0.1-0.5-0.1-0.2 0-0.5 0.1-0.2 0-0.4 0.2-0.1 0.1-0.3 0.4-0.1 0.2-0.1 0.4z"/>
		<path id="Layer" class="s3" d="m181.1 116c0.2 0.2 1.1-0.5 2.4-0.5 1.3 0.1 2.3 0.7 2.4 0.6 0.2-0.2-0.1-0.4-0.5-0.7q-0.2-0.2-0.4-0.3-0.2-0.1-0.5-0.2-0.2 0-0.5-0.1-0.2 0-0.5 0-0.2 0-0.5 0-0.3 0-0.5 0.1-0.2 0.1-0.5 0.2-0.2 0.1-0.4 0.2c-0.4 0.3-0.6 0.6-0.5 0.7z"/>
		<path id="Layer" class="s3" d="m176.6 125.6q-0.3-0.1-0.5-0.1-0.3-0.1-0.6-0.2-0.2 0-0.5-0.1-0.3 0-0.5 0c-0.4 0-0.7-0.1-0.7-0.4q-0.1-0.1-0.1-0.2 0.1-0.2 0.1-0.3 0-0.1 0.1-0.2 0-0.1 0.1-0.3 0.5-1.2 1-2.5 0.4-0.8 0.7-1.6 0.3-0.8 0.6-1.7 0.3-0.8 0.6-1.7 0.2-0.8 0.5-1.6-0.5 0.7-0.9 1.5-0.4 0.8-0.7 1.6-0.4 0.8-0.7 1.6-0.3 0.9-0.6 1.7l-1 2.5q-0.1 0.2-0.2 0.4 0 0.1-0.1 0.3 0 0.2 0 0.3 0 0.2 0.1 0.4 0 0 0.1 0.1 0 0.1 0.1 0.2 0 0 0.1 0.1 0.1 0 0.2 0.1 0.1 0 0.1 0 0.1 0 0.2 0 0.1 0 0.1 0 0.1 0 0.2 0 0.2 0.1 0.5 0.1 0.3 0 0.6 0.1 0.3 0 0.5 0 0.3-0.1 0.6-0.1z"/>
		<path id="Layer" class="s3" d="m181.2 112.2c0.1 0.3 1.3 0.1 2.6 0.1 1.4 0.1 2.6 0.4 2.7 0 0.1-0.1-0.2-0.5-0.6-0.8q-0.3-0.1-0.5-0.2-0.2-0.1-0.5-0.2-0.2-0.1-0.5-0.1-0.3 0-0.5-0.1-0.3 0-0.5 0.1-0.3 0-0.6 0.1-0.2 0-0.5 0.1-0.2 0.1-0.4 0.2c-0.6 0.3-0.8 0.6-0.7 0.8z"/>
		<path id="Layer" class="s3" d="m168.9 112.3c0.2 0.3 1.1 0.1 2.2 0.2 1.1 0.1 2 0.4 2.2 0.1 0.3-0.3 0-0.5-0.3-0.8q-0.4-0.3-0.9-0.5-0.4-0.1-0.9-0.2-0.5 0-0.9 0.1-0.5 0.1-0.9 0.4c-0.4 0.2-0.6 0.5-0.5 0.7z"/>
		<path id="Layer" class="s3" d="m167.8 107.3c0 0 2.3-5.3 5-6.5 3.1-1.5 4.4 2 7.4 1.2 3-0.7 6-2.1 9 0.2 3.3 2.6 1.7 4.4 1.8 8.2 0.6 15.4 3.3 19.8 4.2 12.6 0.1-0.8 2.4-1.4 2.7-4.8 0.6-4.3 0.8-9.6-0.1-12.7-0.7-2.6-2.2-4.5-4.8-6.5-4.1-3.2-9.9-3.4-13.8-3.1-4 0.3-11.6 4.7-11.4 11.4z"/>
		<path id="Layer" class="s6" d="m194.7 122.7q0-0.5 0.2-0.9 0.2-0.4 0.6-0.7 0.3-0.3 0.8-0.5 0.5-0.1 0.9-0.1c1.6 0.2 3.4 1.2 3.2 4.5-0.3 5.8-6.1 4.3-6.1 4.1 0-0.2 0.2-3.9 0.4-6.4z"/>
		<path id="Layer" class="s11" d="m195.7 127c0 0 0.1 0.1 0.2 0.2q0.1 0 0.2 0 0.1 0.1 0.2 0.1 0.1 0 0.2 0 0.1 0 0.2-0.1 0.3-0.1 0.5-0.4 0.3-0.2 0.5-0.5 0.1-0.3 0.2-0.6 0.1-0.4 0.1-0.7 0-0.2 0-0.4 0-0.2 0-0.3 0-0.2-0.1-0.4 0-0.2-0.1-0.4 0-0.1-0.1-0.2-0.1-0.2-0.2-0.3-0.1-0.1-0.2-0.2-0.1 0-0.2-0.1-0.1 0-0.2 0-0.1 0-0.2 0-0.1 0-0.1 0.1-0.1 0.1-0.2 0.1c0 0.2 0 0.3 0 0.3-0.1 0.1-0.2-0.1-0.1-0.3q0-0.1 0-0.1 0.1-0.1 0.1-0.1 0 0 0.1-0.1 0 0 0-0.1 0.1 0 0.2 0 0.1-0.1 0.1-0.1 0.1 0 0.2 0 0 0 0.1 0 0.2 0.1 0.4 0.2 0.1 0.1 0.3 0.2 0.1 0.1 0.2 0.3 0.1 0.1 0.1 0.3 0.1 0.2 0.2 0.4 0 0.2 0.1 0.4 0 0.2 0 0.4 0 0.3 0 0.5 0 0.4-0.1 0.7-0.1 0.4-0.3 0.7-0.3 0.4-0.6 0.6-0.3 0.3-0.6 0.4-0.1 0-0.3 0-0.1 0.1-0.2 0-0.1 0-0.2-0.1-0.2 0-0.3-0.1c-0.1-0.2-0.1-0.3-0.1-0.3z"/>
		<path id="Layer" class="s3" d="m194.8 111.4q-0.3 0.2-0.6 0.4-0.3 0.1-0.6 0.3-0.3 0.1-0.6 0.2-0.4 0.1-0.7 0.2-0.4 0-0.7-0.1-0.3 0-0.6-0.2-0.3-0.2-0.5-0.5-0.2-0.3-0.3-0.6c-0.1-0.4 0-0.9-0.2-1.2-0.2-0.3-0.9-0.3-1.4-0.3q-0.7 0.1-1.3-0.1-0.6-0.2-1.1-0.6-0.5-0.3-0.9-0.9-0.4-0.5-0.5-1.1-0.2 0.2-0.5 0.3-0.3 0.2-0.6 0.2-0.2 0-0.5-0.1-0.3-0.1-0.5-0.2-0.3-0.2-0.5-0.4-0.2-0.3-0.4-0.5-0.2-0.2-0.4-0.4-0.1-0.2-0.3-0.5-0.2-0.2-0.4-0.4-0.2-0.2-0.5-0.3-0.2-0.2-0.5-0.2-0.3-0.1-0.6-0.1-0.2 0.1-0.3 0.1-0.2 0-0.3 0.1-0.2 0-0.4 0-0.1 0.1-0.3 0.1c-0.8-0.1-1.1-1-1.2-1.8-0.1-0.7-0.2-1.6-0.8-2.1q-0.3-0.1-0.5-0.1-0.3-0.1-0.6-0.1-0.2 0-0.5 0-0.3 0-0.5 0.1c-0.7 0.1-1.6-0.1-1.8-0.8q0-0.1 0-0.2 0-0.2 0-0.3 0.1-0.2 0.1-0.3 0.1-0.1 0.2-0.2 0.3-0.5 0.9-0.9 0.5-0.4 1.1-0.6 0.6-0.2 1.3-0.1 0.6 0 1.2 0.2c0.3-0.9 0.9-1.8 1.7-2.4 0.8-0.6 1.7-1 2.8-1.1 1-0.1 2 0.1 2.9 0.6 0.9 0.5 1.6 1.2 2 2.1 0.7-0.5 1.4-0.9 2.3-1.1 0.8-0.2 1.6-0.2 2.4 0 0.9 0.2 1.6 0.6 2.2 1.2 0.7 0.5 1.1 1.2 1.4 2 0.8-0.2 1.5-0.1 2.2 0.1 0.7 0.3 1.3 0.7 1.8 1.3 0.4 0.6 0.7 1.3 0.7 2.1 0 0.7-0.1 1.5-0.5 2.1q0.4 0.2 0.7 0.5 0.4 0.3 0.6 0.7 0.3 0.4 0.4 0.8 0.2 0.4 0.2 0.9 0 0.4-0.2 0.8-0.2 0.4-0.5 0.7-0.4 0.3-0.8 0.4-0.4 0.2-0.9 0.1c0.2 0.5 0.3 1 0.1 1.5-0.2 0.5-0.5 0.9-1 1.2-0.4 0.2-1 0.3-1.5 0.1-0.5-0.1-0.9-0.4-1.2-0.8"/>
		<path id="Layer" class="s11" d="m179.8 127.8q0-0.1 0.1-0.1 0 0 0.1 0 0 0 0.1 0 0 0 0.1 0 0 0 0.1 0.1 0 0 0 0 0 0.1 0.1 0.1 0 0 0 0.1 0.1 0.3 0.2 0.7 0 0.4 0 0.7 0 0.4-0.2 0.8-0.1 0.3-0.3 0.6-0.4 0.4-0.8 0.6-0.5 0.2-1 0.1-0.5-0.1-0.9-0.4-0.4-0.3-0.6-0.7l-0.5-1z"/>
		<path id="Layer" class="s3" d="m177.1 130.9c-0.1 0 0.4 0.6 1.4 0.7q0.1 0 0.2 0 0.2 0 0.3 0 0.1 0 0.2 0 0.1-0.1 0.2-0.1 0.1-0.1 0.2-0.1 0.1-0.1 0.2-0.2 0.1 0 0.2-0.1 0.1-0.1 0.2-0.2 0.1-0.2 0.3-0.5 0.1-0.3 0.2-0.5 0-0.3 0.1-0.6 0-0.3 0-0.6 0 0 0-0.1 0-0.1 0-0.1 0-0.1 0-0.2 0-0.1 0-0.1 0-0.1-0.1-0.2 0-0.1 0-0.2-0.1 0-0.1-0.1-0.1-0.1-0.2-0.1 0-0.1-0.1-0.1-0.1 0-0.2 0-0.1 0-0.2 0-0.1 0-0.1 0.1-0.3 0.1-0.5 0.2l-1.5 0.8q-0.2 0.1-0.4 0.2-0.2 0.1-0.4 0.2-0.1 0.1-0.3 0.2-0.2 0.1-0.3 0.2 0.2 0 0.4-0.1 0.2 0 0.3-0.1 0.2-0.1 0.4-0.2 0.2-0.1 0.4-0.2l1.6-0.7c0.2-0.1 0.6-0.4 0.7-0.2 0.2 0.1 0.2 0.5 0.2 0.8q0.1 0.3 0 0.5 0 0.3-0.1 0.5 0 0.3-0.1 0.5-0.1 0.2-0.2 0.4-0.1 0.1-0.2 0.2-0.1 0.1-0.1 0.1-0.1 0.1-0.2 0.2-0.1 0-0.2 0-0.1 0.1-0.2 0.1-0.1 0.1-0.1 0.1-0.1 0-0.2 0-0.1 0-0.2 0-0.2 0-0.4 0-0.2-0.1-0.4-0.1-0.2-0.1-0.4-0.1-0.2-0.1-0.3-0.2z"/>
		<path id="Layer" class="s7" d="m198.6 109.2q0 0.1 0 0.3 0 0.1-0.1 0.3 0 0.1-0.1 0.3-0.1 0.1-0.2 0.2-0.1 0.1-0.2 0.3-0.2 0.1-0.3 0.2-0.2 0.1-0.4 0.1-0.1 0.1-0.3 0.1-0.2 0-0.4 0-0.3 0-0.5-0.1-0.2 0-0.4-0.2-0.2-0.1-0.4-0.2h0.3q-0.1 0.2-0.3 0.4-0.1 0.2-0.3 0.3-0.1 0.2-0.3 0.4-0.1 0.2-0.3 0.3-0.1 0.1-0.3 0.2-0.1 0.1-0.2 0.2-0.2 0.1-0.3 0.1-0.1 0.1-0.3 0.2-0.1 0-0.3 0-0.1 0.1-0.3 0.1-0.1 0-0.3 0-0.1 0-0.3-0.1-0.2 0-0.5-0.1-0.2 0-0.4-0.2-0.2-0.1-0.4-0.3-0.2-0.2-0.3-0.4-0.1-0.1-0.2-0.3-0.1-0.1-0.1-0.3-0.1-0.1-0.1-0.3-0.1-0.1-0.1-0.3 0 0 0-0.1 0-0.1 0-0.1 0-0.1 0-0.1 0-0.1 0-0.2c0 0 0.1 0.2 0.2 0.5q0 0.1 0.1 0.3 0 0.1 0.1 0.3 0 0.1 0.1 0.2 0.1 0.2 0.2 0.3 0.3 0.4 0.8 0.6 0.4 0.2 0.9 0.3 0.5 0 1-0.2 0.4-0.2 0.8-0.5 0.2-0.2 0.3-0.3 0.2-0.2 0.3-0.4 0.2-0.1 0.3-0.3 0.1-0.2 0.2-0.4l0.1-0.2 0.2 0.2q0.1 0.1 0.3 0.2 0.2 0.1 0.3 0.2 0.2 0 0.4 0.1 0.2 0 0.4 0 0.2-0.1 0.3-0.1 0.1 0 0.3-0.1 0.1-0.1 0.2-0.2 0.2-0.1 0.3-0.2 0.1-0.1 0.1-0.2 0.1-0.1 0.2-0.3 0-0.1 0.1-0.2 0-0.2 0.1-0.3z"/>
		<path id="Layer" class="s7" d="m187.8 95.6c0 0-0.2 0-0.4 0.1q-0.2 0.1-0.3 0.2-0.1 0-0.2 0.1-0.2 0.1-0.3 0.3-0.1 0.1-0.1 0.2l-0.1 0.1-0.1-0.1q-0.3-0.4-0.6-0.7-0.3-0.4-0.6-0.7-0.4-0.3-0.8-0.5-0.4-0.3-0.8-0.5-0.2-0.1-0.5-0.2-0.3-0.1-0.6-0.2-0.3 0-0.6-0.1-0.3 0-0.6 0-0.3 0-0.6 0-0.3 0.1-0.7 0.1-0.3 0.1-0.6 0.3-0.3 0.1-0.6 0.3-0.2 0.1-0.4 0.2-0.2 0.2-0.4 0.4-0.2 0.1-0.3 0.3-0.2 0.2-0.4 0.4-0.1 0.2-0.2 0.4-0.1 0.2-0.2 0.4-0.1 0.3-0.2 0.5 0 0.2 0 0.5v0.2h-0.2q-0.3-0.1-0.6-0.2-0.3 0-0.7 0-0.3 0.1-0.6 0.2-0.3 0-0.5 0.2-0.3 0.1-0.5 0.3-0.2 0.1-0.3 0.3-0.2 0.2-0.4 0.4-0.1 0.2-0.2 0.4-0.1 0.2-0.2 0.4-0.1 0.2-0.1 0.4-0.1 0.3-0.1 0.5 0 0.2 0 0.4 0 0 0-0.1-0.1-0.1-0.1-0.1 0-0.1 0-0.1 0-0.1 0-0.2 0-0.1 0-0.3 0.1-0.2 0.1-0.3 0-0.2 0.1-0.4 0-0.1 0.1-0.3 0.1-0.2 0.3-0.5 0.1-0.2 0.3-0.4 0.2-0.2 0.4-0.3 0.2-0.2 0.4-0.3 0.3-0.2 0.6-0.3 0.4-0.1 0.7-0.2 0.4 0 0.7 0 0.3 0.1 0.7 0.2l-0.2 0.1q0-0.3 0.1-0.5 0-0.3 0.1-0.5 0.1-0.3 0.2-0.5 0.1-0.2 0.3-0.4 0.4-0.5 0.8-0.9 0.5-0.5 1.1-0.7 0.5-0.3 1.1-0.5 0.6-0.1 1.3-0.1 0.3 0 0.6 0.1 0.3 0 0.6 0.1 0.3 0.1 0.6 0.2 0.3 0.1 0.6 0.2 0.4 0.2 0.8 0.5 0.4 0.3 0.8 0.6 0.3 0.3 0.6 0.7 0.3 0.3 0.6 0.7h-0.2q0.1-0.1 0.2-0.2 0.2-0.1 0.3-0.2 0.1-0.1 0.2-0.2 0.2-0.1 0.3-0.1 0.1 0 0.1 0 0.1-0.1 0.2-0.1 0 0 0.1 0 0 0 0.1 0z"/>
		<path id="Layer" class="s11" d="m114 91.4q0.1-0.1 0.1-0.3 0-0.2 0.1-0.4 0-0.1 0-0.3 0-0.2 0-0.4 0.1-0.4 0.2-0.8 0.1-0.4 0.2-0.8 0.1-0.4 0.2-0.8 0.2-0.4 0.4-0.8 0.2-0.4 0.4-0.7 0.2-0.4 0.5-0.7 0.3-0.2 0.7-0.5 0.3-0.3 0.6-0.5c0.8-0.4 1.4-0.4 1.3-0.5q-0.1 0-0.3 0-0.2 0-0.4 0-0.2 0-0.4 0.1-0.1 0-0.3 0.1-0.4 0.2-0.8 0.5-0.4 0.2-0.7 0.5-0.3 0.3-0.6 0.7-0.3 0.4-0.5 0.8-0.2 0.4-0.3 0.8-0.2 0.4-0.3 0.8-0.1 0.5-0.1 0.9-0.1 0.4-0.1 0.9 0 0.2 0 0.4-0.1 0.1 0 0.3 0 0.2 0 0.4 0 0.2 0.1 0.3z"/>
		<path id="Layer" class="s11" d="m261.4 122.5q0.1-0.1 0.2-0.3 0-0.2 0.1-0.4 0.1-0.2 0.1-0.4 0.1-0.2 0.1-0.4 0.2-0.9 0.1-1.9 0-1-0.3-1.9-0.2-0.9-0.7-1.8-0.5-0.9-1.1-1.6-0.1-0.1-0.3-0.3-0.1-0.1-0.3-0.3-0.1-0.1-0.3-0.2-0.2-0.1-0.3-0.2c-0.1 0.1 0.3 0.5 1 1.2q0.2 0.4 0.5 0.8 0.2 0.4 0.4 0.8 0.2 0.4 0.4 0.9 0.2 0.4 0.3 0.8 0.1 0.5 0.2 0.9 0.1 0.5 0.1 1 0.1 0.4 0.1 0.9 0 0.4-0.1 0.9 0 0.2-0.1 0.4 0 0.2 0 0.4-0.1 0.2-0.1 0.4 0 0.1 0 0.3z"/>
	</g>
	<g id="freepik--character-1--inject-24">
		<path id="Layer" class="s3" d="m622.2 445.7l5.3 16v1.9c0 0-19.2 7-19.5 10.5l37.2 0.2 0.1-9.3-4.5-19.3z"/>
		<path id="Layer" class="s0" d="m639.1 462.1q0.3 0 0.5 0.2 0.2 0.2 0.3 0.4 0.2 0.3 0.2 0.5 0 0.3 0 0.6-0.1 0.3-0.3 0.5-0.1 0.2-0.4 0.3-0.2 0.2-0.5 0.2-0.3 0-0.5 0-0.3-0.1-0.5-0.3-0.3-0.2-0.4-0.4-0.2-0.3-0.2-0.6-0.1-0.3 0-0.6 0.1-0.2 0.3-0.4 0.2-0.3 0.5-0.4 0.2-0.1 0.5-0.1 0.3 0 0.6 0.1"/>
		<path id="Layer" class="s7" d="m645.3 474.4l-0.1-3-35.6 0.9c0 0-1.7 0.7-1.5 1.9z"/>
		<path id="Layer" class="s4" d="m627 463.4c0 0.2 0.9 0.3 1.8 0.9 0.9 0.6 1.4 1.3 1.5 1.3 0.2-0.1-0.1-1.2-1.2-1.9-1-0.7-2.2-0.5-2.1-0.3z"/>
		<path id="Layer" class="s4" d="m623.1 465c0 0.2 0.7 0.5 1.3 1.3 0.6 0.7 0.8 1.5 1 1.5 0.2 0 0.3-1-0.4-2-0.8-1-1.9-1-1.9-0.8z"/>
		<path id="Layer" class="s4" d="m620.8 469.7c0.2 0 0.5-0.9 0-1.9-0.4-1-1.3-1.4-1.3-1.2-0.1 0.1 0.4 0.6 0.8 1.5 0.3 0.8 0.4 1.5 0.5 1.6z"/>
		<path id="Layer" class="s3" d="m551.4 445.7l5.2 16 0.1 1.9c0 0-19.3 7-19.5 10.5l37.2 0.2 0.1-9.3-4.6-19.3z"/>
		<path id="Layer" class="s0" d="m567.9 462.1q0.3 0 0.5 0.2 0.2 0.2 0.4 0.4 0.1 0.3 0.2 0.5 0 0.3-0.1 0.6 0 0.3-0.2 0.5-0.2 0.2-0.4 0.3-0.3 0.2-0.5 0.2-0.3 0-0.6 0-0.3-0.1-0.5-0.3-0.2-0.2-0.4-0.4-0.1-0.3-0.2-0.6 0-0.3 0-0.5 0.1-0.3 0.3-0.5 0.2-0.3 0.5-0.4 0.3-0.1 0.6-0.1 0.3 0 0.5 0.1"/>
		<path id="Layer" class="s7" d="m574.4 474.4v-3l-36 1c0 0-1.7 0.7-1.5 1.9z"/>
		<path id="Layer" class="s4" d="m555.8 463.4c0 0.2 0.9 0.3 1.8 0.9 0.9 0.6 1.4 1.3 1.6 1.3 0.1-0.1-0.1-1.2-1.2-1.9-1.1-0.7-2.2-0.5-2.2-0.3z"/>
		<path id="Layer" class="s4" d="m551.9 465c0 0.2 0.8 0.5 1.4 1.3 0.6 0.7 0.8 1.5 1 1.5 0.2 0 0.3-1-0.5-2-0.8-1-1.9-1-1.9-0.8z"/>
		<path id="Layer" class="s4" d="m549.7 469.7c0.1 0 0.4-0.9 0-1.9-0.4-1-1.3-1.4-1.4-1.2-0.1 0.1 0.4 0.6 0.8 1.5 0.4 0.8 0.4 1.5 0.6 1.6z"/>
		<path id="Layer" class="s3" d="m611.8 345.3v9.7l14.4 39.5q3.9 7 7.1 14.4 3.1 7.4 5.5 15 2.5 7.7 4.1 15.5 1.6 7.9 2.5 15.9h-21.8c1-4-21.2-47.7-23.5-50.1-2.3-2.4-15.5-36.2-15.5-36.2 0 0 13.9-23.4 15-23.6 1-0.3 12.2-0.1 12.2-0.1z"/>
		<path id="Layer" class="s10" d="m610.3 350.2l-19.9 33.2-2.7-6.8 22.6-26.4z"/>
		<path id="Layer" class="s3" d="m567.6 335.8v-10.7l43.2-3.9c0 1.4 9.2 19.8-3.5 32.7l-39.8 46 6.8 61.2h-22.5v-1.3c0 0-4-21.5-4.3-23.4-0.3-2-6.1-36.5-6.5-42.4-0.5-7.2 26.6-58.2 26.6-58.2z"/>
		<path id="Layer" class="s7" d="m567.6 335.8l-0.4 0.6-0.8 1.6-3.4 6.5c-2.9 5.6-7.2 13.8-12.2 24.3-2.5 5.2-5.3 11-7.8 17.5-0.7 1.6-1.3 3.2-1.8 5q-0.1 0.3-0.1 0.6-0.1 0.4-0.2 0.7 0 0.4-0.1 0.7 0 0.3 0 0.7 0.1 1.4 0.3 2.7 0.7 5.6 1.6 11.5 1.8 11.7 4 24.7c0.7 4.3 1.6 8.7 2.4 13.2 0.8 4.5 1.6 9.1 2.5 13.8v1.4h23v-0.2c-1-9-2-18.5-3.1-28.2l-3.7-33v0.2l34.1-39.5c2.6-3.1 5.2-6 7.7-9q0.9-1.2 1.6-2.4 0.7-1.2 1.2-2.5 0.5-1.3 0.9-2.7 0.4-1.4 0.6-2.8 0.2-1.3 0.3-2.6 0.1-1.3 0-2.7 0-1.3-0.1-2.6-0.2-1.3-0.4-2.6-0.1-0.7-0.3-1.3-0.1-0.6-0.3-1.2-0.1-0.6-0.3-1.2-0.1-0.7-0.3-1.3-0.4-1.2-0.8-2.3-0.1-0.3-0.2-0.6-0.1-0.2-0.1-0.5-0.1-0.3-0.2-0.6-0.1-0.3-0.2-0.5v-0.2h-0.1l-43.2 4h-0.1q0 5.4 0 8.1 0 1.3 0 2 0 0.7 0 0.7 0 0 0-0.7 0-0.6 0-2 0-2.7 0-8.1l-0.1 0.1 43.2-3.8-0.2-0.1q0.1 0.2 0.2 0.5 0.1 0.3 0.2 0.6 0.1 0.3 0.2 0.6 0.1 0.3 0.2 0.6 0.4 1.2 0.7 2.3 0.2 0.6 0.4 1.2 0.1 0.6 0.3 1.3 0.1 0.6 0.2 1.2 0.2 0.6 0.3 1.2 0.2 1.3 0.4 2.6 0.1 1.3 0.1 2.6 0.1 1.3 0 2.6-0.1 1.4-0.3 2.7-0.2 1.3-0.6 2.7-0.4 1.3-0.9 2.6-0.5 1.3-1.2 2.5-0.7 1.2-1.5 2.3c-2.5 2.9-5.1 5.9-7.7 8.9-10.6 12.2-22 25.5-34.2 39.5l-0.1 0.1v0.2c1.2 10.7 2.5 21.7 3.7 33 1.1 9.6 2.1 19.1 3.1 28.1l0.3-0.2h-22.6l0.3 0.2v-1.3q-1.3-7-2.5-13.8c-0.9-4.5-1.8-8.8-2.4-13.2-1.4-8.6-2.8-16.9-4-24.7-0.6-3.9-1.2-7.7-1.7-11.4q-0.2-1.4-0.3-2.7 0-0.4 0.1-0.7 0-0.3 0.1-0.6 0-0.4 0.1-0.7 0.1-0.3 0.1-0.6 0.2-0.7 0.4-1.3 0.2-0.6 0.4-1.3 0.2-0.6 0.5-1.2 0.2-0.6 0.4-1.2c2.6-6.5 5.3-12.3 7.8-17.5 5-10.5 9.2-18.7 12-24.4 1.5-2.8 2.6-5 3.4-6.5q0.5-1 0.8-1.6z"/>
		<path id="Layer" class="s3" d="m603.2 191.1c-0.7-3.1-2.9-4.8-5.8-6q-1.1-0.5-2.3-0.6-1.2-0.2-2.4-0.1-1.2 0.1-2.3 0.5-1.1 0.4-2.1 1.1c-1.8 1.1-3.2 3-5.3 3.5-3.3 0.9-7-1.8-10.3-0.5-1 0.3-1.8 1-2.3 2-0.5 0.9-0.7 1.9-0.5 3 0.2 1 0.7 1.9 1.5 2.6 0.8 0.7 1.8 1.1 2.9 1.1-2.2 0.6-3.1 3.6-2 5.6q0.5 0.8 1.2 1.3 0.6 0.6 1.4 0.9 0.8 0.4 1.7 0.5 0.8 0.1 1.7 0 0.8-0.2 1.6-0.5 0.9-0.2 1.6-0.6 0.8-0.4 1.5-0.8 0.8-0.5 1.4-1.1c1.8-1.4 3.4-3 5.4-4.3q0.7-0.5 1.4-0.9 0.8-0.4 1.6-0.6 0.9-0.3 1.7-0.4 0.9-0.1 1.7 0c3.1 0.4 5.6 2.9 6.8 5.7q0.4 1.1 0.7 2.3 0.3 1.1 0.4 2.3 0.2 1.1 0.2 2.3 0.1 1.1 0 2.3-0.1 1.2-0.1 2.3 0 1.2 0.1 2.4 0.1 1.1 0.2 2.3 0.1 1.1 0.3 2.3 0.1 0.1 0.1 0.2 0 0.2 0.1 0.3 0.1 0.1 0.2 0.2 0.1 0.1 0.2 0.2c0.5 0.2 1-0.4 1.2-0.8q1.2-1.9 2.2-3.9 1-2 1.8-4.1 0.8-2.1 1.4-4.2 0.6-2.2 0.9-4.4c0.6-3.4 0.7-6.6-1-9.6-1.7-3.1-6.3-5.5-8.7-3.8"/>
		<path id="Layer" class="s6" d="m608.2 205.8l-0.6 31.8c-0.1 5.9-4.7 16.4-14 15.8l0.2-0.5c-8.1-1.1-6.9-10.7-6.9-17.7 0 0-8.8-1-9.3-9.8-0.2-4.3 0-13 0.3-21 0.1-2.1 0.6-4.1 1.4-5.9 0.8-1.9 2-3.6 3.4-5 1.5-1.5 3.2-2.7 5-3.5 1.9-0.8 3.9-1.3 5.9-1.3h0.9c9.1 0.1 14.1 8 13.7 17.1z"/>
		<path id="Layer" class="s11" d="m586.9 235.2q1.5-0.1 3-0.4 1.5-0.3 2.9-0.7 1.5-0.5 2.8-1.2 1.4-0.7 2.6-1.6c0.8-0.6-2.5 7-11.3 6.5z"/>
		<path id="Layer" class="s3" d="m580.9 212.4q0 0.2 0.1 0.4 0.1 0.3 0.3 0.4 0.2 0.2 0.4 0.3 0.3 0.1 0.5 0.1 0.2 0 0.5-0.1 0.2-0.1 0.4-0.2 0.1-0.2 0.2-0.4 0.1-0.3 0.1-0.5 0-0.2-0.1-0.5-0.1-0.2-0.2-0.4-0.2-0.1-0.4-0.2-0.3-0.1-0.5-0.1-0.3 0-0.5 0.1-0.2 0-0.4 0.2-0.2 0.2-0.3 0.4-0.1 0.2-0.1 0.5z"/>
		<path id="Layer" class="s3" d="m580 208.6c0.2 0.2 1.1-0.5 2.4-0.6 1.4-0.1 2.4 0.6 2.5 0.4 0.2-0.2-0.1-0.4-0.5-0.6q-0.2-0.2-0.5-0.3-0.2-0.1-0.5-0.2-0.2 0-0.5-0.1-0.2 0-0.5 0-0.3 0-0.5 0.1-0.3 0-0.5 0.1-0.3 0.1-0.5 0.2-0.2 0.2-0.4 0.3c-0.5 0.4-0.6 0.7-0.5 0.7z"/>
		<path id="Layer" class="s3" d="m592.8 212.1q0 0.3 0.1 0.5 0.1 0.2 0.3 0.4 0.2 0.2 0.4 0.3 0.2 0.1 0.5 0.1 0.2 0 0.4-0.1 0.3-0.1 0.4-0.3 0.2-0.2 0.3-0.4 0.1-0.2 0.1-0.4 0-0.3-0.1-0.5-0.1-0.2-0.3-0.4-0.2-0.1-0.4-0.2-0.3-0.1-0.5-0.1-0.2 0-0.4 0.1-0.3 0.1-0.4 0.2-0.2 0.2-0.3 0.4-0.1 0.2-0.1 0.4z"/>
		<path id="Layer" class="s3" d="m593.3 208.3c0.1 0.2 1-0.5 2.4-0.6 1.3 0 2.4 0.6 2.5 0.4 0.1-0.2-0.1-0.3-0.5-0.6q-0.3-0.2-0.5-0.3-0.2-0.1-0.5-0.2-0.3 0-0.5-0.1-0.3 0-0.5 0-0.3 0-0.6 0.1-0.2 0-0.5 0.1-0.2 0.1-0.4 0.3-0.3 0.1-0.5 0.2c-0.4 0.4-0.5 0.7-0.4 0.7z"/>
		<path id="Layer" class="s3" d="m588.8 218.6q-0.3-0.1-0.6-0.2-0.3 0-0.5-0.1-0.3 0-0.6 0-0.3 0-0.6 0c-0.3 0-0.6-0.1-0.7-0.4q0-0.1 0-0.2 0-0.1 0-0.3 0.1-0.1 0.1-0.2 0-0.1 0.1-0.3l0.9-2.6c1.3-3.8 2.2-6.9 2-7q-0.4 0.8-0.7 1.6-0.4 0.9-0.7 1.7-0.3 0.9-0.6 1.7-0.3 0.9-0.6 1.8-0.4 1.4-0.8 2.7-0.1 0.1-0.1 0.3-0.1 0.1-0.1 0.3 0 0.2 0 0.4 0 0.1 0 0.3 0.1 0.1 0.2 0.2 0 0.1 0.1 0.1 0.1 0.1 0.2 0.1 0 0.1 0.1 0.1 0.1 0 0.2 0 0.1 0 0.1 0 0.1 0 0.2 0 0.1 0.1 0.1 0.1 0.3 0 0.6 0 0.3 0 0.5 0 0.3 0 0.6-0.1 0.3 0 0.6 0z"/>
		<path id="Layer" class="s3" d="m592.7 203.1c0.1 0.3 1.5 0.1 3.1 0.2 1.6 0.2 2.9 0.5 3.1 0.2 0-0.2-0.2-0.5-0.7-0.8q-0.6-0.3-1.1-0.5-0.6-0.2-1.2-0.2-0.6-0.1-1.2 0-0.7 0.1-1.2 0.3c-0.6 0.3-0.9 0.6-0.8 0.8z"/>
		<path id="Layer" class="s3" d="m580.3 204.7c0.3 0.3 1.2 0 2.3-0.1 1.1-0.1 2.1 0.1 2.3-0.2 0.1-0.2-0.1-0.5-0.5-0.7q-0.2-0.2-0.5-0.3-0.2-0.1-0.4-0.1-0.3-0.1-0.5-0.1-0.3 0-0.5 0-0.3 0-0.5 0.1-0.2 0-0.5 0.1-0.2 0.1-0.4 0.2-0.2 0.2-0.4 0.3c-0.4 0.3-0.5 0.7-0.4 0.8z"/>
		<path id="Layer" class="s6" d="m607.8 212.4c0.1-0.1 6-2 6 4 0 6-6 4.8-6 4.6 0-0.1 0-8.6 0-8.6z"/>
		<path id="Layer" class="s11" d="m609.6 218.7c0 0 0.1 0.1 0.3 0.2q0.1 0 0.2 0 0.1 0.1 0.2 0.1 0.1 0 0.2-0.1 0.1 0 0.1 0 0.3-0.2 0.6-0.5 0.2-0.2 0.4-0.5 0.1-0.3 0.2-0.7 0.1-0.3 0-0.7 0-0.2 0-0.3 0-0.2 0-0.4-0.1-0.2-0.1-0.4-0.1-0.2-0.2-0.4 0-0.1-0.1-0.2-0.1-0.1-0.2-0.2-0.1-0.2-0.2-0.2-0.1-0.1-0.3-0.2-0.1 0-0.2 0 0 0-0.1 0.1-0.1 0-0.2 0.1 0 0.1-0.1 0.1c-0.1 0.2 0 0.3-0.1 0.3 0 0.1-0.1-0.1 0-0.3q0-0.1 0-0.1 0-0.1 0-0.1 0.1-0.1 0.1-0.1 0-0.1 0.1-0.1 0.1 0 0.1-0.1 0.1 0 0.2 0 0 0 0.1-0.1 0.1 0 0.2 0.1 0.2 0 0.3 0.1 0.2 0.1 0.3 0.2 0.2 0.1 0.3 0.3 0.1 0.1 0.2 0.3 0.1 0.2 0.1 0.4 0.1 0.2 0.2 0.4 0 0.2 0 0.4 0.1 0.2 0 0.4 0.1 0.5 0 0.8-0.1 0.4-0.3 0.8-0.2 0.3-0.5 0.6-0.3 0.3-0.7 0.5-0.1 0-0.2 0-0.1 0-0.3 0-0.1 0-0.2-0.1-0.2 0-0.3-0.1c-0.1-0.1-0.1-0.3-0.1-0.3z"/>
		<path id="Layer" class="s3" d="m577.5 196.2q0.3-0.6 0.6-1.2 0.4-0.6 0.8-1.2 0.5-0.6 1-1.1 0.5-0.5 1.1-0.9 1.2-1 2.5-1.8 1.3-0.8 2.7-1.3 1.4-0.6 2.9-1 1.5-0.3 3.1-0.4 1.5-0.1 3 0.1 1.6 0.2 3 0.7 1.5 0.5 2.8 1.2 1.4 0.8 2.5 1.8 0.9 0.8 1.7 1.7 0.8 1 1.4 2 0.7 1.1 1.2 2.2 0.4 1.2 0.7 2.4 0.3 1.2 0.5 2.4 0.2 1.2 0.2 2.4 0.1 1.2 0 2.5 0 1.2-0.2 2.4 0 0.6-0.2 1.1-0.1 0.5-0.3 1-0.1 0.5-0.4 1-0.3 0.5-0.6 0.9-0.2 0.3-0.5 0.5-0.2 0.2-0.6 0.3-0.3 0-0.6 0-0.3 0-0.6-0.2-0.2-0.1-0.3-0.2-0.1-0.2-0.2-0.4-0.1-0.1-0.2-0.3-0.1-0.2-0.1-0.4c-1.4-4.6-2.7-9.5-1.2-14.1q-0.4-0.5-0.9-1.1-0.5-0.5-1-0.9-0.6-0.5-1.2-0.9-0.6-0.4-1.2-0.7-0.6-0.4-1.3-0.6-0.7-0.2-1.4-0.2-0.7-0.1-1.4 0-0.7 0-1.4 0.3c-2.6 0.9-4.2 3.6-6.2 5.5q-1.1 1-2.5 1.7-1.3 0.7-2.8 1.1-1.4 0.4-2.9 0.4-1.5 0.1-3-0.2z"/>
		<path id="Layer" class="s7" d="m570.9 190.5q0 0 0 0.1 0 0-0.1 0.1 0 0 0 0.1 0 0 0 0.1 0 0.1 0 0.3 0 0.1 0.1 0.3 0 0.1 0 0.3 0 0.1 0.1 0.2 0.1 0.6 0.4 1.1 0.2 0.4 0.6 0.9 0.3 0.4 0.7 0.8 0.4 0.3 0.9 0.6 0.7 0.3 1.5 0.5 0.8 0.2 1.6 0.3 0.8 0 1.6-0.1 0.9-0.1 1.6-0.3c2.4-0.7 4.6-2.2 7-3.6 2.3-1.4 4.8-2.4 7.2-2.4q0.7 0.1 1.5 0.3 0.8 0.1 1.5 0.4 0.7 0.3 1.4 0.7 0.7 0.4 1.3 0.9 0.4 0.4 0.7 0.7 0.4 0.4 0.8 0.8 0.3 0.4 0.6 0.8 0.3 0.5 0.6 0.9c0.5 0.9 0.7 1.4 0.8 1.4q-0.1-0.1-0.1-0.1 0-0.1 0-0.1 0-0.1 0-0.1 0 0-0.1-0.1 0-0.1-0.1-0.3 0-0.1-0.1-0.2-0.1-0.2-0.1-0.3-0.1-0.1-0.2-0.3-0.2-0.4-0.5-0.9-0.3-0.4-0.7-0.8-0.3-0.5-0.7-0.9-0.4-0.3-0.8-0.7-0.6-0.5-1.3-1-0.6-0.4-1.4-0.7-0.7-0.3-1.5-0.5-0.8-0.2-1.6-0.2c-2.5-0.1-5 1-7.4 2.4-2.4 1.3-4.6 2.8-6.9 3.5q-0.7 0.3-1.5 0.4-0.8 0.1-1.5 0.1-0.8-0.1-1.6-0.3-0.7-0.1-1.4-0.5-0.5-0.2-0.9-0.5-0.4-0.4-0.8-0.8-0.3-0.4-0.6-0.8-0.2-0.5-0.4-1 0-0.2-0.1-0.4 0-0.2 0-0.4-0.1-0.1-0.1-0.3 0-0.2 0-0.4z"/>
		<path id="Layer" class="s7" d="m612.2 203q0-0.2 0-0.4-0.1-0.2-0.1-0.4-0.1-0.2-0.1-0.4-0.1-0.2-0.2-0.4-0.2-0.5-0.5-0.9-0.2-0.4-0.5-0.9-0.3-0.4-0.6-0.8-0.4-0.3-0.7-0.7-0.2-0.2-0.4-0.4-0.2-0.2-0.5-0.3-0.2-0.2-0.4-0.4-0.2-0.1-0.5-0.3-0.2-0.1-0.4-0.2-0.2-0.1-0.4-0.2-0.2-0.1-0.5-0.1-0.2-0.1-0.4-0.1-0.2 0-0.3 0-0.2 0-0.4 0.1-0.1 0-0.3 0.1-0.1 0-0.2 0.1c-0.3 0.2-0.4 0.4-0.3 0.4q0.1-0.1 0.3-0.2 0.2-0.1 0.4-0.1 0.2-0.1 0.4-0.1 0.2 0 0.4 0 0.4 0.1 0.9 0.3 0.4 0.2 0.8 0.5 0.4 0.2 0.8 0.5 0.4 0.3 0.7 0.7 0.4 0.3 0.7 0.7 0.3 0.4 0.6 0.8 0.3 0.4 0.5 0.8 0.3 0.4 0.5 0.8c0.5 0.9 0.7 1.5 0.7 1.5z"/>
		<path id="Layer" class="s7" d="m611.4 208.3q0-0.2-0.1-0.4 0-0.2-0.1-0.4-0.1-0.2-0.2-0.4-0.1-0.2-0.2-0.4-0.4-0.9-1.1-1.7-0.6-0.8-1.3-1.5-0.8-0.7-1.7-1.2-0.8-0.6-1.8-0.9-0.2-0.1-0.4-0.2-0.2 0-0.4-0.1-0.2 0-0.4-0.1-0.2 0-0.4 0c0 0 0.6 0.2 1.5 0.6q0.9 0.4 1.7 1 0.9 0.5 1.6 1.2 0.7 0.6 1.4 1.4 0.6 0.8 1.1 1.6 0.1 0.2 0.2 0.4 0.1 0.2 0.2 0.4 0.1 0.2 0.2 0.3 0.1 0.2 0.2 0.4z"/>
		<path id="Layer" class="s3" d="m589.3 222.4c0 0.1 0.4 0.2 0.9 0.3q0.3 0 0.6 0 0.3-0.1 0.6-0.2 0.3 0 0.6-0.1 0.2-0.1 0.5-0.3 0.2-0.1 0.5-0.3 0.2-0.2 0.4-0.4 0.2-0.2 0.4-0.4 0.2-0.3 0.3-0.5c0.3-0.6 0.3-0.9 0.2-1-0.1 0-0.8 1.2-2.2 1.9-1.4 0.8-2.7 0.8-2.8 1z"/>
		<path id="Layer" class="s1" d="m608.4 233.4l0.1-1.7-22.3 7.8-5.3 9.1 4.4 1.7 11.8-4.3 11.3-12.6z"/>
		<path id="Layer" class="s3" d="m609.4 238.2c0 0 11.2 13.4 7 34.7-4.1 21.2-6.2 36.4-6.2 36.4l7.5 36.8-59.3 0.1 7.5-80.3 12.1-16.9 5.4-1.9 1.6-1.8q0.9-1.1 1.9-2 1-0.9 2.2-1.7 1.1-0.8 2.3-1.5 1.2-0.6 2.5-1.1l14.5-5.6z"/>
		<path id="Layer" class="s7" d="m584.7 266.5q0.1 0.1 0.2 0.2 0 0.1 0.1 0.2 0.1 0.1 0.2 0.2 0 0.1 0.1 0.1 0.6 0.7 1.8 1.8c1.5 1.6 3.7 3.6 6.1 5.8 2.4 2.1 4.7 4 6.4 5.4q1.2 1 2 1.5 0.1 0.1 0.2 0.2 0 0 0.1 0.1 0.1 0.1 0.2 0.1 0.1 0.1 0.2 0.1-0.2-0.3-0.6-0.6-0.3-0.3-0.6-0.6-0.3-0.3-0.6-0.6-0.4-0.2-0.7-0.5l-6.3-5.5c-2.3-2.2-4.5-4.1-6.2-5.6q-0.3-0.3-0.6-0.6-0.3-0.3-0.6-0.6-0.4-0.3-0.7-0.6-0.3-0.2-0.7-0.5z"/>
		<path id="Layer" class="s3" d="m602.9 249.2c-1.2-2.3-3.9-3.9-7.2-4.5q-1-0.1-1.9-0.1-0.9 0-1.8 0-1 0.1-1.9 0.3-0.9 0.1-1.8 0.4l-31.9 9.1-10.2-21.7-14.8 2.5c0 0 6.1 31.7 12.4 37.4 4.5 4 23 0.1 33-1.1q2.4-0.3 4.8-0.7 2.3-0.4 4.7-1 2.3-0.5 4.7-1.2 2.3-0.6 4.6-1.4"/>
		<path id="Layer" class="s7" d="m595.6 267.2q-0.1 0.1-0.1 0.1-0.1 0-0.1 0-0.1 0-0.1 0-0.1 0-0.2 0.1l-1.3 0.4c-1.1 0.3-2.8 0.8-5.1 1.3-2.2 0.6-4.9 1.2-8.1 1.7-1.6 0.3-3.3 0.5-5.2 0.8-1.8 0.2-3.7 0.5-5.7 0.7-4.1 0.6-8.5 1.3-13.3 1.7q-0.9 0-1.9 0.1-0.9 0-1.8 0-0.9 0-1.9 0-0.9 0-1.8-0.1-0.5 0-1-0.1-0.4-0.1-0.9-0.2-0.5-0.1-0.9-0.2-0.5-0.1-0.9-0.3-0.5-0.2-0.9-0.5-0.4-0.3-0.7-0.6-0.4-0.3-0.7-0.7-0.3-0.4-0.5-0.8-0.5-0.9-1-1.8-0.5-0.9-0.9-1.9-0.5-0.9-0.8-1.9-0.4-0.9-0.8-1.9c-1-2.7-1.8-5.4-2.6-8.3-1.6-5.6-3-11.5-4.3-17.6q-0.2-1-0.4-2.1l-0.2 0.3 14.7-2.4-0.3-0.1c3.7 7.7 7.1 15 10.3 21.6l0.1 0.2 0.2-0.1 19.3-5.5 8.1-2.4 3.6-1q0.4-0.1 0.8-0.2 0.4-0.1 0.9-0.2 0.4-0.1 0.8-0.2 0.4-0.1 0.8-0.1 1.3-0.3 2.5-0.3 1.3 0 2.5 0.2 1.2 0.2 2.4 0.7 1.2 0.4 2.3 1.1 0.3 0.3 0.7 0.5 0.3 0.3 0.6 0.7 0.3 0.3 0.6 0.7 0.2 0.3 0.5 0.7-0.1-0.1-0.1-0.2-0.1-0.1-0.1-0.2-0.1-0.1-0.2-0.2 0-0.1-0.1-0.2-0.2-0.3-0.4-0.5-0.2-0.3-0.4-0.5-0.3-0.3-0.5-0.5-0.3-0.2-0.6-0.4-0.4-0.3-0.9-0.6-0.5-0.2-0.9-0.5-0.5-0.2-1.1-0.3-0.5-0.2-1-0.3-0.7-0.2-1.4-0.3-0.8-0.1-1.5-0.1-0.7 0-1.5 0-0.7 0.1-1.4 0.2-0.4 0.1-0.9 0.1-0.4 0.1-0.8 0.2-0.4 0.1-0.8 0.2-0.5 0.1-0.9 0.2l-3.6 1-8.1 2.3-19.4 5.5 0.3 0.2-10.2-21.7-0.1-0.2h-0.2l-14.8 2.4h-0.2v0.3l0.5 2.1c1.2 6.1 2.7 12 4.3 17.7q1.2 4.2 2.7 8.3 0.3 0.9 0.7 1.9 0.4 1 0.8 1.9 0.5 1 1 1.9 0.5 0.9 1 1.8 0.1 0.2 0.3 0.4 0.1 0.3 0.3 0.5 0.1 0.2 0.3 0.4 0.2 0.2 0.4 0.3 0.1 0.2 0.3 0.4 0.2 0.2 0.4 0.3 0.3 0.2 0.5 0.3 0.2 0.1 0.5 0.2 0.4 0.2 0.9 0.3 0.5 0.2 1 0.3 0.4 0.1 0.9 0.1 0.5 0.1 1 0.1 1 0.1 1.9 0.1 0.9 0.1 1.9 0 0.9 0 1.8 0 1-0.1 1.9-0.2c4.8-0.3 9.3-1 13.3-1.6 2-0.3 4-0.6 5.8-0.9 1.8-0.2 3.5-0.4 5.1-0.7 3.2-0.6 6-1.2 8.2-1.8 2.2-0.6 3.9-1.1 5.1-1.5q0.8-0.3 1.3-0.4z"/>
		<path id="Layer" class="s7" d="m590.2 244.9q0.1 0 0.2 0 0.1 0 0.2 0 0.1 0 0.2-0.1 0.1 0 0.2 0 0.8-0.1 2.1-0.4 0.9-0.3 1.8-0.5 0.9-0.3 1.7-0.5 0.9-0.3 1.7-0.6 0.9-0.4 1.7-0.7c2.7-1.1 5-2.2 6.7-3q0.3-0.2 0.7-0.3 0.3-0.2 0.6-0.3 0.4-0.2 0.7-0.4 0.3-0.2 0.6-0.4-0.3 0.1-0.7 0.2-0.3 0.2-0.7 0.3-0.3 0.1-0.7 0.2-0.3 0.2-0.7 0.3c-1.7 0.7-4 1.8-6.7 2.9-2.6 1-5 1.8-6.8 2.4q-0.3 0-0.7 0.1-0.3 0.2-0.7 0.3-0.4 0.1-0.7 0.2-0.4 0.1-0.7 0.3z"/>
		<path id="Layer" class="s7" d="m578.4 290.6q0.1 0.1 0.2 0.2 0.1 0.1 0.2 0.2 0.1 0.1 0.2 0.3 0.1 0.1 0.2 0.1c0.5 0.6 1.3 1.3 2.3 2.2 2 1.9 4.8 4.3 8.1 6.9 3.2 2.5 6.3 4.7 8.5 6.2 1.1 0.7 2 1.3 2.7 1.7q0.1 0.1 0.2 0.2 0.2 0 0.3 0.1 0.1 0.1 0.2 0.1 0.2 0.1 0.3 0.2-0.1-0.1-0.2-0.2-0.1-0.1-0.2-0.2-0.1-0.1-0.3-0.2-0.1-0.1-0.2-0.2l-2.6-1.8c-2.2-1.6-5.2-3.8-8.5-6.3-3.2-2.6-6-5-8.1-6.7l-2.4-2.1q-0.1-0.1-0.2-0.2-0.1-0.1-0.2-0.2-0.2-0.1-0.3-0.2-0.1 0-0.2-0.1z"/>
		<path id="Layer" class="s6" d="m543.2 230.9c0 0 5.5-2.3 6.8-3.6 1.4-1.4 2.8-2 1.6-2.7-1.2-0.7-2.7-0.3-4 0.6q-0.3 0.2-0.6 0.3-0.3 0.1-0.7 0.1-0.3 0-0.6-0.1-0.3-0.1-0.6-0.3 0.2-0.9 0.5-1.8 0.3-0.9 0.6-1.8 0.3-0.9 0.7-1.7 0.3-0.9 0.7-1.8c1.1-2.1 3.9-6.4 3.7-7.9-0.1-1.6-1.2-2.3-2-0.7-0.8 1.5-4 6.5-4.5 6.3-0.6-0.1 1.5-9.7 0.8-10.2-0.7-0.5-2.3-1.1-2.4 1.3q-0.1 1-0.3 1.9-0.1 1-0.3 1.9-0.2 0.9-0.4 1.9-0.2 0.9-0.4 1.8c-0.2 0.6 0.2-8.5-1.1-8.3-1.3 0.2-1.3 1.1-1.5 2.5-0.1 1.5-1.4 7.2-1.4 7.2 0 0-0.4-7.1-1.7-7-1.3 0.1-1.6 0.3-1.4 1.7 0.1 1.5-1.4 15-1.4 15.5v6.4l9.4-1.6"/>
		<path id="Layer" class="s7" d="m558.4 346.2c0 0.2 13.2 0.3 29.6 0.2 16.4 0 29.7-0.1 29.7-0.3 0-0.1-13.3-0.2-29.7-0.2-16.4 0.1-29.6 0.2-29.6 0.3z"/>
		<path id="Layer" class="s0" d="m545.5 232.9l-1.1-2.5-12.6 1.7 0.3 3 13.4-2.2z"/>
		<path id="Layer" class="s7" d="m552 261.4c0.1 0 0.8-1.8 2.1-3.7 1.3-1.9 2.7-3.3 2.6-3.4q-0.9 0.7-1.6 1.4-0.8 0.8-1.4 1.7-0.6 0.9-1 1.9-0.5 1-0.7 2z"/>
		<path id="Layer" class="s10" d="m611.6 347.9l-50.8 1 1.4-2.8 50.1 0.1-0.7 1.7z"/>
		<path id="Layer" class="s10" d="m598.1 328.6l0.9 3h-22.1l0.6-3q2.6-0.3 5.1-0.5 2.6-0.2 5.2-0.2 2.6 0 5.2 0.2 2.6 0.2 5.1 0.5z"/>
		<path id="Layer" class="s3" d="m597.5 321.8c0.9 2.9 1.5 4.7 2.4 7.6-6.1-0.6-17.7-0.3-23.6-0.2-0.2-2.2 0-6.9 0-6.9"/>
		<path id="Layer" class="s7" d="m576.2 322.3q0 0.2 0 0.4 0 0.3-0.1 0.5 0 0.2 0 0.5 0 0.2 0 0.4c0 1.2-0.1 3 0 5.1v0.2h0.2c3.3 0 7.6-0.1 12.4-0.1 4.2 0 8.1 0.1 11.2 0.3h0.3l-0.1-0.2c-0.7-2.3-1.3-4.2-1.8-5.6q-0.3-0.9-0.5-1.5-0.1-0.1-0.1-0.2 0 0 0-0.1-0.1-0.1-0.1-0.1 0-0.1-0.1-0.1 0 0 0.1 0.1 0 0.1 0 0.1 0 0.1 0 0.2 0 0.1 0.1 0.1 0.1 0.7 0.4 1.6l1.6 5.6 0.3-0.3c-3.2-0.3-7.1-0.4-11.3-0.4-4.8 0-9.1 0.1-12.4 0.2l0.2 0.2c-0.2-2.1-0.1-3.9-0.2-5.1q0-0.2 0-0.5 0-0.2 0-0.4 0-0.2 0-0.5 0-0.2-0.1-0.4z"/>
		<path id="Layer" class="s7" d="m577.8 321q0.3 0 0.6 0 0.4 0.1 0.7 0.1 0.4 0 0.7-0.1 0.3 0 0.7 0c1.7-0.1 4-0.1 6.5-0.1 2.6 0 4.9 0.1 6.5 0.2q0.4 0 0.7 0.1 0.4 0 0.7 0 0.3 0 0.7 0 0.3 0 0.7 0-0.4-0.1-0.7-0.2-0.3 0-0.7-0.1-0.3 0-0.6-0.1-0.4 0-0.7 0-0.8-0.1-1.7-0.2-0.8-0.1-1.6-0.1-0.8-0.1-1.6-0.1-0.9 0-1.7 0c-2.5 0-4.9 0.1-6.5 0.2q-0.4 0.1-0.7 0.1-0.4 0-0.7 0.1-0.3 0-0.7 0.1-0.3 0-0.6 0.1z"/>
		<path id="Layer" class="s10" d="m590.1 268.9c0 0-1.1 3.2-6.8 4.7-5.8 1.6-18.5 4-18.5 4l0.4-4.4c0 0 22.1-3 24.9-4.3z"/>
	</g>
</svg>