<svg version="1.2" xmlns="http://www.w3.org/2000/svg" viewBox="0 0 500 500" width="400" height="400">
	<title>Directing the arrow up-rafiki-svg</title>
	<style>
		.s0 { fill: #e4e3e9 } 
		.s1 { fill: #ebebeb } 
		.s2 { fill: #e0e0e0 } 
		.s3 { fill: #fafafa } 
		.s4 { fill: #f5f5f5 } 
		.s5 { fill: #ff725e } 
		.s6 { opacity: .4;fill: #ffffff } 
		.s7 { fill: #263238 } 
		.s8 { opacity: .2;fill: #ffffff } 
		.s9 { opacity: .2;fill: #000000 } 
		.s10 { opacity: .7;fill: #ffffff } 
		.s11 { fill: #ffffff } 
		.s12 { fill: #e4897b } 
		.s13 { opacity: .3;fill: #000000 } 
		.s14 { opacity: .1;fill: #ffffff } 
		.s15 { fill: #de5753 } 
		.s16 { fill: #000000 } 
	</style>
	<path id="Forme 1" class="s0" d="m194.8 358.4c-64.8-15.9-105.9-75.1-91.9-132.5 14-57.3 77.8-90.9 142.7-75 64.9 15.9 105.9 75.1 91.9 132.4-14 57.4-77.8 90.9-142.7 75.1z"/>
	<path id="Forme 4" class="s0" d="m252 168h107v70h-107z"/>
	<path id="Forme 2" class="s0" d="m35 86h1v2h-1z"/>
	<path id="Forme 3" class="s0" d="m142 331h63v43h-63z"/>
	<g id="freepik--background-complete--inject-60">
		<path id="Layer" class="s1" d="m0 382.4h500v0.3h-500z"/>
		<path id="Layer copy" class="s1" d="m0 382.4h500v0.3h-500z"/>
		<path id="Layer" class="s1" d="m416.8 398.5h33.1v0.2h-33.1z"/>
		<path id="Layer" class="s1" d="m322.5 401.2h8.7v0.3h-8.7z"/>
		<path id="Layer" class="s1" d="m396.6 389.2h19.2v0.3h-19.2z"/>
		<path id="Layer" class="s1" d="m52.5 390.9h43.1v0.2h-43.1z"/>
		<path id="Layer" class="s1" d="m104.6 390.9h6.3v0.2h-6.3z"/>
		<path id="Layer" class="s1" d="m131.5 395.1h93.6v0.3h-93.6z"/>
		<path id="Layer" fill-rule="evenodd" class="s1" d="m237 337.8h-193.1q-1.1 0-2.2-0.4-1-0.5-1.8-1.3-0.8-0.8-1.3-1.8-0.4-1.1-0.4-2.2v-271.4q0-1.2 0.5-2.2 0.4-1 1.2-1.8 0.8-0.8 1.8-1.3 1.1-0.4 2.2-0.4h193.1q1.1 0 2.2 0.4 1 0.5 1.8 1.3 0.8 0.8 1.3 1.8 0.4 1.1 0.4 2.2v271.4q0 1.1-0.4 2.2-0.5 1-1.3 1.8-0.8 0.8-1.8 1.3-1.1 0.4-2.2 0.4zm-193.1-282.6q-1.1 0-2.1 0.4-1 0.4-1.7 1.2-0.8 0.8-1.2 1.8-0.4 1-0.4 2.1v271.4q0 1.1 0.4 2.1 0.4 1 1.2 1.7 0.7 0.8 1.7 1.2 1 0.4 2.1 0.5l193.1-0.1q1.1 0 2.1-0.4 1-0.4 1.8-1.2 0.7-0.7 1.1-1.7 0.5-1 0.5-2.1v-271.4q0-1.1-0.5-2.1-0.4-1-1.1-1.8-0.8-0.8-1.8-1.2-1-0.4-2.1-0.4z"/>
		<path id="Layer" fill-rule="evenodd" class="s1" d="m453.3 337.8h-193.1q-1.1 0-2.2-0.4-1-0.5-1.8-1.3-0.8-0.8-1.3-1.8-0.4-1.1-0.4-2.2v-271.4q0-1.2 0.5-2.2 0.4-1 1.2-1.8 0.8-0.8 1.8-1.3 1.1-0.4 2.2-0.4h193.1q1.1 0 2.2 0.4 1 0.5 1.8 1.3 0.8 0.8 1.3 1.8 0.4 1 0.4 2.2v271.4q0 1.1-0.4 2.2-0.5 1-1.3 1.8-0.8 0.8-1.8 1.3-1.1 0.4-2.2 0.4zm-193.1-282.6q-1.1 0-2.1 0.4-1 0.4-1.7 1.2-0.8 0.8-1.2 1.8-0.4 1-0.5 2.1v271.4q0.1 1.1 0.5 2.1 0.4 1 1.2 1.7 0.7 0.8 1.7 1.2 1 0.4 2.1 0.4h193.1q1.1 0 2.1-0.4 1-0.4 1.8-1.2 0.7-0.7 1.2-1.7 0.4-1 0.4-2.1v-271.4q0-1.1-0.4-2.1-0.5-1-1.2-1.8-0.8-0.8-1.8-1.2-1-0.4-2.1-0.4z"/>
		<path id="Layer" class="s1" d="m61.1 299.4h36.9v83h-36.9z"/>
		<path id="Layer" class="s1" d="m115.9 259.4h36.9v123h-36.9z"/>
		<path id="Layer" class="s1" d="m170.6 229.4h36.9v153h-36.9z"/>
		<path id="Layer" class="s1" d="m225.4 299.4h36.9v83h-36.9z"/>
		<path id="Layer" class="s1" d="m280.1 269.4h36.9v113h-36.9z"/>
		<path id="Layer" class="s1" d="m334.9 219.4h36.9v163h-36.9z"/>
		<path id="Layer" class="s1" d="m389.6 129.3h36.9v253.1h-36.9z"/>
		<path id="Layer" class="s2" d="m243.2 277.5l-54.8-69.8-53.6 28.3-53.7 40.3-3-4.1 54-40.4 0.2-0.1 57.4-30.4 54.7 69.7 51.6-29.7 55.9-48.7 56.7-91.1 4.3 2.6-57.1 91.8-57.1 49.6-55.5 32z"/>
		<path id="Layer" class="s3" d="m86.2 274.3c0 2.6-1.6 5-4.1 6-2.5 1.1-5.3 0.5-7.2-1.4-1.9-1.9-2.4-4.7-1.4-7.2 1-2.4 3.4-4 6.1-4.1q1.3 0.1 2.5 0.6 1.2 0.5 2.1 1.4 1 0.9 1.5 2.1 0.5 1.2 0.5 2.5z"/>
		<path id="Layer" fill-rule="evenodd" class="s2" d="m79.6 283.4c-3.7 0-7-2.3-8.4-5.7-1.4-3.4-0.7-7.3 1.9-9.9 2.6-2.6 6.6-3.4 10-2 3.4 1.5 5.6 4.8 5.6 8.5 0 1.1-0.3 2.3-0.7 3.4-0.5 1.1-1.2 2.1-2 3-0.8 0.8-1.8 1.5-2.9 2-1.2 0.4-2.3 0.6-3.5 0.7zm0-13.2c-1.7 0-3.2 0.9-3.8 2.5-0.7 1.5-0.3 3.3 0.9 4.4 1.1 1.2 2.9 1.6 4.4 0.9 1.6-0.6 2.6-2.1 2.6-3.7q0-0.9-0.3-1.6-0.4-0.8-0.9-1.3-0.6-0.6-1.4-0.9-0.7-0.3-1.5-0.3z"/>
		<path id="Layer" class="s3" d="m133.5 240.5c-3.6 0-6.6-2.9-6.6-6.6 0-3.6 3-6.6 6.6-6.6 3.6 0 6.6 3 6.6 6.6 0 3.7-3 6.6-6.6 6.6z"/>
		<path id="Layer" fill-rule="evenodd" class="s2" d="m133.5 243c-3.7 0-7-2.2-8.4-5.6-1.4-3.4-0.7-7.3 2-9.9 2.6-2.6 6.5-3.4 9.9-2 3.4 1.4 5.6 4.7 5.6 8.4 0 1.2-0.2 2.4-0.7 3.5-0.5 1.1-1.1 2.1-2 2.9-0.8 0.9-1.8 1.5-2.9 2-1.1 0.5-2.3 0.7-3.5 0.7zm0-13.2c-1.7 0-3.2 1-3.8 2.5-0.6 1.6-0.3 3.3 0.9 4.5 1.2 1.2 2.9 1.5 4.5 0.9 1.5-0.6 2.5-2.1 2.5-3.8q0-0.8-0.3-1.6-0.3-0.7-0.9-1.3-0.6-0.6-1.3-0.9-0.8-0.3-1.6-0.3z"/>
		<path id="Layer" class="s3" d="m195.7 204.5c0 2.7-1.6 5.1-4.1 6.1-2.5 1-5.3 0.5-7.2-1.4-1.9-1.9-2.5-4.7-1.4-7.2 1-2.5 3.4-4.1 6.1-4.1q1.3 0 2.5 0.5 1.2 0.5 2.1 1.5 1 0.9 1.5 2.1 0.5 1.2 0.5 2.5z"/>
		<path id="Layer" fill-rule="evenodd" class="s2" d="m189.1 213.6c-3.7 0-7-2.2-8.4-5.6-1.5-3.4-0.7-7.3 1.9-9.9 2.6-2.6 6.5-3.4 9.9-2 3.4 1.4 5.7 4.7 5.7 8.4 0 1.2-0.3 2.4-0.7 3.5-0.5 1.1-1.2 2.1-2 3-0.8 0.8-1.8 1.5-3 1.9-1.1 0.5-2.2 0.7-3.4 0.7zm0-13.2c-1.7 0-3.2 1-3.8 2.6-0.7 1.5-0.3 3.3 0.9 4.4 1.1 1.2 2.9 1.6 4.4 0.9 1.6-0.6 2.6-2.1 2.6-3.8q0-0.8-0.4-1.5-0.3-0.8-0.8-1.4-0.6-0.5-1.4-0.9-0.7-0.3-1.5-0.3z"/>
		<path id="Layer" class="s3" d="m250.4 273.1c0 2.7-1.6 5.1-4.1 6.1-2.4 1-5.3 0.4-7.2-1.4-1.8-1.9-2.4-4.8-1.4-7.2 1-2.5 3.4-4.1 6.1-4.1q1.3 0 2.5 0.5 1.3 0.5 2.2 1.4 0.9 1 1.4 2.2 0.5 1.2 0.5 2.5z"/>
		<path id="Layer" fill-rule="evenodd" class="s2" d="m243.8 282.2c-3.7 0-7-2.2-8.4-5.6-1.4-3.4-0.6-7.3 2-9.9 2.6-2.6 6.5-3.4 9.9-2 3.4 1.4 5.6 4.7 5.6 8.4 0 1.2-0.2 2.4-0.7 3.5-0.4 1.1-1.1 2.1-2 2.9-0.8 0.9-1.8 1.5-2.9 2-1.1 0.5-2.3 0.7-3.5 0.7zm0-13.2c-1.6 0-3.1 1-3.8 2.5-0.6 1.5-0.3 3.3 0.9 4.5 1.2 1.2 2.9 1.5 4.5 0.9 1.5-0.7 2.5-2.2 2.5-3.8q0-0.8-0.3-1.6-0.3-0.7-0.9-1.3-0.6-0.6-1.3-0.9-0.8-0.3-1.6-0.3z"/>
		<path id="Layer" class="s3" d="m298.6 249.3c-3.7 0-6.6-2.9-6.6-6.6 0-3.6 2.9-6.6 6.6-6.6 3.6 0 6.6 3 6.6 6.6 0 3.7-3 6.6-6.6 6.6z"/>
		<path id="Layer" fill-rule="evenodd" class="s2" d="m298.6 251.8c-3.7 0-7-2.2-8.4-5.6-1.5-3.4-0.7-7.3 1.9-9.9 2.6-2.6 6.5-3.4 9.9-2 3.4 1.4 5.7 4.7 5.7 8.4 0 1.2-0.3 2.4-0.7 3.5-0.5 1.1-1.2 2.1-2 2.9-0.9 0.9-1.9 1.6-3 2-1.1 0.5-2.2 0.7-3.4 0.7zm0-13.2c-1.7 0-3.2 1-3.8 2.5-0.7 1.6-0.3 3.3 0.9 4.5 1.1 1.2 2.9 1.5 4.4 0.9 1.6-0.6 2.6-2.1 2.6-3.8q0-0.8-0.4-1.6-0.3-0.7-0.8-1.3-0.6-0.6-1.4-0.9-0.7-0.3-1.5-0.3z"/>
		<path id="Layer" class="s3" d="m353.8 200.2c-3.7 0-6.6-3-6.6-6.6 0-3.7 2.9-6.6 6.6-6.6 3.6 0 6.6 2.9 6.6 6.6 0 3.6-3 6.6-6.6 6.6z"/>
		<path id="Layer" fill-rule="evenodd" class="s2" d="m353.8 202.7c-3.7 0-7-2.2-8.4-5.6-1.4-3.5-0.6-7.4 2-10 2.6-2.6 6.5-3.3 9.9-1.9 3.4 1.4 5.6 4.7 5.6 8.4 0 1.2-0.2 2.4-0.7 3.5-0.5 1.1-1.1 2.1-2 2.9-0.8 0.9-1.8 1.5-2.9 2-1.1 0.4-2.3 0.7-3.5 0.7zm0-13.2c-1.7 0-3.2 1-3.8 2.5-0.6 1.5-0.3 3.3 0.9 4.5 1.2 1.2 2.9 1.5 4.5 0.9 1.5-0.7 2.5-2.2 2.5-3.8q0-0.8-0.3-1.6-0.3-0.7-0.9-1.3-0.6-0.6-1.3-0.9-0.8-0.3-1.6-0.3z"/>
		<path id="Layer" class="s3" d="m409.6 111.1c-3.7 0-6.6-2.9-6.6-6.6 0-3.6 2.9-6.6 6.6-6.6 3.6 0 6.6 3 6.6 6.6 0 3.7-3 6.6-6.6 6.6z"/>
		<path id="Layer" fill-rule="evenodd" class="s2" d="m409.6 113.6c-3.7 0-7-2.2-8.4-5.6-1.4-3.4-0.7-7.3 1.9-9.9 2.6-2.6 6.6-3.4 10-2 3.4 1.4 5.6 4.7 5.6 8.4 0 1.2-0.3 2.4-0.7 3.5-0.5 1.1-1.1 2.1-2 3-0.8 0.8-1.8 1.5-2.9 1.9-1.1 0.5-2.3 0.7-3.5 0.7zm0-13.2c-1.7 0-3.2 1-3.8 2.6-0.6 1.5-0.3 3.3 0.9 4.4 1.2 1.2 2.9 1.6 4.5 0.9 1.5-0.6 2.5-2.1 2.5-3.8q0-0.8-0.3-1.5-0.3-0.8-0.9-1.4-0.6-0.5-1.4-0.9-0.7-0.3-1.5-0.3z"/>
	</g>
	<g id="freepik--Shadow--inject-60">
		<path id="freepik--path--inject-60" class="s4" d="m250 427.6c-107.2 0-193.9-5.1-193.9-11.4 0-6.2 86.7-11.3 193.9-11.3 107.2 0 193.9 5.1 193.9 11.3 0 6.3-86.7 11.4-193.9 11.4z"/>
	</g>
	<g id="freepik--Plant--inject-60">
		<path id="Layer" class="s5" d="m382 385.6h-0.9c0-1.4 1.1-34.5 6.9-40 5.9-5.8 12.8-0.1 12.9 0l-0.6 0.7c-0.3-0.2-6.4-5.2-11.7 0-5.5 5.2-6.6 38.9-6.6 39.3z"/>
		<path id="Layer" class="s5" d="m381.5 392.2l-0.9-0.1c0-0.4 3.7-40.1-10.7-56.6l0.7-0.6c14.6 16.8 10.9 56.9 10.9 57.3z"/>
		<path id="Layer" class="s5" d="m382 388c-0.1-1.9-2.9-46 8.2-56.2l0.6 0.7c-10.7 9.9-7.9 55-7.9 55.4z"/>
		<path id="Layer" class="s5" d="m380.6 387.9c0-0.3-0.4-30-8.3-34.4q-0.5-0.4-1-0.6-0.6-0.2-1.2-0.2-0.6-0.1-1.2 0-0.6 0.1-1.1 0.3c-4.6 1.9-7.1 10.7-7.1 10.8l-0.9-0.2c0.1-0.4 2.6-9.4 7.6-11.5q0.7-0.2 1.4-0.3 0.7-0.1 1.4-0.1 0.7 0.1 1.4 0.3 0.6 0.3 1.2 0.6c8.4 4.8 8.7 34 8.7 35.3z"/>
		<path id="Layer" class="s5" d="m383.8 388c-0.1-0.9-1.3-23.4 5.1-31.8 1.7-2.2 3.6-3.2 5.6-3.1 4.5 0.3 8 6.5 8.2 6.7l-0.8 0.5c0-0.1-3.4-6-7.4-6.2q-2.6-0.2-4.8 2.7c-6.2 8.1-5 30.9-5 31.1z"/>
		<path id="Layer" class="s5" d="m382.5 391.1l-0.9-0.1c0-0.5 4-54.1-2.6-63.1l0.8-0.5c6.8 9.2 2.9 61.5 2.7 63.7z"/>
		<path id="Layer" class="s5" d="m365.6 357.5c0 0 4.1 1.5 2.8 5-1.2 3.6-14.1 9.4-14.1 9.4 0 0-5.4-5-0.4-13 5-8 11.6-4 11.7-1.4z"/>
		<path id="Layer" class="s6" d="m365.6 357.5c0 0 4.1 1.5 2.8 5-1.2 3.6-14.1 9.4-14.1 9.4 0 0-5.4-5-0.4-13 5-8 11.6-4 11.7-1.4z"/>
		<path id="Layer" class="s5" d="m383.3 350.7c0 0-4.3-0.2-4.6 3.6-0.2 3.7 9.5 14.1 9.5 14.1 0 0 6.8-2.5 5.4-11.9-1.5-9.3-9.2-8.1-10.3-5.8z"/>
		<path id="Layer" class="s6" d="m383.3 350.7c0 0-4.3-0.2-4.6 3.6-0.2 3.7 9.5 14.1 9.5 14.1 0 0 6.8-2.5 5.4-11.9-1.5-9.3-9.2-8.1-10.3-5.8z"/>
		<path id="Layer" class="s5" d="m387 332.8c0 0-2.9-0.4-2.7-2.1 0.3-1.8 11.3-6.3 17.8 1 0 0-4.1 7.1-10.2 7.2-6 0.1-4.9-6.1-4.9-6.1z"/>
		<path id="Layer" class="s6" d="m387 332.8c0 0-2.9-0.4-2.7-2.1 0.3-1.8 11.3-6.3 17.8 1 0 0-4.1 7.1-10.2 7.2-6 0.1-4.9-6.1-4.9-6.1z"/>
		<path id="Layer" class="s5" d="m381.6 328.5c0 0 2.6 1.2 3.4-0.4 0.7-1.6-6.3-11.3-15.7-8.5 0 0-0.2 8.3 4.8 11.5 5.1 3.3 7.5-2.6 7.5-2.6z"/>
		<path id="Layer" class="s6" d="m381.6 328.5c0 0 2.6 1.2 3.4-0.4 0.7-1.6-6.3-11.3-15.7-8.5 0 0-0.2 8.3 4.8 11.5 5.1 3.3 7.5-2.6 7.5-2.6z"/>
		<path id="Layer" class="s5" d="m395.3 356c0 0-2-1.6 0.2-2.4 2.2-0.8 12.7-0.6 12.9 9.9 0 0-12.4 2.1-13.9-1.9-1.5-4 0.8-5.6 0.8-5.6z"/>
		<path id="Layer" class="s6" d="m395.3 356c0 0-2-1.6 0.2-2.4 2.2-0.8 12.7-0.6 12.9 9.9 0 0-12.4 2.1-13.9-1.9-1.5-4 0.8-5.6 0.8-5.6z"/>
		<path id="Layer" class="s5" d="m370.2 332.5c0 0 2-1.6-0.2-2.4-2.2-0.8-12.7-0.6-12.9 9.9 0 0 12.4 2.1 13.9-1.9 1.5-4-0.8-5.6-0.8-5.6z"/>
		<path id="Layer" class="s6" d="m370.2 332.5c0 0 2-1.6-0.2-2.4-2.2-0.8-12.7-0.6-12.9 9.9 0 0 12.4 2.1 13.9-1.9 1.5-4-0.8-5.6-0.8-5.6z"/>
		<path id="Layer" class="s5" d="m376.7 341c0 0 0.2-2-1.4-1.2-1.6 0.8-7.1 6.7-1.4 12.4 0 0 7.7-5.7 6.3-8.7-1.4-3-3.5-2.5-3.5-2.5z"/>
		<path id="Layer" class="s6" d="m376.7 341c0 0 0.2-2-1.4-1.2-1.6 0.8-7.1 6.7-1.4 12.4 0 0 7.7-5.7 6.3-8.7-1.4-3-3.5-2.5-3.5-2.5z"/>
		<path id="Layer" class="s5" d="m397.1 343.7c0 0-1.2-1.5 0.6-1.7 1.7-0.2 9.6 1.9 7.7 9.7 0 0-9.5-0.7-10-4-0.4-3.3 1.7-4 1.7-4z"/>
		<path id="Layer" class="s6" d="m397.1 343.7c0 0-1.2-1.5 0.6-1.7 1.7-0.2 9.6 1.9 7.7 9.7 0 0-9.5-0.7-10-4-0.4-3.3 1.7-4 1.7-4z"/>
		<path id="Layer" class="s7" d="m366.3 417h30.9l4.1-30h-39.1l4.1 30z"/>
		<path id="Layer" class="s8" d="m366.3 417h30.9l4.1-30h-39.1l4.1 30z"/>
		<path id="Layer" class="s7" d="m405.2 384.5v2.9q0 0.7-0.3 1.3-0.2 0.6-0.7 1.1-0.5 0.5-1.1 0.8-0.7 0.2-1.4 0.2h-40.3q-0.7 0-1.3-0.2-0.7-0.3-1.2-0.8-0.5-0.5-0.7-1.1-0.3-0.6-0.3-1.3v-2.9z"/>
	</g>
	<g id="freepik--Arrow--inject-60">
		<path id="Layer" class="s5" d="m402 167.2h-8.1c-0.6 19.7-7 124.6-82.1 183.4-66.7 52.3-136.4 58.3-177.5 58.3-7.2 0-13.5-0.2-18.7-0.3-3.6-0.1-6.7-0.2-9-0.2v-40c3 0 6.3 0.1 10.2 0.2 33.6 1 103.4 3 170.4-49.5 59.3-46.5 66-134.4 66.7-151.9h-8l28.1-38z"/>
		<path id="Layer" class="s9" d="m402 167.2h-8.1c-0.6 19.7-7 124.6-82.1 183.4-66.7 52.3-136.4 58.3-177.5 58.3-7.2 0-13.5-0.2-18.7-0.3-3.6-0.1-6.7-0.2-9-0.2v-14.7c90.5-1 151.3-19.3 199.9-61 66.8-57.4 70.7-164.6 70.7-164.6l14.4-4-17.6-35z"/>
		<path id="Layer" class="s5" d="m393.8 169.6h-40c-0.4 0-0.8-0.2-1.1-0.4-0.3-0.3-0.4-0.7-0.4-1.1 0-0.4 0.1-0.8 0.4-1.1 0.3-0.2 0.7-0.4 1.1-0.4h40c0.4 0 0.8 0.2 1.1 0.4 0.2 0.3 0.4 0.7 0.4 1.1 0 0.4-0.2 0.8-0.4 1.1-0.3 0.2-0.7 0.4-1.1 0.4z"/>
		<path id="Layer" class="s6" d="m393.8 169.6h-40c-0.4 0-0.8-0.2-1.1-0.4-0.3-0.3-0.4-0.7-0.4-1.1 0-0.4 0.1-0.8 0.4-1.1 0.3-0.2 0.7-0.4 1.1-0.4h40c0.4 0 0.8 0.2 1.1 0.4 0.2 0.3 0.4 0.7 0.4 1.1 0 0.4-0.2 0.8-0.4 1.1-0.3 0.2-0.7 0.4-1.1 0.4z"/>
	</g>
	<g id="freepik--speech-bubble--inject-60">
		<path id="Layer" class="s5" d="m136.5 137.6h-28.7c-1.2 0-2.3 0.2-3.4 0.6-1.1 0.5-2.1 1.1-2.9 2-0.8 0.8-1.5 1.8-1.9 2.8-0.4 1.1-0.7 2.3-0.7 3.4v25c0 1.2 0.3 2.3 0.7 3.4 0.4 1.1 1.1 2.1 1.9 2.9 0.8 0.8 1.8 1.5 2.9 1.9 1.1 0.4 2.2 0.7 3.4 0.7h8.4v9.9l6-9.9h14.4c1.1 0 2.3-0.3 3.3-0.7 1.1-0.5 2.1-1.1 2.9-1.9 0.8-0.8 1.5-1.8 1.9-2.9 0.5-1.1 0.7-2.2 0.7-3.4v-25c0-1.1-0.2-2.3-0.7-3.4-0.4-1.1-1.1-2-1.9-2.9-0.8-0.8-1.8-1.4-2.9-1.9-1.1-0.4-2.2-0.6-3.4-0.6z"/>
		<path id="Layer" class="s10" d="m136.5 137.6h-28.7c-1.2 0-2.3 0.2-3.4 0.6-1.1 0.5-2.1 1.1-2.9 2-0.8 0.8-1.5 1.8-1.9 2.8-0.4 1.1-0.7 2.3-0.7 3.4v25c0 1.2 0.3 2.3 0.7 3.4 0.4 1.1 1.1 2.1 1.9 2.9 0.8 0.8 1.8 1.5 2.9 1.9 1.1 0.4 2.2 0.7 3.4 0.7h8.4v9.9l6-9.9h14.4c1.1 0 2.3-0.3 3.3-0.7 1.1-0.5 2.1-1.1 2.9-1.9 0.8-0.8 1.5-1.8 1.9-2.9 0.5-1.1 0.7-2.2 0.7-3.4v-25c0-1.1-0.2-2.3-0.7-3.4-0.4-1.1-1.1-2-1.9-2.9-0.8-0.8-1.8-1.4-2.9-1.9-1.1-0.4-2.2-0.6-3.4-0.6z"/>
		<path id="Layer" class="s5" d="m136 162.1c-1.8 7.7-9.5 12.4-17.1 10.6-7.7-1.8-12.5-9.5-10.6-17.2 1.8-7.6 9.4-12.4 17.1-10.6 7.7 1.8 12.4 9.5 10.6 17.2z"/>
		<path id="Layer" class="s11" d="m120.6 165.2q-0.1 0-0.2 0-0.2-0.1-0.3-0.1-0.1-0.1-0.2-0.2-0.2-0.1-0.3-0.2l-5.5-6.6c-0.3-0.2-0.4-0.6-0.4-0.9 0.1-0.4 0.2-0.7 0.5-0.9 0.3-0.2 0.6-0.4 1-0.3 0.3 0 0.6 0.2 0.8 0.4l4.6 5.4 7.6-8.9c0.3-0.3 0.6-0.4 0.9-0.5 0.4 0 0.7 0.1 1 0.4 0.2 0.2 0.4 0.5 0.4 0.8 0.1 0.4 0 0.7-0.3 1l-8.6 10.1q-0.1 0.1-0.2 0.2-0.1 0.1-0.2 0.2-0.1 0-0.3 0-0.1 0.1-0.3 0.1z"/>
	</g>
	<g id="freepik--Character--inject-60">
		<path id="Layer" class="s12" d="m169.1 192.6l-0.8 1.7c0 0-4 3.5-2.3 5.9l3.2 1.6 4.4-2.3q0.2-0.2 0.4-0.4 0.2-0.2 0.4-0.4 0.2-0.2 0.3-0.5 0.1-0.2 0.1-0.5l0.6-3.2q0.1-0.5 0-0.9-0.1-0.5-0.3-0.9-0.3-0.4-0.7-0.7-0.4-0.3-0.8-0.4l-1.5-0.4q-0.4-0.1-0.9-0.1-0.4 0.1-0.8 0.3-0.4 0.1-0.7 0.4-0.4 0.4-0.6 0.8z"/>
		<path id="Layer" class="s5" d="m164.5 201.8l0.9-2.6 4.5 2.3-1 2.4-4.4-2.1z"/>
		<path id="Layer" class="s10" d="m164.5 201.8l0.9-2.6 4.5 2.3-1 2.4-4.4-2.1z"/>
		<path id="Layer" class="s7" d="m169.5 203.2c-1.6 4.3-3.5 8.5-5.6 12.6q-1.5 3.1-3.3 6.2c-0.2 0.5-0.6 1-0.9 1.5-0.3 0.6-0.6 1-1 1.6l-0.5 0.8-0.6 0.8-0.3 0.4c-0.2 0.2-0.4 0.4-0.5 0.5q-0.2 0.2-0.3 0.3-0.1 0.1-0.2 0.2-0.1 0.1-0.3 0.2-0.1 0.2-0.2 0.3-0.5 0.3-0.9 0.6-0.5 0.3-1 0.6-0.4 0.3-0.9 0.6-0.5 0.2-1 0.4-0.4 0.3-0.9 0.4-0.4 0.2-0.9 0.4-0.4 0.2-0.9 0.4-0.4 0.1-0.9 0.3-0.8 0.3-1.7 0.6-0.9 0.2-1.7 0.5-0.9 0.2-1.8 0.5-0.9 0.2-1.8 0.4-2.7 0.6-5.3 1.1-3 0.6-6.1 1-1.2 0.1-2.5 0.3l-1-9.2c4.3-0.6 8.7-1.3 13-2.1 2.1-0.5 4.2-1 6.2-1.5q1.5-0.4 2.8-1 0.3-0.1 0.6-0.2 0.2-0.2 0.5-0.3 0.3-0.1 0.5-0.3 0.3-0.1 0.6-0.3l0.2-0.2h0.1l0.2-0.3 0.5-0.5 0.5-0.6q0.4-0.6 1-1.2c0.3-0.4 0.6-0.9 1-1.3q1.9-2.7 3.8-5.5c2.5-3.7 6.7-11.4 6.7-11.4z"/>
		<path id="Layer" class="s13" d="m136.1 235.4q-3 0.6-6.1 1l-1.3-5.2q1 0.3 2 0.7 1 0.4 2 0.9 0.9 0.6 1.8 1.2 0.8 0.7 1.6 1.4z"/>
		<path id="Layer" class="s5" d="m96.2 244.6q1.3 2 2.6 4 1.3 2.1 2.4 4.1 1.2 2.1 2.3 4.2 1.1 2.1 2.2 4.3c2 4.2 3.9 8.4 5.4 12.2 3.7 8.9 5.9 15.9 7 18.2l30-13.6c-7.9-36.2-22.3-50.2-22.3-50.2q-0.9 0.2-1.9 0.5-1 0.2-1.9 0.5-1 0.3-1.9 0.7-0.9 0.3-1.9 0.7c-0.5 0.2-1 0.4-1.6 0.6q-1.5 0.8-3.1 1.5-1.5 0.8-3.1 1.7-1.5 0.8-3 1.7-1.5 0.8-3 1.8-1.1 0.6-2.2 1.4-0.8 0.6-1.6 1.2-0.9 0.7-1.6 1.4-0.8 0.7-1.5 1.5-0.7 0.8-1.3 1.6z"/>
		<path id="Layer" class="s10" d="m96.2 244.6q1.3 2 2.6 4 1.3 2.1 2.4 4.1 1.2 2.1 2.3 4.2 1.1 2.1 2.2 4.3c2 4.2 3.9 8.4 5.4 12.2 3.7 8.9 5.9 15.9 7 18.2l30-13.6c-7.9-36.2-22.3-50.2-22.3-50.2q-0.9 0.2-1.9 0.5-1 0.2-1.9 0.5-1 0.3-1.9 0.7-0.9 0.3-1.9 0.7c-0.5 0.2-1 0.4-1.6 0.6q-1.5 0.8-3.1 1.5-1.5 0.8-3.1 1.7-1.5 0.8-3 1.7-1.5 0.8-3 1.8-1.1 0.6-2.2 1.4-0.8 0.6-1.6 1.2-0.9 0.7-1.6 1.4-0.8 0.7-1.5 1.5-0.7 0.8-1.3 1.6z"/>
		<path id="Layer" class="s12" d="m97.4 411.4l5.7 1.9 6.1-12.8-5.8-1.9-6 12.8z"/>
		<path id="Layer" class="s12" d="m200.3 413.3l5.8-1.9-2.7-13.9-5.7 1.8 2.6 14z"/>
		<path id="Layer" class="s7" d="m140.1 273.7c0 0 1 62.2-1.1 76.3-2.2 14.1-30.3 57.5-30.3 57.5l-10.2-5.1c0 0 22.5-46.5 23.2-52.6 0.6-6-5.3-55.5-5.3-55.5z"/>
		<path id="Layer" class="s14" d="m116.4 294.3c0 0 0.2 1.9 0.6 4.9 0.5 4.2 1.2 10.4 1.9 17.2 1.5 14 3.1 30.1 2.8 33.4-0.7 6-23.1 52.6-23.1 52.6l10.1 5.1c0 0 28.2-43.4 30.3-57.5 2.1-14.1 1.2-76.3 1.2-76.3z"/>
		<path id="Layer" class="s7" d="m144 270.9c0 0 28.3 38.9 37.6 54.2 10.1 16.7 24.7 76.3 24.7 76.3l-9.6 5.7c0 0-16.7-54-27.8-70-12.5-17.9-43.6-52.3-43.6-52.3z"/>
		<g id="Layer" style="opacity: .1">
			<path id="Layer" class="s11" d="m144 270.9c0 0 28.3 38.9 37.6 54.2 10.1 16.7 24.7 76.3 24.7 76.3l-9.6 5.7c0 0-16.7-54-27.8-70-12.5-17.9-43.6-52.3-43.6-52.3z"/>
		</g>
		<path id="Layer" class="s7" d="m206.7 410h-7.4q-0.1 0-0.2 0-0.1 0.1-0.2 0.1 0 0.1-0.1 0.2 0 0 0 0.1l-1.3 5.4q0 0.2 0 0.4 0.1 0.2 0.2 0.4 0.1 0.1 0.3 0.2 0.2 0.1 0.4 0.1c2.4 0 4.1-0.2 7.1-0.2 1.9 0 7.4 0.2 10 0.2 2.6 0 2.9-2.5 1.9-2.8-4.7-1-8.2-2.4-9.7-3.7q-0.1-0.1-0.2-0.2-0.1-0.1-0.3-0.1-0.1-0.1-0.2-0.1-0.2 0-0.3 0z"/>
		<path id="Layer" class="s5" d="m118.5 239q1.3 1.4 2.6 2.9 1.3 1.4 2.5 2.9 1.2 1.5 2.3 3.1 1.2 1.6 2.3 3.2c0.1 1.4 1.1 4.3 1.2 5.8-1.3-0.9-3.6-2.8-4.9-3.7-2.8-5.4-5.2-11.1-7.2-13.6z"/>
		<path id="Layer" class="s5" d="m119.2 240.8l-0.2-3.2h-2.4l-1.1 1.6 3.7 1.6z"/>
		<path id="Layer" class="s12" d="m116.5 237.6q-1.3 0.7-2.8 1.1-1.4 0.3-2.9 0.4-1.5 0.1-2.9-0.2-1.5-0.2-2.8-0.8c1-2.5-0.2-6.2-1.9-9.6q-0.3-0.7-0.7-1.3-0.4-0.7-0.7-1.4-0.4-0.6-0.9-1.3-0.4-0.6-0.8-1.2l10.6 3.1c0.4 2.1 0.9 4 2.2 5.1q0.4 0.4 0.9 0.6 0.4 0.2 0.9 0.3 0.5 0.1 1 0.1 0.6 0 1-0.1c1.4 1 3.3 3.6-0.2 5.2z"/>
		<path id="Layer" class="s11" d="m116.6 237.6c0 0-0.6 2.3-1.4 4.6-2.8-0.1-9.7-1-10.8-4.1q0-0.2 0-0.5 0.1-0.3 0.2-0.6 0.1-0.2 0.2-0.5 0.2-0.2 0.4-0.4 1.4 0.4 2.8 0.7 1.4 0.3 2.8 0.5 1.4 0.2 2.9 0.2 1.4 0.1 2.9 0.1z"/>
		<path id="Layer" class="s11" d="m116.6 237.6q0.6 0.1 1.2 0.4 0.5 0.2 1.1 0.4 0.6 0.3 1.1 0.6 0.5 0.3 1.1 0.6c1.1-1.9-3-7-3.9-7.3q-0.5-0.2-1-0.3-0.5-0.1-1-0.2-0.5 0-1 0-0.5 0-1 0 0.6 0.6 1.2 1.2 0.6 0.7 1 1.4 0.4 0.7 0.7 1.5 0.3 0.8 0.5 1.7z"/>
		<path id="Layer" class="s9" d="m112.9 231.5q-1.3 0-2.5-0.2-1.3-0.2-2.5-0.6-1.3-0.4-2.4-0.9-1.2-0.6-2.3-1.3-0.3-0.6-0.7-1.3-0.4-0.7-0.7-1.3-0.4-0.7-0.9-1.4-0.4-0.6-0.8-1.2l10.6 3.1c0.4 2.1 0.9 4 2.2 5.1z"/>
		<path id="Layer" class="s7" d="m158.5 288.7l-10.4 2.9-9.2-10.8-0.4 14.6-23 7.1q0.1-2.3 0-4.6 0-2.3-0.2-4.6-0.2-2.3-0.5-4.6-0.4-2.3-0.9-4.5 0-0.3-0.1-0.7c-1.2-4.1-4.7-11.8-8.5-19.2-5-10-10.2-19.6-10.2-19.6q0.9-1 1.8-1.8 0.9-0.9 2-1.8 1-0.8 2.1-1.5 1-0.7 2.2-1.3c0.7-0.5 13.4 8.7 26.2 18.6 0 0-3-21.5-13.2-25.9q1.2-0.7 2.5-1.2 1.3-0.6 2.5-1 1.3-0.5 2.7-0.8 1.3-0.3 2.6-0.5c0.9-0.2 15 16.7 20 43.7z"/>
		<path id="Layer" class="s14" d="m112.9 246.9l-0.8 8.1c0 0 14.6 0.7 25.2 10.7l-5.5-6.3 0.8-16.8-6.9-2.3 2.4-6.2c0 0-8-4-11.9-3.1 10.1 4.4 13.2 25.9 13.2 25.9-12.8-9.9-26.2-18.7-26.2-18.7q-0.5 1.4-0.8 2.9-0.2 1.4-0.3 2.9 0 1.4 0.1 2.9 0.2 1.4 0.5 2.9z"/>
		<path id="Layer" class="s7" d="m112.4 208.4c1.5 1.8 3 6.4-0.6 6.2-3.6-0.1-2.2-9.4 0.6-6.2z"/>
		<path id="Layer" class="s12" d="m98.1 217.8c2 5.6 2.9 9 6.7 11.1 5.6 3.2 12-1.6 11.7-7.7-0.3-5.6-3.5-13.9-9.8-14.5-1.4-0.1-2.8 0.1-4.1 0.7-1.2 0.5-2.4 1.4-3.2 2.5-0.9 1.1-1.4 2.4-1.7 3.8-0.2 1.3 0 2.8 0.4 4.1z"/>
		<path id="Layer" class="s7" d="m100.7 213.2l-2.6-6.2c0 0-6.7 2.3-5 5.5-2.9 3.3 1.2 8.3 7.3 9 1.7-3.3-0.7-8.3-0.7-8.3q0.5 0 1 0z"/>
		<path id="Layer" class="s12" d="m97.3 223.2q0.3 0.5 0.7 0.9 0.4 0.3 0.9 0.7 0.4 0.3 0.9 0.5 0.6 0.2 1.1 0.3c2 0.4 2.8-1.5 2.1-3.2-0.6-1.6-2.4-3.7-4.3-3.3q-0.6 0.2-1.1 0.6-0.5 0.5-0.7 1.1-0.2 0.6-0.1 1.2 0.1 0.7 0.5 1.2z"/>
		<path id="Layer" class="s7" d="m107.3 216.8c0.1 0.5 0.5 0.8 0.8 0.7 0.3-0.1 0.5-0.6 0.3-1-0.1-0.5-0.5-0.8-0.8-0.7-0.3 0.1-0.4 0.5-0.3 1z"/>
		<path id="Layer" class="s7" d="m112.6 215.2c0.1 0.5 0.5 0.8 0.8 0.7 0.3-0.1 0.4-0.5 0.3-1-0.1-0.4-0.5-0.8-0.8-0.7-0.3 0.1-0.4 0.6-0.3 1z"/>
		<path id="Layer" class="s15" d="m111 216q0.4 0.5 0.8 0.9 0.4 0.4 0.8 0.8 0.4 0.4 0.8 0.8 0.5 0.4 1 0.7-0.2 0.2-0.5 0.4-0.2 0.2-0.5 0.3-0.3 0.1-0.5 0.2-0.3 0.1-0.6 0.1z"/>
		<path id="Layer" class="s7" d="m110.2 222.8q0.1 0 0.2 0 0 0 0.1 0 0.1 0 0.2 0 0.1-0.1 0.1-0.1 0.1 0 0.1 0 0 0 0 0 0-0.1 0-0.1 0.1 0 0 0 0-0.1 0-0.1 0 0 0 0 0-0.1-0.1-0.1 0 0 0 0-0.5 0.1-0.9 0.1-0.5 0-0.9-0.1-0.5-0.1-0.9-0.3-0.4-0.2-0.7-0.5 0 0 0 0-0.1 0-0.1 0 0 0-0.1 0 0 0 0 0 0 0 0 0.1 0 0 0 0 0 0 0 0.1 0 0 0 0 0.3 0.3 0.7 0.5 0.3 0.2 0.7 0.3 0.4 0.2 0.8 0.2 0.4 0 0.8 0z"/>
		<path id="Layer" class="s7" d="m104.7 214.8q0 0.1 0.1 0.1 0 0 0 0 0.1 0 0.1 0 0.1 0 0.1-0.1 0.2-0.1 0.5-0.2 0.2-0.1 0.5-0.1 0.3 0 0.5 0 0.3 0 0.6 0.1 0 0 0.1 0.1 0 0 0.1-0.1 0 0 0.1 0 0-0.1 0-0.1 0.1-0.1 0.1-0.1 0-0.1-0.1-0.1 0-0.1 0-0.1-0.1-0.1-0.1-0.1-0.3-0.1-0.7-0.2-0.3 0-0.6 0-0.4 0.1-0.7 0.2-0.3 0.1-0.6 0.3-0.1 0-0.1 0 0 0.1 0 0.1-0.1 0.1 0 0.2 0 0 0 0.1 0 0 0 0 0 0 0 0 0.1 0 0.1 0 0 0 0 0z"/>
		<path id="Layer" class="s7" d="m114.5 211.5q0 0 0 0 0 0 0-0.1 0 0 0 0 0 0 0 0 0-0.1-0.1-0.1 0-0.1 0-0.1-0.1-0.1-0.1-0.1-0.1 0-0.1 0-0.4 0-0.7 0.2-0.3 0.1-0.6 0.2-0.3 0.2-0.5 0.5-0.3 0.2-0.4 0.5-0.1 0.1-0.1 0.1 0 0.1 0 0.1 0.1 0.1 0.1 0.1 0 0.1 0.1 0.1 0 0 0.1 0 0.1 0 0.1 0 0.1 0 0.1 0 0-0.1 0.1-0.1 0.1-0.3 0.3-0.5 0.2-0.1 0.4-0.3 0.2-0.1 0.5-0.2 0.3-0.1 0.5-0.1 0.1 0 0.1 0 0 0 0.1-0.1 0 0 0 0 0.1 0 0.1-0.1z"/>
		<path id="Layer" class="s7" d="m98.8 216.7c0 0 3.3-3 4.1-6 0 0 3.9-0.6 5.2 0.5q0.2-0.3 0.2-0.7 0-0.3-0.1-0.6-0.1-0.4-0.3-0.7-0.2-0.3-0.5-0.4c-0.2-0.2 2.9-0.6 4.1 1q0.3-0.3 0.5-0.7 0.1-0.4 0.1-0.7 0.1-0.4 0-0.8-0.1-0.4-0.3-0.7 0.4 0 0.8 0.2 0.3 0.1 0.7 0.3 0.3 0.2 0.6 0.5 0.2 0.3 0.4 0.7c0.1 0.2 0.4-7.3-9.9-5q0.2-0.2 0.4-0.4 0.3-0.2 0.6-0.4 0.2-0.1 0.5-0.3 0.3-0.1 0.5-0.3c0.2 0-7.8 0.2-12 4.9-4.2 4.7-1.3 9.1 4.4 9.6z"/>
		<path id="Layer" class="s7" d="m104.6 410h-7.4q-0.1 0-0.2 0 0 0.1-0.1 0.1-0.1 0.1-0.1 0.2-0.1 0-0.1 0.1l-1.3 5.4q0 0.2 0.1 0.4 0 0.2 0.1 0.4 0.2 0.1 0.3 0.2 0.2 0.1 0.4 0.1c2.4 0 4.2-0.2 7.2-0.2 1.8 0 7.4 0.2 10 0.2 2.6 0 2.9-2.5 1.8-2.8-4.7-1-8.2-2.4-9.7-3.7q-0.1-0.1-0.2-0.2-0.1-0.1-0.2-0.1-0.2-0.1-0.3-0.1-0.1 0-0.3 0z"/>
		<path id="Layer" class="s5" d="m86.8 418.5c-1.4 0-2.7 0-4.1-0.1-0.4 0-0.8-0.2-1.1-0.5-0.2-0.3-0.4-0.7-0.3-1.1 0-0.4 0.2-0.8 0.5-1 0.3-0.3 0.7-0.4 1-0.4 14.1 0.9 25.2-2.8 33.2-10.9 15.7-15.9 15-44.8 14.3-53.2-3.5-48.3 8.2-89.6 8.3-90l0.1-0.2 66.5-147.4c1.1-2.3 2.4-4.4 4-6.3 1.6-1.9 3.5-3.5 5.6-4.9 2.1-1.3 4.4-2.3 6.7-3.1 2.4-0.7 4.9-1 7.4-1h40.7q2.2 0 4.5 0.3 2.2 0.4 4.3 1.1 2.2 0.7 4.2 1.7 2 1 3.9 2.3l86.7 62.2c0.3 0.2 0.6 0.6 0.6 1 0.1 0.4 0 0.8-0.2 1.1-0.3 0.3-0.6 0.5-1 0.6-0.4 0.1-0.8 0-1.1-0.3l-86.8-62.1q-1.6-1.2-3.4-2.1-1.8-0.9-3.8-1.5-1.9-0.7-3.9-1-2-0.3-4-0.3h-40.7c-2.2 0-4.4 0.3-6.5 1-2.1 0.6-4.1 1.5-5.9 2.7-1.9 1.2-3.6 2.6-5 4.3-1.4 1.6-2.6 3.5-3.5 5.5l-66.5 147.3c-0.7 2.3-11.6 42.3-8.2 88.9 0.8 11.2 1 39.2-15.2 55.5-7.8 7.9-18.3 11.9-31.3 11.9z"/>
		<path id="Layer" class="s6" d="m86.8 418.5c-1.4 0-2.7 0-4.1-0.1-0.4 0-0.8-0.2-1.1-0.5-0.2-0.3-0.4-0.7-0.3-1.1 0-0.4 0.2-0.8 0.5-1 0.3-0.3 0.7-0.4 1-0.4 14.1 0.9 25.2-2.8 33.2-10.9 15.7-15.9 15-44.8 14.3-53.2-3.5-48.3 8.2-89.6 8.3-90l0.1-0.2 66.5-147.4c1.1-2.3 2.4-4.4 4-6.3 1.6-1.9 3.5-3.5 5.6-4.9 2.1-1.3 4.4-2.3 6.7-3.1 2.4-0.7 4.9-1 7.4-1h40.7q2.2 0 4.5 0.3 2.2 0.4 4.3 1.1 2.2 0.7 4.2 1.7 2 1 3.9 2.3l86.7 62.2c0.3 0.2 0.6 0.6 0.6 1 0.1 0.4 0 0.8-0.2 1.1-0.3 0.3-0.6 0.5-1 0.6-0.4 0.1-0.8 0-1.1-0.3l-86.8-62.1q-1.6-1.2-3.4-2.1-1.8-0.9-3.8-1.5-1.9-0.7-3.9-1-2-0.3-4-0.3h-40.7c-2.2 0-4.4 0.3-6.5 1-2.1 0.6-4.1 1.5-5.9 2.7-1.9 1.2-3.6 2.6-5 4.3-1.4 1.6-2.6 3.5-3.5 5.5l-66.5 147.3c-0.7 2.3-11.6 42.3-8.2 88.9 0.8 11.2 1 39.2-15.2 55.5-7.8 7.9-18.3 11.9-31.3 11.9z"/>
		<path id="Layer" class="s13" d="m137.9 261.7c0 0-12.9 16.1-24.1 21.8-1.2-4.1-4.7-11.8-8.5-19.2 1.5-4.3 3-7.4 3-7.4q0.9 0.7 1.7 1.5 0.8 0.8 1.6 1.6 0.7 0.8 1.4 1.7 0.7 0.9 1.4 1.8 2.7-0.2 5.4-0.6 2.6-0.4 5.3-0.9 2.6-0.6 5.2-1.3 2.6-0.7 5.2-1.6z"/>
		<path id="Layer" class="s12" d="m139.4 257.6c0-0.1-5.5-1.1-5.9 1.7l1.2 3.5 5.3 1.3q0.2 0.1 0.4 0.1 0.1 0 0.3 0 0.2 0 0.3-0.1 0.2 0 0.3-0.1l2.4-1.1q0.2-0.1 0.4-0.3 0.2-0.1 0.3-0.3 0.2-0.2 0.2-0.5 0.1-0.2 0.2-0.4l0.2-2.4q0-0.5-0.1-0.9-0.2-0.4-0.5-0.7-0.3-0.3-0.8-0.5-0.4-0.1-0.9 0z"/>
		<path id="Layer" class="s5" d="m134.5 264.3l1.6-0.8-2.9-4.4-1.6 1 2.9 4.2z"/>
		<path id="Layer" class="s10" d="m134.5 264.3l1.6-0.8-2.9-4.4-1.6 1 2.9 4.2z"/>
		<path id="Layer" class="s7" d="m95.1 244.7c-1.7 3 8.1 29 12 32.1 4.8 3.9 28.9-11.8 28.9-11.8l-4.3-5.6c0 0-19 6.9-19.8 6.3-0.8-0.6-4.1-10-4.1-10 0 0-3.3-5.1-6.8-7.8q-0.7-0.5-1.4-1-0.7-0.4-1.4-0.8-0.8-0.5-1.5-0.8-0.8-0.3-1.6-0.6z"/>
		<path id="Layer" fill-rule="evenodd" class="s7" d="m235.2 100.8c2.5 1 4.7 2.5 6.6 4.4 1.9 1.9 3.4 4.1 4.4 6.6 1 2.4 1.5 5.1 1.5 7.7 0 8.2-4.9 15.6-12.5 18.8-7.6 3.1-16.3 1.4-22.1-4.4-5.8-5.8-7.5-14.6-4.4-22.1 3.1-7.6 10.5-12.5 18.7-12.5 2.7 0 5.3 0.5 7.8 1.5zm-18.4 22q0.7-0.3 1.2-0.8 0.5-0.5 0.7-1.1 0.3-0.7 0.3-1.4c0-1.4-0.9-2.7-2.2-3.3-1.3-0.5-2.9-0.2-3.9 0.8-1 1-1.3 2.6-0.7 3.9 0.5 1.3 1.8 2.2 3.2 2.2q0.7 0 1.4-0.3zm12 12q0.7-0.3 1.2-0.8 0.5-0.5 0.7-1.1 0.3-0.7 0.3-1.4c0-1.4-0.9-2.7-2.2-3.3-1.3-0.5-2.9-0.2-3.9 0.8-1 1-1.3 2.6-0.7 3.9 0.5 1.3 1.8 2.2 3.2 2.2q0.7 0 1.4-0.3zm0-24q0.7-0.2 1.2-0.7 0.5-0.5 0.7-1.2 0.3-0.7 0.3-1.4c0-1.4-0.9-2.7-2.2-3.3-1.3-0.5-2.9-0.2-3.9 0.8-1 1-1.3 2.6-0.7 3.9 0.5 1.3 1.8 2.2 3.2 2.2q0.7 0 1.4-0.3zm10.6 12.3q0.7 0 1.4-0.3 0.7-0.2 1.2-0.7 0.5-0.6 0.7-1.2 0.3-0.7 0.3-1.4c0-1.4-0.9-2.7-2.2-3.3-1.3-0.5-2.9-0.2-3.9 0.8-1 1-1.3 2.6-0.7 3.9 0.5 1.3 1.8 2.2 3.2 2.2z"/>
		<path id="Layer" fill-rule="evenodd" class="s6" d="m235.2 100.8c2.5 1 4.7 2.5 6.6 4.4 1.9 1.9 3.4 4.1 4.4 6.6 1 2.4 1.5 5.1 1.5 7.7 0 8.2-4.9 15.6-12.5 18.8-7.6 3.1-16.3 1.4-22.1-4.4-5.8-5.8-7.5-14.6-4.4-22.1 3.1-7.6 10.5-12.5 18.7-12.5 2.7 0 5.3 0.5 7.8 1.5zm-18.4 22q0.7-0.3 1.2-0.8 0.5-0.5 0.7-1.1 0.3-0.7 0.3-1.4c0-1.4-0.9-2.7-2.2-3.3-1.3-0.5-2.9-0.2-3.9 0.8-1 1-1.3 2.6-0.7 3.9 0.5 1.3 1.8 2.2 3.2 2.2q0.7 0 1.4-0.3zm12 12q0.7-0.3 1.2-0.8 0.5-0.5 0.7-1.1 0.3-0.7 0.3-1.4c0-1.4-0.9-2.7-2.2-3.3-1.3-0.5-2.9-0.2-3.9 0.8-1 1-1.3 2.6-0.7 3.9 0.5 1.3 1.8 2.2 3.2 2.2q0.7 0 1.4-0.3zm0-24q0.7-0.2 1.2-0.7 0.5-0.5 0.7-1.2 0.3-0.7 0.3-1.4c0-1.4-0.9-2.7-2.2-3.3-1.3-0.5-2.9-0.2-3.9 0.8-1 1-1.3 2.6-0.7 3.9 0.5 1.3 1.8 2.2 3.2 2.2q0.7 0 1.4-0.3zm10.6 12.3q0.7 0 1.4-0.3 0.7-0.2 1.2-0.7 0.5-0.6 0.7-1.2 0.3-0.7 0.3-1.4c0-1.4-0.9-2.7-2.2-3.3-1.3-0.5-2.9-0.2-3.9 0.8-1 1-1.3 2.6-0.7 3.9 0.5 1.3 1.8 2.2 3.2 2.2z"/>
		<path id="Layer" class="s9" d="m227.4 126.2c-3.7 0-6.7-3-6.7-6.7 0-3.7 3-6.7 6.7-6.7 3.8 0 6.7 3 6.7 6.7 0 3.7-2.9 6.7-6.7 6.7z"/>
		<g id="Layer" style="opacity: .2">
			<path id="Layer" fill-rule="evenodd" class="s16" d="m227.4 138.4c-7.6 0-14.5-4.6-17.4-11.7-2.9-7-1.3-15.1 4.1-20.5 5.4-5.4 13.5-7 20.6-4.1 7 2.9 11.6 9.8 11.6 17.4 0 2.5-0.5 5-1.4 7.2-1 2.3-2.4 4.4-4.1 6.2-1.8 1.7-3.9 3.1-6.1 4-2.3 1-4.8 1.5-7.3 1.5zm0-36.5c-7.1 0-13.5 4.3-16.3 10.9-2.7 6.6-1.2 14.2 3.8 19.2 5.1 5.1 12.7 6.6 19.3 3.8 6.6-2.7 10.9-9.1 10.9-16.3 0-2.3-0.5-4.6-1.4-6.7-0.9-2.2-2.2-4.1-3.8-5.7-1.6-1.7-3.6-3-5.7-3.9-2.2-0.9-4.4-1.3-6.8-1.3z"/>
		</g>
		<path id="Layer" class="s7" d="m227.4 125.1c-3 0-5.5-2.5-5.5-5.6 0-3.1 2.5-5.5 5.5-5.5 3.1 0 5.6 2.4 5.6 5.5 0 3.1-2.5 5.6-5.6 5.6z"/>
		<path id="Layer" fill-rule="evenodd" class="s7" d="m277.5 100.8c2.4 1 4.7 2.5 6.5 4.4 1.9 1.9 3.4 4.1 4.5 6.6 1 2.4 1.5 5.1 1.5 7.7 0 8.2-4.9 15.6-12.5 18.8-7.6 3.1-16.3 1.4-22.1-4.4-5.8-5.8-7.6-14.5-4.4-22.1 3.1-7.6 10.5-12.5 18.7-12.5 2.7-0.1 5.3 0.5 7.8 1.5zm-18.4 22q0.6-0.3 1.1-0.8 0.5-0.5 0.8-1.1 0.2-0.7 0.3-1.4c0-1.4-0.9-2.7-2.2-3.3-1.4-0.5-2.9-0.2-3.9 0.8-1 1-1.4 2.6-0.8 3.9 0.6 1.3 1.9 2.2 3.3 2.2q0.7 0 1.4-0.3zm12 12q0.6-0.3 1.1-0.8 0.5-0.5 0.8-1.1 0.2-0.7 0.3-1.4c0-1.4-0.9-2.7-2.2-3.3-1.4-0.5-2.9-0.2-3.9 0.8-1 1-1.4 2.6-0.8 3.9 0.6 1.3 1.9 2.2 3.3 2.2q0.7 0 1.4-0.3zm-1.4-23.7q0.7 0 1.4-0.3 0.6-0.2 1.1-0.7 0.5-0.6 0.8-1.2 0.2-0.7 0.3-1.4c0-1.4-0.9-2.7-2.2-3.3-1.4-0.5-2.9-0.2-3.9 0.8-1 1-1.4 2.6-0.8 3.9 0.6 1.3 1.9 2.2 3.3 2.2zm13.4 11.7q0.6-0.3 1.1-0.8 0.5-0.5 0.8-1.1 0.2-0.7 0.3-1.4c0-1.4-0.9-2.7-2.2-3.3-1.4-0.5-2.9-0.2-3.9 0.8-1 1-1.4 2.6-0.8 3.9 0.6 1.3 1.9 2.2 3.3 2.2q0.7 0 1.4-0.3z"/>
		<path id="Layer" fill-rule="evenodd" class="s6" d="m277.5 100.8c2.4 1 4.7 2.5 6.5 4.4 1.9 1.9 3.4 4.1 4.5 6.6 1 2.4 1.5 5.1 1.5 7.7 0 8.2-4.9 15.6-12.5 18.8-7.6 3.1-16.3 1.4-22.1-4.4-5.8-5.8-7.6-14.5-4.4-22.1 3.1-7.6 10.5-12.5 18.7-12.5 2.7-0.1 5.3 0.5 7.8 1.5zm-18.4 22q0.6-0.3 1.1-0.8 0.5-0.5 0.8-1.1 0.2-0.7 0.3-1.4c0-1.4-0.9-2.7-2.2-3.3-1.4-0.5-2.9-0.2-3.9 0.8-1 1-1.4 2.6-0.8 3.9 0.6 1.3 1.9 2.2 3.3 2.2q0.7 0 1.4-0.3zm12 12q0.6-0.3 1.1-0.8 0.5-0.5 0.8-1.1 0.2-0.7 0.3-1.4c0-1.4-0.9-2.7-2.2-3.3-1.4-0.5-2.9-0.2-3.9 0.8-1 1-1.4 2.6-0.8 3.9 0.6 1.3 1.9 2.2 3.3 2.2q0.7 0 1.4-0.3zm-1.4-23.7q0.7 0 1.4-0.3 0.6-0.2 1.1-0.7 0.5-0.6 0.8-1.2 0.2-0.7 0.3-1.4c0-1.4-0.9-2.7-2.2-3.3-1.4-0.5-2.9-0.2-3.9 0.8-1 1-1.4 2.6-0.8 3.9 0.6 1.3 1.9 2.2 3.3 2.2zm13.4 11.7q0.6-0.3 1.1-0.8 0.5-0.5 0.8-1.1 0.2-0.7 0.3-1.4c0-1.4-0.9-2.7-2.2-3.3-1.4-0.5-2.9-0.2-3.9 0.8-1 1-1.4 2.6-0.8 3.9 0.6 1.3 1.9 2.2 3.3 2.2q0.7 0 1.4-0.3z"/>
		<path id="Layer" class="s9" d="m276.4 119.5c0 2.7-1.6 5.2-4.1 6.2-2.5 1.1-5.4 0.5-7.4-1.4-1.9-1.9-2.4-4.8-1.4-7.3 1-2.5 3.5-4.2 6.2-4.2q1.3 0 2.6 0.5 1.2 0.5 2.1 1.5 1 0.9 1.5 2.2 0.5 1.2 0.5 2.5z"/>
		<g id="Layer" style="opacity: .2">
			<path id="Layer" fill-rule="evenodd" class="s16" d="m269.7 138.4c-7.6 0-14.5-4.6-17.4-11.7-2.9-7-1.3-15.1 4.1-20.5 5.4-5.4 13.5-7 20.5-4.1 7.1 2.9 11.7 9.8 11.7 17.4 0 2.5-0.5 5-1.5 7.2-0.9 2.3-2.3 4.4-4.1 6.2-1.7 1.7-3.8 3.1-6.1 4.1-2.3 0.9-4.7 1.4-7.2 1.4zm0-36.5c-7.1 0-13.6 4.3-16.3 10.9-2.7 6.6-1.2 14.2 3.8 19.2 5.1 5.1 12.6 6.6 19.2 3.8 6.6-2.7 10.9-9.1 10.9-16.3 0-2.3-0.4-4.6-1.3-6.7-0.9-2.2-2.2-4.1-3.8-5.7-1.7-1.7-3.6-3-5.8-3.9-2.1-0.9-4.4-1.3-6.7-1.3z"/>
		</g>
		<path id="Layer" class="s7" d="m269.7 125.1c-3.1 0-5.6-2.5-5.6-5.6 0-3.1 2.5-5.5 5.6-5.5 3.1 0 5.6 2.4 5.6 5.5 0 3.1-2.5 5.6-5.6 5.6z"/>
		<path id="Layer" class="s7" d="m269.7 109.2q-1.7 0-3.2-0.5-1.5-0.6-2.7-1.6-1.3-1.1-2.1-2.5-0.8-1.4-1-3l-2.6-14.8h-19.1l-2.5 14.8q-0.3 1.6-1.1 3-0.8 1.4-2.1 2.5-1.2 1-2.7 1.6-1.5 0.5-3.1 0.5c-1.4 0-2.7 0.2-4 0.7-1.2 0.5-2.3 1.3-3.3 2.2-1 0.9-1.8 2-2.3 3.2-0.6 1.3-0.9 2.6-0.9 3.9-0.1 1.4 0.2 2.7 0.7 4 0.5 1.2 1.2 2.4 2.2 3.3 0.9 1 2.1 1.8 3.3 2.3 1.2 0.5 2.6 0.8 3.9 0.8h42.9c1.3 0 2.7-0.3 3.9-0.8 1.3-0.5 2.4-1.3 3.3-2.3 1-0.9 1.7-2.1 2.2-3.3 0.5-1.3 0.8-2.6 0.8-4-0.1-1.3-0.4-2.6-0.9-3.9-0.6-1.2-1.4-2.3-2.4-3.2-0.9-0.9-2.1-1.7-3.3-2.2-1.3-0.5-2.6-0.7-3.9-0.7z"/>
		<path id="Layer" class="s8" d="m269.7 109.2q-1.7 0-3.2-0.5-1.5-0.6-2.7-1.6-1.3-1.1-2.1-2.5-0.8-1.4-1-3l-2.6-14.8h-19.1l-2.5 14.8q-0.3 1.6-1.1 3-0.8 1.4-2.1 2.5-1.2 1-2.7 1.6-1.5 0.5-3.1 0.5c-1.4 0-2.7 0.2-4 0.7-1.2 0.5-2.3 1.3-3.3 2.2-1 0.9-1.8 2-2.3 3.2-0.6 1.3-0.9 2.6-0.9 3.9-0.1 1.4 0.2 2.7 0.7 4 0.5 1.2 1.2 2.4 2.2 3.3 0.9 1 2.1 1.8 3.3 2.3 1.2 0.5 2.6 0.8 3.9 0.8h42.9c1.3 0 2.7-0.3 3.9-0.8 1.3-0.5 2.4-1.3 3.3-2.3 1-0.9 1.7-2.1 2.2-3.3 0.5-1.3 0.8-2.6 0.8-4-0.1-1.3-0.4-2.6-0.9-3.9-0.6-1.2-1.4-2.3-2.4-3.2-0.9-0.9-2.1-1.7-3.3-2.2-1.3-0.5-2.6-0.7-3.9-0.7z"/>
		<path id="Layer" class="s6" d="m227.4 125.1c-3 0-5.5-2.5-5.5-5.6 0-3.1 2.5-5.5 5.5-5.5 3.1 0 5.6 2.4 5.6 5.5 0 3.1-2.5 5.6-5.6 5.6z"/>
		<path id="Layer" class="s6" d="m269.7 125.1c-3.1 0-5.6-2.5-5.6-5.6 0-3.1 2.5-5.5 5.6-5.5 3.1 0 5.6 2.4 5.6 5.5 0 3.1-2.5 5.6-5.6 5.6z"/>
		<path id="Layer" class="s7" d="m233 85.3h31.1v5q0 0.4-0.1 0.7-0.2 0.3-0.4 0.5-0.3 0.3-0.6 0.4-0.3 0.1-0.6 0.1h-27.7q-0.3 0-0.6-0.1-0.3-0.1-0.6-0.4-0.2-0.2-0.4-0.5-0.1-0.3-0.1-0.7v-5z"/>
		<path id="Layer" class="s6" d="m233 85.3h31.1v5q0 0.4-0.1 0.7-0.2 0.3-0.4 0.5-0.3 0.3-0.6 0.4-0.3 0.1-0.6 0.1h-27.7q-0.3 0-0.6-0.1-0.3-0.1-0.6-0.4-0.2-0.2-0.4-0.5-0.1-0.3-0.1-0.7v-5z"/>
	</g>
</svg>